# This file is brought to you by Roblox Corporation
# Generated by Roblox Studio

mtllib Door.mtl

g Union1

v 393.818 0.994188 251.724 
v 393.818 0.881083 251.724 
v 393.818 0.994188 251.724 
v 393.818 0.881083 251.724 
v 393.818 0.994188 251.724 
v 398.116 0.994188 251.724 
v 398.116 0.994188 251.724 
v 393.818 0.994188 251.724 
v 393.918 0.994188 251.724 
v 398.116 8.78109 251.724 
v 398.116 0.860288 251.724 
v 398.116 0.860289 252.177 
v 398.116 0.860288 251.724 
v 398.116 8.78109 251.724 
v 398.229 8.78109 251.724 
v 398.116 0.860289 252.177 
v 398.116 0.860288 251.724 
v 398.229 0.860289 251.724 
v 398.116 0.994188 251.851 
v 398.116 0.994188 252.177 
v 398.116 0.994188 252.077 
v 398.116 0.994188 251.851 
v 398.116 8.78109 252.077 
v 398.116 0.994188 252.077 
v 398.116 0.994188 251.724 
v 398.116 0.994188 252.177 
v 398.116 0.881083 252.177 
v 393.818 0.994188 251.724 
v 393.918 0.994188 251.724 
v 393.818 0.994188 251.724 
v 393.918 8.78108 251.724 
v 398.116 0.994188 251.851 
v 393.918 0.994188 251.851 
v 394.744 3.86028 251.851 
v 393.918 0.994188 251.851 
v 393.918 0.994188 252.077 
v 398.116 0.994188 252.077 
v 394.744 3.86029 252.077 
v 393.918 0.994188 252.077 
v 393.918 0.994188 252.177 
v 398.116 0.994188 252.177 
v 393.918 0.994188 252.177 
v 398.116 0.881083 252.177 
v 393.918 0.994188 252.177 
v 393.918 0.994188 252.177 
v 393.918 0.860287 252.177 
v 393.918 8.78108 252.177 
v 398.116 0.881083 251.724 
v 398.116 0.881083 252.177 
v 398.116 0.881083 251.851 
v 398.116 0.881083 251.724 
v 398.229 0.860289 252.177 
v 398.229 0.860289 252.177 
v 398.229 0.860289 251.724 
v 398.229 8.78109 252.177 
v 393.918 0.881083 252.177 
v 393.918 0.881083 252.177 
v 398.116 0.881083 252.077 
v 393.918 0.881083 252.177 
v 393.918 0.860287 252.177 
v 393.918 0.860287 252.177 
v 393.918 0.994188 252.177 
v 393.805 0.860287 252.177 
v 393.918 0.860287 252.077 
v 393.805 0.860287 252.177 
v 393.805 8.78108 252.177 
v 393.805 8.78108 251.724 
v 393.805 8.78108 252.177 
v 393.918 0.860287 252.177 
v 393.918 0.860287 252.177 
v 393.918 0.860287 252.077 
v 393.805 0.860287 251.724 
v 398.116 0.881083 251.851 
v 398.116 0.881083 252.077 
v 398.116 0.860296 252.077 
v 393.918 0.881083 252.077 
v 393.918 0.881083 251.724 
v 393.818 0.881083 251.724 
v 393.818 0.881083 251.724 
v 393.918 0.881083 251.724 
v 393.918 0.860288 251.724 
v 393.818 0.881083 251.724 
v 393.818 0.881083 251.724 
v 393.918 0.881083 251.851 
v 398.116 0.881083 251.851 
v 397.288 0.860293 251.851 
v 393.918 0.881083 251.851 
v 393.918 0.881083 251.724 
v 393.918 0.881083 251.851 
v 393.918 0.860288 251.851 
v 393.918 0.881083 252.077 
v 398.116 0.881083 252.077 
v 393.918 0.881083 252.077 
v 393.918 0.860287 252.077 
v 398.116 0.860296 251.851 
v 397.288 0.860293 251.851 
v 398.116 0.860296 251.851 
v 398.116 0.860296 252.077 
v 398.116 0.860296 251.851 
v 398.116 0.860296 252.077 
v 393.805 0.860287 251.724 
v 393.918 0.860288 251.724 
v 393.844 0.860288 251.851 
v 393.805 0.860287 251.724 
v 393.918 0.860288 251.724 
v 393.918 0.860288 251.851 
v 393.918 0.860288 251.851 
v 393.844 0.860282 251.851 
v 393.844 0.860282 252.077 
v 393.805 0.860287 252.177 
v 393.844 0.860287 252.077 
v 393.844 0.860288 251.851 
v 393.844 0.860287 252.077 
v 393.844 0.860287 252.077 
v 393.844 0.860288 251.851 
v 393.844 0.860282 252.077 
v 393.844 0.860282 251.851 
v 393.844 0.860282 252.077 
v 393.844 0.860282 251.851 
v 393.805 8.78108 251.724 
v 394.144 4.86028 252.077 
v 393.918 8.78108 252.077 
v 394.744 4.86028 252.077 
v 394.744 4.86028 252.077 
v 394.144 4.86028 252.077 
v 394.744 4.86028 252.151 
v 394.144 3.86028 252.077 
v 394.144 4.86028 252.077 
v 394.144 3.86028 252.077 
v 394.144 3.86028 252.151 
v 393.918 0.994188 252.077 
v 393.918 8.78108 252.077 
v 393.918 8.78108 251.851 
v 394.144 4.86028 251.851 
v 393.918 8.78108 251.851 
v 393.918 0.994188 251.851 
v 393.918 0.994188 251.724 
v 394.144 3.86028 251.851 
v 394.144 3.86028 251.851 
v 394.144 4.86028 251.851 
v 394.144 4.86028 251.751 
v 394.544 4.26028 251.351 
v 394.544 4.46028 251.751 
v 394.544 4.26028 251.751 
v 394.544 4.46028 251.351 
v 394.544 4.46028 251.751 
v 394.544 4.46028 251.351 
v 394.344 4.46028 251.351 
v 394.544 4.26028 251.751 
v 394.544 4.46028 251.751 
v 394.344 4.26028 251.751 
v 394.744 4.86028 251.851 
v 394.744 4.86028 251.851 
v 394.744 3.86028 251.851 
v 394.744 3.86028 251.751 
v 394.744 4.86028 251.751 
v 394.744 3.86028 251.751 
v 394.144 3.86028 251.751 
v 394.744 4.86028 251.751 
v 394.744 3.86029 252.077 
v 394.744 4.86028 252.077 
v 394.744 3.86028 252.151 
v 394.744 4.86028 252.151 
v 394.744 3.86028 252.151 
v 394.744 4.86028 252.151 
v 394.544 4.26028 252.151 
v 398.116 8.78109 252.077 
v 394.944 4.46029 252.551 
v 394.944 4.26029 252.551 
v 394.944 4.26029 252.351 
v 394.944 4.26029 252.551 
v 394.944 4.46029 252.551 
v 394.544 4.26028 252.551 
v 394.944 4.26029 252.351 
v 394.944 4.26029 252.551 
v 394.544 4.26028 252.351 
v 394.944 4.46029 252.351 
v 394.944 4.26029 252.351 
v 394.544 4.26028 252.351 
v 394.944 4.46029 252.351 
v 394.744 3.86029 252.077 
v 394.744 3.86028 252.151 
v 394.144 3.86028 252.077 
v 394.544 4.46028 252.151 
v 394.144 4.86028 252.151 
v 394.144 3.86028 252.151 
v 394.544 4.46028 252.151 
v 394.544 4.46028 252.551 
v 394.544 4.26028 252.151 
v 394.544 4.46028 252.551 
v 394.544 4.46028 252.151 
v 394.344 4.46028 252.151 
v 394.544 4.46028 252.351 
v 394.944 4.46029 252.351 
v 394.544 4.46028 252.351 
v 394.944 4.46029 252.551 
v 394.544 4.46028 252.551 
v 394.544 4.46028 252.551 
v 394.544 4.26028 252.551 
v 394.544 4.46028 252.551 
v 394.544 4.46028 252.351 
v 394.544 4.26028 252.551 
v 394.544 4.26028 252.351 
v 394.544 4.26028 252.151 
v 394.544 4.26028 252.551 
v 394.344 4.26028 252.151 
v 394.544 4.26028 252.551 
v 394.544 4.26028 252.551 
v 394.544 4.46028 252.551 
v 394.344 4.46028 252.551 
v 394.344 4.46028 251.751 
v 394.344 4.46028 251.751 
v 394.344 4.46028 251.351 
v 394.344 4.26028 251.351 
v 394.344 4.46028 251.751 
v 394.144 4.86028 251.751 
v 394.344 4.26028 252.551 
v 394.344 4.26028 252.551 
v 394.344 4.46028 252.551 
v 394.344 4.46028 252.151 
v 394.344 4.46028 252.551 
v 394.344 4.26028 252.151 
v 394.344 4.46028 252.151 
v 394.344 4.26028 251.751 
v 394.144 3.86028 251.751 
v 394.744 3.86028 251.751 
v 394.744 3.86028 251.851 
v 394.144 3.86028 251.851 
v 394.144 3.86028 252.151 
v 394.344 4.26028 252.151 
v 394.344 4.26028 252.551 
v 394.544 4.26028 251.751 
v 394.344 4.26028 251.751 
v 394.344 4.26028 251.351 
v 393.918 8.78108 251.724 
v 393.818 8.8942 252.177 
v 393.818 8.8942 251.724 
v 393.818 8.78109 252.177 
v 393.818 8.8942 251.724 
v 393.818 8.8942 252.177 
v 398.216 8.8942 251.724 
v 398.216 8.8942 252.177 
v 393.818 8.8942 252.177 
v 393.818 8.78109 252.177 
v 398.216 8.8942 252.177 
v 398.216 8.78109 252.177 
v 398.216 8.8942 252.177 
v 398.216 8.78109 252.177 
v 398.216 8.8942 251.724 
v 398.229 8.78109 251.724 
v 398.229 8.78109 252.177 
v 398.229 8.78109 251.724 
v 398.116 8.78109 251.724 
v 398.229 0.860289 252.177 
v 398.229 8.78109 252.177 
v 398.116 0.860289 252.177 
v 398.216 8.78109 252.177 
v 393.818 8.78109 252.177 
v 398.216 8.78109 251.724 
v 393.818 8.78109 251.724 
v 393.818 8.78109 251.724 
v 398.116 8.78109 251.851 
v 398.116 8.78109 251.851 
v 393.918 8.78108 251.851 
v 398.116 8.78109 252.077 
v 398.116 8.78109 251.851 
v 398.116 8.78109 252.177 
v 398.116 8.78109 252.177 
v 398.116 8.78109 252.177 
v 393.918 8.78108 252.077 
v 393.918 8.78108 252.177 
v 394.944 4.46029 251.351 
v 394.944 4.46029 251.551 
v 394.944 4.26029 251.351 
v 394.944 4.46029 251.551 
v 394.944 4.46029 251.351 
v 394.544 4.46028 251.551 
v 394.544 4.46028 251.351 
v 394.944 4.46029 251.351 
v 394.544 4.26028 251.351 
v 394.544 4.46028 251.351 
v 394.544 4.46028 251.551 
v 394.544 4.46028 251.351 
v 394.544 4.26028 251.551 
v 394.944 4.46029 251.551 
v 394.544 4.46028 251.551 
v 394.944 4.26029 251.551 
v 394.944 4.26029 251.351 
v 394.544 4.26028 251.351 
v 394.944 4.26029 251.351 
v 394.544 4.26028 251.551 
v 394.544 4.26028 251.351 
v 394.544 4.26028 251.551 
v 394.544 4.26028 251.351 
v 394.544 4.46028 251.351 
v 394.544 4.26028 251.351 
v 394.344 4.46028 251.351 
v 394.344 4.26028 251.351 
v 394.944 4.26029 251.551 
v 394.944 4.26029 251.551 
v 398.229 0.860289 251.724 
v 398.116 0.881083 251.724 
v 393.805 8.78108 252.177 
v 393.918 8.78108 252.177 
v 393.805 8.78108 251.724 
v 394.144 4.86028 252.151 
v 394.144 4.86028 252.151 
v 394.144 4.86028 251.851 
v 394.744 4.86028 251.851 
v 394.144 4.86028 251.751 
v 394.744 4.86028 251.751 
v 394.144 3.86028 251.751 
v 398.216 8.8942 251.724 
v 398.216 8.78109 251.724 
v 393.818 8.78109 251.724 
v 398.216 8.78109 251.724 
v 393.818 8.8942 251.724 
v 393.918 8.78108 251.724 

vn -1 0 0 
vn -1 0 0 
vn -1 0 0 
vn 0 0 -1 
vn 0 0 -1 
vn 0 0 -1 
vn 0 1 0 
vn 0 1 0 
vn 0 1 0 
vn -1 0 0 
vn -1 0 0 
vn -1 0 0 
vn 0 0 -1 
vn 0 0 -1 
vn 0 0 -1 
vn 0 -1 0 
vn 0 -1 0 
vn 0 -1 0 
vn 0 1 0 
vn 0 1 0 
vn 1 0 0 
vn 1 0 0 
vn 1 0 0 
vn 0 1 0 
vn 1 0 0 
vn 1 0 0 
vn 1 0 0 
vn 0 1 0 
vn 0 0 -1 
vn 0 0 -1 
vn 0 0 -1 
vn 0 0 -1 
vn 0 0 -1 
vn 0 0 -1 
vn 0 1 0 
vn 0 0 1 
vn 0 0 1 
vn 0 0 1 
vn 0 1 0 
vn 0 1 0 
vn 0 0 1 
vn 0 0 1 
vn 0 0 1 
vn 1 0 0 
vn 1 0 0 
vn 1 0 0 
vn 1 0 0 
vn 0 -1 0 
vn 0 -1 0 
vn 0 -1 0 
vn 1 0 0 
vn 0 -1 0 
vn 1 0 0 
vn 1 0 0 
vn 1 0 0 
vn 0 0 1 
vn 0 -1 0 
vn 0 -1 0 
vn 1 0 0 
vn 1 0 0 
vn 0 0 1 
vn 0 0 1 
vn 0 0 1 
vn 1 0 0 
vn -1 0 0 
vn -1 0 0 
vn -1 0 0 
vn 0 0 1 
vn 0 -1 0 
vn 0 -1 0 
vn 0 -1 0 
vn -1 0 0 
vn 1 0 0 
vn 1 0 0 
vn 1 0 0 
vn 0 -1 0 
vn 0 -1 0 
vn 0 -1 0 
vn 0 0 -1 
vn 0 0 -1 
vn 0 0 -1 
vn 0 -1 0 
vn -1 0 0 
vn 0 0 -1 
vn 0 0 -1 
vn 0 0 -1 
vn 0 -1 0 
vn 1 0 0 
vn 1 0 0 
vn 1 0 0 
vn 1 0 0 
vn 0 0 1 
vn 0 0 1 
vn 0 0 1 
vn 0 0 -1 
vn 0 -1 0 
vn 0 -1 0 
vn 0 -1 0 
vn 1 0 0 
vn 0 0 1 
vn 0 -1 0 
vn 0 -1 0 
vn 0 -1 0 
vn 0 0 -1 
vn 1 0 0 
vn 0 0 -1 
vn 0 -1 0 
vn 0 0 -1 
vn 0 0 1 
vn 0 -1 0 
vn 0 -1 0 
vn 0 0 -1 
vn 0 0 1 
vn -1 0 0 
vn -1 0 0 
vn -1 0 0 
vn 0 -1 0 
vn 0 -1 0 
vn -1 0 0 
vn 0 0 -1 
vn 0 0 1 
vn 0 0 1 
vn 0 0 1 
vn 0 1 0 
vn 0 1 0 
vn 0 1 0 
vn 0 0 1 
vn -1 0 0 
vn -1 0 0 
vn -1 0 0 
vn 1 0 0 
vn 1 0 0 
vn 0 0 -1 
vn 0 0 -1 
vn 1 0 0 
vn 1 0 0 
vn 1 0 0 
vn 0 0 -1 
vn -1 0 0 
vn -1 0 0 
vn -1 0 0 
vn 1 0 0 
vn 1 0 0 
vn 1 0 0 
vn 1 0 0 
vn 0 1 0 
vn 0 1 0 
vn 0 1 0 
vn 0 0 1 
vn 0 0 1 
vn 0 0 1 
vn 0 0 -1 
vn 1 0 0 
vn 1 0 0 
vn 1 0 0 
vn 0 0 -1 
vn 0 0 -1 
vn 0 0 -1 
vn 1 0 0 
vn 1 0 0 
vn 1 0 0 
vn 1 0 0 
vn 1 0 0 
vn 0 0 1 
vn 0 0 1 
vn 0 0 1 
vn 0 0 1 
vn 1 0 0 
vn 1 0 0 
vn 1 0 0 
vn 0 0 1 
vn 0 0 1 
vn 0 0 1 
vn 0 -1 0 
vn 0 -1 0 
vn 0 -1 0 
vn 0 0 -1 
vn 0 0 -1 
vn 0 0 -1 
vn 1 0 0 
vn 0 -1 0 
vn 0 -1 0 
vn 0 -1 0 
vn 0 0 1 
vn 0 0 1 
vn 0 0 1 
vn 1 0 0 
vn 1 0 0 
vn 1 0 0 
vn 0 1 0 
vn 0 1 0 
vn 0 1 0 
vn 0 0 -1 
vn 0 1 0 
vn 0 1 0 
vn 0 1 0 
vn 0 0 1 
vn 0 1 0 
vn -1 0 0 
vn -1 0 0 
vn -1 0 0 
vn 0 -1 0 
vn -1 0 0 
vn 0 -1 0 
vn 0 -1 0 
vn 0 -1 0 
vn 1 0 0 
vn 0 0 1 
vn 0 0 1 
vn 0 0 1 
vn 0 1 0 
vn -1 0 0 
vn -1 0 0 
vn -1 0 0 
vn 0 0 1 
vn 0 0 -1 
vn 0 0 1 
vn -1 0 0 
vn -1 0 0 
vn -1 0 0 
vn 0 1 0 
vn -1 0 0 
vn 0 0 1 
vn -1 0 0 
vn 0 -1 0 
vn 0 -1 0 
vn 0 -1 0 
vn 0 -1 0 
vn 0 -1 0 
vn 0 0 1 
vn 0 -1 0 
vn 0 -1 0 
vn 0 -1 0 
vn 0 -1 0 
vn 1 0 0 
vn -1 0 0 
vn -1 0 0 
vn -1 0 0 
vn 0 1 0 
vn 0 1 0 
vn 0 1 0 
vn 0 0 1 
vn 0 0 1 
vn 0 0 1 
vn 0 1 0 
vn 0 0 1 
vn 1 0 0 
vn 1 0 0 
vn 1 0 0 
vn 1 0 0 
vn 0 1 0 
vn 0 1 0 
vn 0 1 0 
vn 0 0 1 
vn 0 0 1 
vn 0 0 1 
vn 0 -1 0 
vn 0 -1 0 
vn 0 -1 0 
vn -1 0 0 
vn 0 -1 0 
vn 0 0 -1 
vn 0 1 0 
vn 0 1 0 
vn 0 1 0 
vn 1 0 0 
vn -1 0 0 
vn 0 1 0 
vn 0 0 1 
vn 0 1 0 
vn 0 0 1 
vn 1 0 0 
vn 1 0 0 
vn 1 0 0 
vn 0 1 0 
vn 0 1 0 
vn 0 1 0 
vn 0 0 -1 
vn 0 0 -1 
vn 0 0 -1 
vn 0 1 0 
vn -1 0 0 
vn -1 0 0 
vn -1 0 0 
vn 0 0 1 
vn 0 0 1 
vn 0 0 1 
vn 0 0 -1 
vn 0 -1 0 
vn 0 -1 0 
vn 0 -1 0 
vn -1 0 0 
vn 0 0 1 
vn 0 -1 0 
vn 0 0 -1 
vn 0 0 -1 
vn 0 0 -1 
vn 0 0 -1 
vn 1 0 0 
vn 0 -1 0 
vn 0 0 -1 
vn 0 0 -1 
vn 0 1 0 
vn 0 1 0 
vn 0 1 0 
vn 0 1 0 
vn -1 0 0 
vn 0 1 0 
vn 0 1 0 
vn 0 1 0 
vn 0 1 0 
vn -1 0 0 
vn 0 0 -1 
vn 0 0 -1 
vn 0 0 -1 
vn 1 0 0 
vn 0 0 -1 
vn 0 1 0 

vt 4.2597 13.78 
vt 4.27384 13.78 
vt 4.2597 13.78 
vt 0.976004 4.18202 
vt 0.990143 4.18202 
vt 0.990141 4.71927 
vt -5.26112 13.78 
vt -4.72386 13.78 
vt -4.73636 13.78 
vt 3.28634 13.78 
vt 4.27644 13.78 
vt 4.27644 13.8365 
vt 0.973404 4.71927 
vt 1.9635 4.71927 
vt 1.9635 4.73341 
vt 10.511 13.8365 
vt 10.511 13.78 
vt 10.5251 13.78 
vt -5.26111 13.7957 
vt -5.26112 13.8365 
vt 0.990141 13.824 
vt 0.990141 13.7957 
vt 1.9635 13.824 
vt -5.26111 13.824 
vt 0.990141 13.78 
vt 0.990141 13.8365 
vt 0.976003 13.8365 
vt -4.72386 13.78 
vt 0.990143 4.19452 
vt 0.990143 4.18202 
vt 1.9635 4.19452 
vt 0.990141 4.71927 
vt 0.990143 4.19452 
vt 1.3484 4.29779 
vt -4.73636 13.7957 
vt 4.2597 4.19452 
vt 4.25971 4.71927 
vt 3.90144 4.29779 
vt -4.73636 13.824 
vt -4.73636 13.8365 
vt 4.25971 4.71927 
vt 4.2597 4.19452 
vt 4.27384 4.71927 
vt 0.990143 13.8365 
vt 0.990143 13.8365 
vt 0.973405 13.8365 
vt 1.9635 13.8365 
vt 10.511 13.78 
vt 10.511 13.8365 
vt 10.511 13.7957 
vt 0.976003 13.78 
vt 10.5251 13.8365 
vt 0.973404 13.8365 
vt 0.973404 13.78 
vt 1.9635 13.8365 
vt 4.27384 4.19452 
vt 9.98621 13.8365 
vt 10.511 13.824 
vt 0.976004 13.8365 
vt 0.973405 13.8365 
vt 4.27644 4.19452 
vt 4.2597 4.19452 
vt 4.27644 4.18038 
vt 0.973405 13.824 
vt 4.27644 13.8365 
vt 3.28634 13.8365 
vt 3.28634 13.78 
vt 3.28634 4.18038 
vt 9.98621 13.8365 
vt 9.98621 13.8365 
vt 9.98621 13.824 
vt 4.27644 13.78 
vt 0.976003 13.7957 
vt 0.976003 13.824 
vt 0.973405 13.824 
vt 9.98621 13.824 
vt 9.98621 13.78 
vt 9.97371 13.78 
vt 0.976004 4.18202 
vt 0.976004 4.19452 
vt 0.973405 4.19452 
vt 9.97371 13.78 
vt 4.27384 13.78 
vt 0.976004 4.19452 
vt 0.976003 4.71927 
vt 0.973405 4.61574 
vt 9.98621 13.7957 
vt 0.976004 13.78 
vt 0.976004 13.7957 
vt 0.973405 13.7957 
vt 0.976004 13.824 
vt 4.27384 4.71927 
vt 4.27384 4.19452 
vt 4.27644 4.19452 
vt 0.973405 4.71927 
vt 10.4074 13.7957 
vt 10.511 13.7957 
vt 10.511 13.824 
vt 0.973405 13.7957 
vt 4.27644 4.71927 
vt 9.97207 13.78 
vt 9.98621 13.78 
vt 9.97698 13.7957 
vt 0.973405 4.18038 
vt 0.973405 13.78 
vt 0.973405 4.19452 
vt 9.98621 13.7957 
vt 0.973404 4.18529 
vt 4.27644 4.18529 
vt 9.97207 13.8365 
vt 9.97698 13.824 
vt 0.973405 4.18529 
vt 4.27644 4.18529 
vt 4.27644 13.824 
vt 4.27644 13.7957 
vt 4.27644 13.824 
vt 9.97698 13.7957 
vt 9.97698 13.824 
vt 4.27644 13.7957 
vt 1.9635 4.18038 
vt 3.77644 4.22279 
vt 3.28634 4.19452 
vt 3.77644 4.29779 
vt -4.83964 13.824 
vt -4.76464 13.824 
vt -4.83964 13.8332 
vt 3.90144 4.22279 
vt 3.77644 13.824 
vt 3.90144 13.824 
vt 3.90144 13.8332 
vt 0.990143 13.824 
vt 1.9635 13.824 
vt 1.9635 4.19452 
vt 1.4734 4.22279 
vt 1.9635 13.7957 
vt 0.990143 13.7957 
vt 0.990143 13.78 
vt 1.3484 4.22279 
vt 3.90144 13.7957 
vt 3.77644 13.7957 
vt 3.77644 13.7832 
vt 1.3984 13.7332 
vt 1.4234 13.7832 
vt 1.3984 13.7832 
vt 1.4234 13.7332 
vt -4.81464 13.7832 
vt -4.81464 13.7332 
vt -4.78964 13.7332 
vt 3.85144 4.27279 
vt 3.82644 4.27279 
vt 3.85144 4.24779 
vt 1.4734 4.29779 
vt 1.4734 13.7957 
vt 1.3484 13.7957 
vt 1.3484 13.7832 
vt 1.4734 4.29779 
vt 1.3484 4.29779 
vt 1.3484 4.22279 
vt 1.4734 13.7832 
vt 1.3484 13.824 
vt 1.4734 13.824 
vt 1.3484 13.8332 
vt 1.4734 13.8332 
vt 3.90144 4.29779 
vt 3.77644 4.29779 
vt 3.85144 4.27279 
vt 3.28634 4.71927 
vt 1.4234 13.8832 
vt 1.3984 13.8832 
vt 1.3984 13.8582 
vt 3.85144 4.32279 
vt 3.82644 4.32279 
vt 3.85144 4.27279 
vt 10.1145 13.8582 
vt 10.1145 13.8832 
vt 10.0645 13.8582 
vt 1.4234 4.32279 
vt 1.3984 4.32279 
vt 1.3984 4.27279 
vt 1.4234 13.8582 
vt 10.0895 13.824 
vt 10.0895 13.8332 
vt 10.0145 13.824 
vt 3.82644 4.27279 
vt 3.77644 4.22279 
vt 3.90144 4.22279 
vt 1.4234 13.8332 
vt 1.4234 13.8832 
vt 1.3984 13.8332 
vt -4.81464 13.8832 
vt -4.81464 13.8332 
vt -4.78964 13.8332 
vt 1.4234 4.27279 
vt -4.86464 13.8582 
vt -4.81464 13.8582 
vt -4.86464 13.8832 
vt 3.82644 4.27279 
vt -4.81464 13.8832 
vt 3.85144 13.8832 
vt 3.82644 13.8832 
vt 3.82644 13.8582 
vt 10.0645 13.8832 
vt 3.85144 13.8582 
vt 10.0645 13.8332 
vt 10.0645 13.8832 
vt 10.0395 13.8332 
vt 1.3984 13.8832 
vt 3.85144 4.27279 
vt 3.82644 4.27279 
vt 3.82644 4.24779 
vt -4.78964 13.7832 
vt 3.82644 13.7832 
vt 3.82644 13.7332 
vt 3.85144 13.7332 
vt 3.82644 4.24779 
vt 1.4734 4.22279 
vt 3.85144 4.24779 
vt 3.85144 13.8832 
vt 3.82644 13.8832 
vt 3.82644 13.8332 
vt -4.78964 13.8832 
vt 3.85144 13.8332 
vt 3.82644 4.24779 
vt 3.85144 13.7832 
vt 10.0145 13.7832 
vt 10.0895 13.7832 
vt 10.0895 13.7957 
vt 10.0145 13.7957 
vt 10.0145 13.8332 
vt 3.85144 4.24779 
vt 10.0395 13.8832 
vt 10.0645 13.7832 
vt 10.0395 13.7832 
vt 10.0395 13.7332 
vt 1.9635 13.78 
vt 3.2722 13.8365 
vt 3.2722 13.78 
vt 3.28634 13.8365 
vt -4.72386 13.78 
vt -4.72386 13.8365 
vt -5.27362 13.78 
vt 3.2722 4.73177 
vt 3.2722 4.18202 
vt 3.28634 4.18202 
vt -5.27362 13.8365 
vt 3.28634 4.73177 
vt 1.97764 13.8365 
vt 1.9635 13.8365 
vt 1.97764 13.78 
vt 1.9635 13.78 
vt -5.27525 13.8365 
vt -5.27525 13.78 
vt -5.26112 13.78 
vt 4.27644 4.73341 
vt 3.28634 4.73341 
vt 4.27644 4.71927 
vt 10.5235 13.8365 
vt 9.97371 13.8365 
vt 10.5235 13.78 
vt 3.28634 13.78 
vt 9.97371 13.78 
vt 1.9635 4.71927 
vt -5.26111 13.7957 
vt -4.73636 13.7957 
vt -5.26111 13.824 
vt 1.9635 13.7957 
vt 3.28634 13.8365 
vt -5.26112 13.8365 
vt 3.28634 4.71927 
vt -4.73636 13.824 
vt 3.28634 4.19452 
vt 1.4234 13.7332 
vt 1.4234 13.7582 
vt 1.3984 13.7332 
vt -4.86464 13.7582 
vt -4.86464 13.7332 
vt -4.81464 13.7582 
vt 1.4234 4.27279 
vt 1.4234 4.32279 
vt 1.3984 4.27279 
vt -4.81464 13.7332 
vt 3.82644 13.7582 
vt 3.82644 13.7332 
vt 3.85144 13.7582 
vt 3.82644 4.32279 
vt 3.82644 4.27279 
vt 3.85144 4.32279 
vt 1.3984 4.32279 
vt 10.0645 13.7332 
vt 10.1145 13.7332 
vt 10.0645 13.7582 
vt 3.85144 13.7332 
vt 3.85144 4.27279 
vt 10.0645 13.7332 
vt 1.4234 4.27279 
vt 1.3984 4.27279 
vt 1.4234 4.24779 
vt 1.3984 4.24779 
vt 1.3984 13.7582 
vt 10.1145 13.7582 
vt 0.973404 4.73341 
vt 0.976003 4.71927 
vt -4.72222 13.8365 
vt -4.73636 13.8365 
vt -4.72222 13.78 
vt -4.76464 13.8332 
vt 3.77644 13.8332 
vt -4.76464 13.7957 
vt -4.83964 13.7957 
vt -4.76464 13.7832 
vt -4.83964 13.7832 
vt 3.90144 13.7832 
vt 1.97764 4.73177 
vt 1.9635 4.73177 
vt 1.96351 4.18202 
vt 1.9635 13.78 
vt 1.97764 4.18202 
vt -4.73636 13.78 

usemtl Union1Mtl

f 1/1/1 2/2/2 3/3/3 
f 4/4/4 5/5/5 6/6/6 
f 7/7/7 8/8/8 9/9/9 
f 10/10/10 11/11/11 12/12/12 
f 13/13/13 14/14/14 15/15/15 
f 16/16/16 17/17/17 18/18/18 
f 7/7/7 19/19/19 20/20/20 
f 19/19/19 7/7/7 9/9/9 
f 21/21/21 22/22/22 23/23/23 
f 19/19/19 24/24/24 20/20/20 
f 25/25/25 26/26/26 27/27/27 
f 8/8/8 28/28/28 9/9/9 
f 29/29/29 30/30/30 31/31/31 
f 32/32/32 33/33/33 34/34/34 
f 35/35/35 19/19/19 9/9/9 
f 36/36/36 37/37/37 38/38/38 
f 24/24/24 39/39/39 40/40/40 
f 41/41/41 42/42/42 43/43/43 
f 40/40/40 20/20/20 24/24/24 
f 44/44/44 45/45/45 46/46/46 
f 45/45/45 44/44/44 47/47/47 
f 48/48/48 49/49/49 50/50/50 
f 27/27/27 51/51/51 25/25/25 
f 18/18/18 52/52/52 16/16/16 
f 53/53/53 54/54/54 55/55/55 
f 43/43/43 42/42/42 56/56/56 
f 49/49/49 57/57/57 58/58/58 
f 59/59/59 44/44/44 60/60/60 
f 61/61/61 62/62/62 63/63/63 
f 59/59/59 60/60/60 64/64/64 
f 65/65/65 66/66/66 67/67/67 
f 68/68/68 63/63/63 62/62/62 
f 69/69/69 70/70/70 71/71/71 
f 46/46/46 60/60/60 44/44/44 
f 65/65/65 67/67/67 72/72/72 
f 49/49/49 58/58/58 50/50/50 
f 73/73/73 74/74/74 75/75/75 
f 58/58/58 57/57/57 76/76/76 
f 77/77/77 48/48/48 50/50/50 
f 48/48/48 77/77/77 78/78/78 
f 79/79/79 80/80/80 81/81/81 
f 77/77/77 82/82/82 78/78/78 
f 2/2/2 83/83/83 3/3/3 
f 84/84/84 85/85/85 86/86/86 
f 50/50/50 87/87/87 77/77/77 
f 88/88/88 89/89/89 90/90/90 
f 91/91/91 59/59/59 64/64/64 
f 92/92/92 93/93/93 94/94/94 
f 86/86/86 85/85/85 95/95/95 
f 96/96/96 97/97/97 98/98/98 
f 99/99/99 73/73/73 75/75/75 
f 100/100/100 92/92/92 94/94/94 
f 101/101/101 102/102/102 103/103/103 
f 81/81/81 104/104/104 79/79/79 
f 79/79/79 104/104/104 30/30/30 
f 105/105/105 88/88/88 90/90/90 
f 106/106/106 84/84/84 86/86/86 
f 102/102/102 107/107/107 103/103/103 
f 106/106/106 86/86/86 108/108/108 
f 100/100/100 94/94/94 109/109/109 
f 70/70/70 110/110/110 111/111/111 
f 112/112/112 106/106/106 108/108/108 
f 111/111/111 110/110/110 103/103/103 
f 94/94/94 113/113/113 109/109/109 
f 111/111/111 71/71/71 70/70/70 
f 114/114/114 115/115/115 116/116/116 
f 117/117/117 96/96/96 118/118/118 
f 115/115/115 119/119/119 116/116/116 
f 98/98/98 118/118/118 96/96/96 
f 104/104/104 120/120/120 30/30/30 
f 121/121/121 122/122/122 36/36/36 
f 122/122/122 121/121/121 123/123/123 
f 124/124/124 125/125/125 126/126/126 
f 127/127/127 121/121/121 36/36/36 
f 128/128/128 129/129/129 130/130/130 
f 131/131/131 132/132/132 44/44/44 
f 36/36/36 38/38/38 127/127/127 
f 33/33/33 133/133/133 134/134/134 
f 135/135/135 136/136/136 137/137/137 
f 134/134/134 138/138/138 33/33/33 
f 139/139/139 140/140/140 141/141/141 
f 142/142/142 143/143/143 144/144/144 
f 143/143/143 142/142/142 145/145/145 
f 146/146/146 147/147/147 148/148/148 
f 149/149/149 150/150/150 151/151/151 
f 34/34/34 152/152/152 32/32/32 
f 153/153/153 154/154/154 155/155/155 
f 34/34/34 33/33/33 138/138/138 
f 156/156/156 157/157/157 158/158/158 
f 155/155/155 159/159/159 153/153/153 
f 123/123/123 38/38/38 37/37/37 
f 160/160/160 161/161/161 162/162/162 
f 162/162/162 161/161/161 163/163/163 
f 164/164/164 165/165/165 166/166/166 
f 37/37/37 167/167/167 123/123/123 
f 168/168/168 169/169/169 170/170/170 
f 171/171/171 172/172/172 173/173/173 
f 174/174/174 175/175/175 176/176/176 
f 177/177/177 178/178/178 179/179/179 
f 170/170/170 180/180/180 168/168/168 
f 181/181/181 182/182/182 183/183/183 
f 165/165/165 184/184/184 166/166/166 
f 184/184/184 165/165/165 185/185/185 
f 164/164/164 166/166/166 186/186/186 
f 187/187/187 188/188/188 189/189/189 
f 190/190/190 191/191/191 192/192/192 
f 193/193/193 177/177/177 179/179/179 
f 194/194/194 195/195/195 196/196/196 
f 172/172/172 197/197/197 173/173/173 
f 198/198/198 196/196/196 195/195/195 
f 199/199/199 200/200/200 201/201/201 
f 175/175/175 202/202/202 176/176/176 
f 201/201/201 203/203/203 199/199/199 
f 204/204/204 205/205/205 206/206/206 
f 207/207/207 189/189/189 188/188/188 
f 208/208/208 209/209/209 210/210/210 
f 148/148/148 211/211/211 146/146/146 
f 212/212/212 213/213/213 214/214/214 
f 150/150/150 215/215/215 151/151/151 
f 156/156/156 158/158/158 216/216/216 
f 210/210/210 217/217/217 208/208/208 
f 218/218/218 219/219/219 220/220/220 
f 192/192/192 221/221/221 190/190/190 
f 218/218/218 220/220/220 222/222/222 
f 223/223/223 184/184/184 185/185/185 
f 224/224/224 212/212/212 214/214/214 
f 225/225/225 226/226/226 227/227/227 
f 227/227/227 228/228/228 225/225/225 
f 182/182/182 229/229/229 183/183/183 
f 230/230/230 186/186/186 166/166/166 
f 186/186/186 230/230/230 223/223/223 
f 186/186/186 223/223/223 185/185/185 
f 231/231/231 206/206/206 205/205/205 
f 232/232/232 233/233/233 234/234/234 
f 137/137/137 235/235/235 135/135/135 
f 236/236/236 237/237/237 238/238/238 
f 239/239/239 240/240/240 241/241/241 
f 242/242/242 243/243/243 244/244/244 
f 240/240/240 245/245/245 241/241/241 
f 246/246/246 242/242/242 244/244/244 
f 247/247/247 248/248/248 249/249/249 
f 250/250/250 55/55/55 54/54/54 
f 251/251/251 252/252/252 253/253/253 
f 254/254/254 255/255/255 256/256/256 
f 257/257/257 258/258/258 259/259/259 
f 260/260/260 238/238/238 237/237/237 
f 258/258/258 261/261/261 259/259/259 
f 133/133/133 152/152/152 134/134/134 
f 152/152/152 133/133/133 262/262/262 
f 263/263/263 264/264/264 265/265/265 
f 22/22/22 266/266/266 23/23/23 
f 262/262/262 32/32/32 152/152/152 
f 267/267/267 10/10/10 12/12/12 
f 253/253/253 268/268/268 251/251/251 
f 255/255/255 269/269/269 256/256/256 
f 132/132/132 47/47/47 44/44/44 
f 47/47/47 132/132/132 135/135/135 
f 264/264/264 270/270/270 265/265/265 
f 62/62/62 271/271/271 68/68/68 
f 272/272/272 273/273/273 274/274/274 
f 275/275/275 276/276/276 277/277/277 
f 278/278/278 279/279/279 280/280/280 
f 276/276/276 281/281/281 277/277/277 
f 282/282/282 283/283/283 284/284/284 
f 285/285/285 286/286/286 287/287/287 
f 279/279/279 288/288/288 280/280/280 
f 289/289/289 290/290/290 291/291/291 
f 283/283/283 292/292/292 284/284/284 
f 286/286/286 293/293/293 287/287/287 
f 294/294/294 232/232/232 234/234/234 
f 295/295/295 296/296/296 297/297/297 
f 298/298/298 297/297/297 296/296/296 
f 299/299/299 274/274/274 273/273/273 
f 290/290/290 300/300/300 291/291/291 
f 13/13/13 15/15/15 301/301/301 
f 30/30/30 120/120/120 31/31/31 
f 4/4/4 6/6/6 302/302/302 
f 101/101/101 103/103/103 110/110/110 
f 135/135/135 235/235/235 47/47/47 
f 122/122/122 123/123/123 167/167/167 
f 303/303/303 304/304/304 305/305/305 
f 125/125/125 306/306/306 126/126/126 
f 307/307/307 128/128/128 130/130/130 
f 308/308/308 309/309/309 310/310/310 
f 310/310/310 309/309/309 311/311/311 
f 139/139/139 141/141/141 312/312/312 
f 313/313/313 314/314/314 315/315/315 
f 316/316/316 249/249/249 248/248/248 
f 313/313/313 315/315/315 317/317/317 
f 318/318/318 305/305/305 304/304/304 

g Part1

v 398.417 9.08761 251.632 
v 398.417 9.08761 252.232 
v 398.417 0.887608 251.632 
v 398.417 0.887608 252.232 
v 398.217 9.08761 252.232 
v 398.417 9.08761 252.232 
v 398.217 9.08761 251.632 
v 398.417 9.08761 251.632 
v 398.417 9.08761 252.232 
v 398.217 9.08761 252.232 
v 398.417 0.887608 252.232 
v 398.217 0.887608 252.232 
v 398.217 9.08761 252.232 
v 398.217 9.08761 251.632 
v 398.217 0.887608 252.232 
v 398.217 0.887608 251.632 
v 398.217 0.887608 251.632 
v 398.417 0.887608 251.632 
v 398.217 0.887608 252.232 
v 398.417 0.887608 252.232 
v 398.217 9.08761 251.632 
v 398.417 9.08761 251.632 
v 398.217 0.887608 251.632 
v 398.417 0.887608 251.632 

vn 1 0 0 
vn 1 0 0 
vn 1 0 0 
vn 1 0 0 
vn 0 1 0 
vn 0 1 0 
vn 0 1 0 
vn 0 1 0 
vn 0 0 1 
vn 0 0 1 
vn 0 0 1 
vn 0 0 1 
vn -1 0 0 
vn -1 0 0 
vn -1 0 0 
vn -1 0 0 
vn 0 -1 0 
vn 0 -1 0 
vn 0 -1 0 
vn 0 -1 0 
vn 0 0 -1 
vn 0 0 -1 
vn 0 0 -1 
vn 0 0 -1 

vt 0.47428 0.632503 
vt 0.39928 0.632503 
vt 0.47428 -0.392497 
vt 0.39928 -0.392497 
vt 0.42428 0.632503 
vt 0.39928 0.632503 
vt 0.42428 0.557503 
vt 0.39928 0.557503 
vt 0.42428 0.632503 
vt 0.39928 0.632503 
vt 0.42428 -0.392497 
vt 0.39928 -0.392497 
vt 0.47428 0.632503 
vt 0.39928 0.632503 
vt 0.47428 -0.392497 
vt 0.39928 -0.392497 
vt 0.42428 0.632503 
vt 0.39928 0.632503 
vt 0.42428 0.557503 
vt 0.39928 0.557503 
vt 0.42428 0.632503 
vt 0.39928 0.632503 
vt 0.42428 -0.392497 
vt 0.39928 -0.392497 

usemtl Part1Mtl

f 319/319/319 320/320/320 321/321/321 
f 321/321/321 320/320/320 322/322/322 
f 323/323/323 324/324/324 325/325/325 
f 325/325/325 324/324/324 326/326/326 
f 327/327/327 328/328/328 329/329/329 
f 329/329/329 328/328/328 330/330/330 
f 331/331/331 332/332/332 333/333/333 
f 333/333/333 332/332/332 334/334/334 
f 335/335/335 336/336/336 337/337/337 
f 337/337/337 336/336/336 338/338/338 
f 339/339/339 340/340/340 341/341/341 
f 341/341/341 340/340/340 342/342/342 

g Part2

v 398.217 9.08762 251.632 
v 398.217 9.08762 252.232 
v 398.217 8.88762 251.632 
v 398.217 8.88762 252.232 
v 393.817 9.08762 252.232 
v 398.217 9.08762 252.232 
v 393.817 9.08762 251.632 
v 398.217 9.08762 251.632 
v 398.217 9.08762 252.232 
v 393.817 9.08762 252.232 
v 398.217 8.88762 252.232 
v 393.817 8.88762 252.232 
v 393.817 9.08762 252.232 
v 393.817 9.08762 251.632 
v 393.817 8.88762 252.232 
v 393.817 8.88762 251.632 
v 393.817 8.88762 251.632 
v 398.217 8.88762 251.632 
v 393.817 8.88762 252.232 
v 398.217 8.88762 252.232 
v 393.817 9.08762 251.632 
v 398.217 9.08762 251.632 
v 393.817 8.88762 251.632 
v 398.217 8.88762 251.632 

vn 1 0 0 
vn 1 0 0 
vn 1 0 0 
vn 1 0 0 
vn 0 1 0 
vn 0 1 0 
vn 0 1 0 
vn 0 1 0 
vn 0 0 1 
vn 0 0 1 
vn 0 0 1 
vn 0 0 1 
vn -1 0 0 
vn -1 0 0 
vn -1 0 0 
vn -1 0 0 
vn 0 -1 0 
vn 0 -1 0 
vn 0 -1 0 
vn 0 -1 0 
vn 0 0 -1 
vn 0 0 -1 
vn 0 0 -1 
vn 0 0 -1 

vt -0.0125992 0.783116 
vt -0.0875992 0.783116 
vt -0.0125992 0.758116 
vt -0.0875992 0.758116 
vt 0.462401 0.783116 
vt -0.0875992 0.783116 
vt 0.462401 0.708116 
vt -0.0875992 0.708116 
vt 0.462401 0.783116 
vt -0.0875992 0.783116 
vt 0.462401 0.758116 
vt -0.0875992 0.758116 
vt -0.0125992 0.783116 
vt -0.0875992 0.783116 
vt -0.0125992 0.758116 
vt -0.0875992 0.758116 
vt 0.462401 0.783116 
vt -0.0875992 0.783116 
vt 0.462401 0.708116 
vt -0.0875992 0.708116 
vt 0.462401 0.783116 
vt -0.0875992 0.783116 
vt 0.462401 0.758116 
vt -0.0875992 0.758116 

usemtl Part1Mtl

f 343/343/343 344/344/344 345/345/345 
f 345/345/345 344/344/344 346/346/346 
f 347/347/347 348/348/348 349/349/349 
f 349/349/349 348/348/348 350/350/350 
f 351/351/351 352/352/352 353/353/353 
f 353/353/353 352/352/352 354/354/354 
f 355/355/355 356/356/356 357/357/357 
f 357/357/357 356/356/356 358/358/358 
f 359/359/359 360/360/360 361/361/361 
f 361/361/361 360/360/360 362/362/362 
f 363/363/363 364/364/364 365/365/365 
f 365/365/365 364/364/364 366/366/366 

g Part3

v 393.817 9.08761 251.632 
v 393.817 9.08761 252.232 
v 393.817 0.887609 251.632 
v 393.817 0.887609 252.232 
v 393.617 9.08761 252.232 
v 393.817 9.08761 252.232 
v 393.617 9.08761 251.632 
v 393.817 9.08761 251.632 
v 393.817 9.08761 252.232 
v 393.617 9.08761 252.232 
v 393.817 0.887609 252.232 
v 393.617 0.887609 252.232 
v 393.617 9.08761 252.232 
v 393.617 9.08761 251.632 
v 393.617 0.887609 252.232 
v 393.617 0.887609 251.632 
v 393.617 0.887609 251.632 
v 393.817 0.887609 251.632 
v 393.617 0.887609 252.232 
v 393.817 0.887609 252.232 
v 393.617 9.08761 251.632 
v 393.817 9.08761 251.632 
v 393.617 0.887609 251.632 
v 393.817 0.887609 251.632 

vn 1 0 0 
vn 1 0 0 
vn 1 0 0 
vn 1 0 0 
vn 0 1 0 
vn 0 1 0 
vn 0 1 0 
vn 0 1 0 
vn 0 0 1 
vn 0 0 1 
vn 0 0 1 
vn 0 0 1 
vn -1 0 0 
vn -1 0 0 
vn -1 0 0 
vn -1 0 0 
vn 0 -1 0 
vn 0 -1 0 
vn 0 -1 0 
vn 0 -1 0 
vn 0 0 -1 
vn 0 0 -1 
vn 0 0 -1 
vn 0 0 -1 

vt 0.406848 0.854509 
vt 0.331848 0.854509 
vt 0.406848 -0.170491 
vt 0.331848 -0.170491 
vt 0.356848 0.854509 
vt 0.331848 0.854509 
vt 0.356848 0.779509 
vt 0.331848 0.779509 
vt 0.356848 0.854509 
vt 0.331848 0.854509 
vt 0.356848 -0.170491 
vt 0.331848 -0.170491 
vt 0.406848 0.854509 
vt 0.331848 0.854509 
vt 0.406848 -0.170491 
vt 0.331848 -0.170491 
vt 0.356848 0.854509 
vt 0.331848 0.854509 
vt 0.356848 0.779509 
vt 0.331848 0.779509 
vt 0.356848 0.854509 
vt 0.331848 0.854509 
vt 0.356848 -0.170491 
vt 0.331848 -0.170491 

usemtl Part1Mtl

f 367/367/367 368/368/368 369/369/369 
f 369/369/369 368/368/368 370/370/370 
f 371/371/371 372/372/372 373/373/373 
f 373/373/373 372/372/372 374/374/374 
f 375/375/375 376/376/376 377/377/377 
f 377/377/377 376/376/376 378/378/378 
f 379/379/379 380/380/380 381/381/381 
f 381/381/381 380/380/380 382/382/382 
f 383/383/383 384/384/384 385/385/385 
f 385/385/385 384/384/384 386/386/386 
f 387/387/387 388/388/388 389/389/389 
f 389/389/389 388/388/388 390/390/390 

