# This file is brought to you by Roblox Corporation
# Generated by Roblox Studio

mtllib Cow3.mtl

g Head1

v 342 2.99999 161.37 
v 342 2.99999 161.37 
v 342 2.99999 161.37 
v 342 2.99999 161.37 
v 342 2.99999 161.37 
v 342 2.69999 161.37 
v 342 2.69999 161.37 
v 342 2.99999 161.37 
v 342 2.99999 161.37 
v 342 2.69998 161.37 
v 342 2.7 161.37 
v 344 2.69998 161.37 
v 342 2.7 161.37 
v 342 2.69999 161.37 
v 341.9 2.69999 161.37 
v 342 2.69999 161.37 
v 342 2.69999 161.37 
v 342 2.69999 161.37 
v 342 2.99999 161.37 
v 341.9 3 161.37 
v 342 2.99999 161.37 
v 342 2.99999 161.37 
v 342 2.99999 161.37 
v 342 2.99999 161.37 
v 341.9 2.99999 161.37 
v 341.9 2.99999 161.37 
v 341.9 3 161.37 
v 341.9 3 160.87 
v 341.9 2.69999 160.87 
v 341.9 3 160.87 
v 341.9 3 161.37 
v 341.9 3 160.87 
v 341.9 3 161.37 
v 341.9 3 161.37 
v 341.9 2.69999 161.37 
v 341.9 3 161.37 
v 341.9 3 161.37 
v 341.9 3 161.37 
v 341.9 3 161.37 
v 341.9 2.99999 161.37 
v 341.9 2.69999 161.37 
v 341.9 3 161.37 
v 341.9 3 161.37 
v 342 2.69999 160.87 
v 342 3 160.87 
v 342 3 160.87 
v 342 3 160.87 
v 342 3 160.87 
v 342 4.59998 160.87 
v 342 2.7 161.37 
v 342 2.69999 160.87 
v 342 2.69998 161.37 
v 342 2.69998 161.37 
v 342 2.69998 160.87 
v 344 2.69998 161.37 
v 342 2.69998 160.87 
v 342 2.69998 160.87 
v 342 2.69998 159.87 
v 342 2.69998 159.87 
v 342 2.69998 159.87 
v 342 2.69999 159.87 
v 342 3 160.87 
v 342 2.69999 160.87 
v 341.9 2.69999 160.87 
v 341.9 3 160.87 
v 341.9 4.29999 161.37 
v 341.9 3 160.87 
v 341.9 2.69999 160.87 
v 341.9 2.69998 160.87 
v 341.9 2.69998 159.87 
v 342 2.69998 159.87 
v 341.9 2.69998 159.87 
v 341.9 2.69998 160.87 
v 341.9 4.69999 160.87 
v 341.9 4.69999 160.87 
v 341.9 2.69998 160.87 
v 342 4.59998 160.87 
v 342 2.69998 160.87 
v 342 2.69998 160.87 
v 342 2.69999 159.87 
v 341.9 4.69999 159.87 
v 341.9 4.29999 161.47 
v 341.9 4.69999 161.47 
v 341.9 4.69999 161.37 
v 341.9 4.69999 161.47 
v 341.9 4.29999 161.47 
v 343.35 4.29999 161.47 
v 342.3 4.59998 160.87 
v 342.3 4.59998 160.67 
v 342.3 4.59998 160.67 
v 342.3 4.59998 160.87 
v 343.6 4.59998 160.67 
v 342 4.59998 161.37 
v 342 4.59998 160.87 
v 343.6 4.59998 161.37 
v 342 4.59998 160.87 
v 342 4.59998 160.87 
v 342 4.59998 160.87 
v 342 4.59998 161.37 
v 342 4.59998 160.87 
v 342 4.59998 160.87 
v 342 4.59998 160.87 
v 342 4.59998 160.87 
v 342 4.59998 160.87 
v 342 4.59998 160.87 
v 342 4.59998 160.87 
v 342.3 4.59998 160.87 
v 342.3 4.59998 160.87 
v 342 4.69999 161.37 
v 343.6 4.69999 161.37 
v 342.3 4.69998 161.37 
v 343.6 4.69999 161.37 
v 342 4.69999 161.37 
v 343.6 4.69999 161.47 
v 342 4.69999 161.37 
v 342 4.69999 161.37 
v 342 4.69999 160.87 
v 342 4.69999 161.37 
v 341.9 4.69999 161.37 
v 342 4.69999 161.37 
v 341.9 4.69999 161.37 
v 341.9 4.69999 161.37 
v 341.9 4.69999 161.47 
v 341.9 4.69999 161.37 
v 341.9 4.69999 161.37 
v 341.9 4.69999 161.37 
v 341.9 4.69999 161.37 
v 341.9 4.69999 160.87 
v 342 4.69999 161.37 
v 342 4.69999 160.87 
v 341.9 4.69999 160.87 
v 342 4.69999 161.37 
v 342 4.69999 161.37 
v 342 4.69998 160.87 
v 341.9 4.69999 161.37 
v 341.9 4.69999 161.37 
v 342.3 4.69998 161.37 
v 343.6 4.69998 161.37 
v 343.6 4.69998 161.37 
v 343.6 4.69998 161.37 
v 343.6 4.69998 161.37 
v 342 4.69998 161.37 
v 342.3 4.69998 160.87 
v 342 4.69998 161.37 
v 342 4.69998 161.37 
v 341.9 4.69999 161.37 
v 341.9 4.69999 161.37 
v 341.9 4.29999 161.37 
v 342.3 4.59998 161.37 
v 342 4.59998 161.37 
v 342.3 4.59998 160.87 
v 342 4.59998 161.37 
v 342.3 4.59998 161.37 
v 342 4.29999 161.37 
v 343.6 4.29999 161.37 
v 342.3 4.69997 159.87 
v 342.3 4.69997 160.67 
v 343.6 4.69997 159.87 
v 342.3 4.69997 160.67 
v 342.3 4.69997 159.87 
v 342.3 4.69998 160.67 
v 342.3 4.69998 160.67 
v 342 4.69998 159.87 
v 342.3 4.59998 160.67 
v 342.3 4.59998 160.87 
v 342.3 4.59998 160.67 
v 343.6 4.59998 160.67 
v 342.3 4.59998 160.87 
v 342.3 4.59998 160.87 
v 342.3 4.59998 160.67 
v 342.3 4.69998 160.67 
v 342.3 4.69998 160.67 
v 342.3 4.69997 160.67 
v 342.3 4.59998 160.67 
v 343.6 4.59998 160.67 
v 342 4.69998 160.87 
v 342 4.69998 159.87 
v 342 4.69999 160.87 
v 342 4.69998 160.87 
v 342.3 4.69998 160.67 
v 342 4.69997 160.87 
v 342.3 4.69998 160.87 
v 342.3 4.69998 160.67 
v 342.3 4.69998 160.87 
v 342.3 4.69998 160.87 
v 342.3 4.69998 160.67 
v 342.3 4.69998 160.67 
v 342.3 4.69998 160.67 
v 343.6 4.69998 160.67 
v 342 4.69998 160.87 
v 342 4.69998 160.87 
v 342 4.69998 160.87 
v 342.3 4.69998 160.67 
v 342.3 4.69998 160.67 
v 342 4.69998 160.87 
v 342 4.69998 160.87 
v 341.9 3 160.87 
v 342 4.69998 160.87 
v 342 4.69998 160.87 
v 342 4.69998 160.87 
v 342.3 4.69998 160.87 
v 342 4.69999 160.87 
v 342 4.69999 159.87 
v 341.9 4.69999 160.87 
v 342 4.69999 159.87 
v 342 4.69998 160.87 
v 342 4.69999 160.87 
v 342 4.69999 160.87 
v 341.9 4.69999 160.87 
v 342 4.69997 160.87 
v 342.3 4.69998 160.87 
v 342.3 4.59998 160.87 
v 342.3 4.59998 160.87 
v 342 4.59998 160.87 
v 342 4.69997 160.87 
v 342 4.69997 160.87 
v 342 4.69997 160.87 
v 342 4.59998 160.87 
v 342 4.59998 160.87 
v 342 4.69998 160.87 
v 342 4.59998 160.87 
v 342 4.69998 160.87 
v 342 4.59998 160.87 
v 342 4.59998 160.87 
v 342 4.59998 160.87 
v 342 4.59998 160.87 
v 342 4.59998 160.87 
v 342 4.59998 161.37 
v 342 4.59998 160.87 
v 342.3 4.59998 160.87 
v 343.6 4.59998 161.37 
v 342.3 4.59998 160.87 
v 342 4.29999 161.37 
v 342 4.59998 160.87 
v 342 4.59998 160.87 
v 342 2.99999 161.37 
v 342 4.59998 161.37 
v 344 4.59998 161.37 
v 341.9 4.29999 161.37 
v 342 4.29999 161.37 
v 341.9 4.29999 161.47 
v 341.9 4.29999 161.37 
v 343.35 4.29999 161.47 
v 342 4.29999 161.37 
v 342 4.29999 161.37 
v 341.9 4.29999 161.37 
v 341.9 4.29999 161.37 
v 342 4.29999 161.37 
v 341.9 4.29999 161.37 
v 341.9 4.29999 161.37 
v 341.9 4.29999 161.37 
v 342 2.99999 161.37 
v 342 3 160.87 
v 342 4.59998 160.87 
v 342.3 4.69997 159.87 
v 341.9 4.69999 159.87 
v 342 4.69999 159.87 
v 341.9 2.69998 159.87 
v 341.9 4.69999 159.87 
v 342.3 4.69998 159.87 
v 342.3 4.69997 159.87 
v 342.3 4.69998 159.87 
v 342 4.69998 159.87 
v 342.3 4.69997 159.87 
v 343.6 4.69997 159.87 
v 342.3 4.59998 159.87 
v 342.3 4.69998 159.87 
v 342.3 4.69997 159.87 
v 342.3 4.59998 159.87 
v 342.3 4.59998 159.87 
v 342 2.69998 159.87 
v 342.3 4.59998 159.87 
v 343.6 4.59998 159.87 
v 342 4.59998 159.87 
v 342 2.69999 159.87 
v 342 2.69998 159.87 
v 342 2.69999 159.87 
v 342 4.59998 159.87 
v 342.3 4.59998 159.87 
v 342 4.59998 159.87 
v 342.3 4.59998 159.87 
v 342.3 4.59998 159.87 
v 342.3 4.59998 159.87 
v 342 4.59998 159.87 
v 342 4.59998 159.87 
v 342.3 4.59998 159.87 
v 342 4.59998 159.87 
v 342.3 4.59998 159.87 
v 342.2 4.29998 159.77 
v 342.2 4.29998 159.87 
v 342.6 4.29998 159.87 
v 342.2 4.29998 159.87 
v 342.2 4.29998 159.77 
v 342.2 3.89997 159.77 
v 342.6 3.89997 159.87 
v 342.2 3.89997 159.87 
v 342.2 3.89997 159.77 
v 342.2 3.89997 159.87 
v 342.6 3.89997 159.87 
v 342.2 4.29998 159.87 
v 342.2 3.89997 159.87 
v 342 2.69998 159.87 
v 342.2 3.89997 159.77 
v 342.2 4.29998 159.77 
v 342.6 4.29998 159.77 
v 342.6 3.89997 159.77 
v 342.2 3.29999 159.77 
v 342.2 3.29999 159.67 
v 342.2 2.69999 159.67 
v 342.2 3.29999 159.67 
v 342.2 3.29999 159.77 
v 342.4 3.29999 159.77 
v 342.4 3.29999 159.77 
v 342.2 3.29999 159.77 
v 342.2 2.69999 159.77 
v 342.2 2.69999 159.77 
v 342 3.49999 159.87 
v 342 2.69999 159.87 
v 344 2.69999 159.87 
v 342 2.69999 159.87 
v 342 3.49999 159.87 
v 342 2.69999 159.77 
v 342 2.69999 159.87 
v 342 2.69999 159.87 
v 342 2.69999 159.77 
v 342 3.49999 159.77 
v 342.4 3.09999 159.77 
v 342 3.49999 159.77 
v 342 2.69999 159.87 
v 342 2.69999 159.77 
v 344 2.69999 159.87 
v 342.35 3.29998 159.77 
v 342.2 2.69999 159.67 
v 342.2 3.29999 159.67 
v 342.4 2.69999 159.67 
v 344 2.69998 160.47 
v 343.6 4.69999 161.47 
v 343.6 4.59998 161.37 
v 344 2.69998 161.37 
v 344 2.69998 160.47 
v 344.1 2.69998 161.37 
v 344 2.69998 160.47 
v 344 2.69998 161.37 
v 344 2.69998 161.37 
v 344 2.69998 161.37 
v 344 2.69998 160.47 
v 344 2.69998 159.87 
v 344.1 2.69998 161.37 
v 344.1 2.69998 159.87 
v 344 2.69998 161.37 
v 344 2.69998 161.37 
v 344.1 4.29998 161.47 
v 344.1 4.69998 161.47 
v 343.6 4.69998 161.47 
v 344.1 4.69998 161.47 
v 344.1 4.29998 161.47 
v 344.1 4.69998 161.37 
v 343.6 4.69998 161.47 
v 344.1 4.69998 161.47 
v 344.1 4.69998 161.37 
v 343.6 4.69998 161.37 
v 343.6 4.69998 161.47 
v 343.6 4.69999 161.37 
v 343.6 4.69999 161.47 
v 343.6 4.69998 161.37 
v 343.6 4.29999 161.47 
v 343.6 4.29999 161.47 
v 343.6 4.29998 161.47 
v 343.6 4.29999 161.47 
v 344.1 4.29998 161.47 
v 343.6 4.29998 161.47 
v 343.6 4.29998 161.37 
v 343.6 4.29999 161.47 
v 343.6 4.29999 161.47 
v 343.6 4.29999 161.47 
v 343.6 4.29999 161.47 
v 343.6 4.29999 161.47 
v 343.6 4.29999 161.37 
v 344.1 4.69998 159.87 
v 344.1 4.69998 161.37 
v 344.1 2.69998 161.37 
v 344.1 4.69998 161.37 
v 344.1 4.69998 159.87 
v 344 4.69998 161.37 
v 344.1 4.69998 161.37 
v 344 4.69998 161.37 
v 344.1 4.29998 161.37 
v 344.1 4.29998 161.37 
v 344.1 4.69998 161.37 
v 344.1 4.29998 161.37 
v 343.6 4.59998 161.37 
v 343.6 4.59998 161.37 
v 344 4.59998 161.37 
v 343.6 4.59998 161.37 
v 344 4.59998 161.37 
v 344 4.59998 161.37 
v 343.6 4.69998 161.37 
v 343.6 4.69998 161.37 
v 343.6 4.29999 161.37 
v 343.6 4.59998 161.37 
v 343.6 4.59998 161.37 
v 343.6 4.59998 161.37 
v 343.6 4.59998 161.37 
v 343.6 4.29998 161.37 
v 343.6 4.59998 161.37 
v 343.6 4.29998 161.37 
v 343.6 4.69998 161.37 
v 343.6 4.59998 161.37 
v 344 4.59998 161.37 
v 344 4.69998 161.37 
v 344 4.69998 159.87 
v 343.6 4.69998 160.67 
v 343.6 4.69998 161.37 
v 343.6 4.69998 161.37 
v 343.6 4.59998 160.67 
v 343.6 4.69997 160.67 
v 343.6 4.69997 160.67 
v 343.6 4.59998 160.67 
v 343.6 4.69998 160.67 
v 343.6 4.69998 160.67 
v 343.6 4.69998 160.67 
v 343.6 4.69998 161.37 
v 344 4.69998 161.37 
v 343.6 4.69998 160.67 
v 343.6 4.69998 160.67 
v 343.6 4.69998 160.67 
v 343.6 4.69998 160.67 
v 343.6 4.59998 161.37 
v 344 4.69998 161.37 
v 343.6 4.69998 161.37 
v 344 4.69998 161.37 
v 344 4.59998 161.37 
v 344 4.59998 159.87 
v 343.6 4.59998 161.37 
v 343.6 4.59998 161.37 
v 343.6 4.59998 161.37 
v 343.6 4.59998 161.37 
v 343.6 4.59998 161.37 
v 343.6 4.59998 160.67 
v 343.6 4.69997 159.87 
v 343.6 4.69997 160.67 
v 343.6 4.29999 161.47 
v 343.6 4.29998 161.47 
v 342.6 3.89997 159.77 
v 342.6 3.89997 159.77 
v 342.6 4.29998 159.77 
v 342.6 4.29998 159.87 
v 342.6 4.29998 159.77 
v 342.6 4.29998 159.87 
v 342.6 3.89997 159.87 
v 344.1 2.69998 159.87 
v 344 4.59998 159.87 
v 344 4.59998 159.87 
v 344 4.59998 159.87 
v 344 4.69998 159.87 
v 344.1 4.69998 159.87 
v 344 4.59998 159.87 
v 344 4.69998 159.87 
v 344 4.69998 159.87 
v 344 4.59998 159.87 
v 343.6 4.69998 159.87 
v 343.6 4.69998 159.87 
v 344 4.69998 159.87 
v 343.6 4.59998 159.87 
v 343.6 4.59998 159.87 
v 343.6 4.59998 159.87 
v 343.6 4.69998 159.87 
v 343.6 4.59998 159.87 
v 343.6 4.59998 159.87 
v 344 4.69998 159.87 
v 344 4.59998 159.87 
v 344 2.69998 159.87 
v 344 4.59998 159.87 
v 343.6 4.59998 159.87 
v 343.6 4.59998 159.87 
v 343.6 4.59998 159.87 
v 343.6 4.59998 159.87 
v 344 4.59998 159.87 
v 343.6 4.59998 159.87 
v 343.6 4.59998 159.87 
v 344 4.59998 159.87 
v 344 4.59998 159.87 
v 344 4.59998 159.87 
v 343.6 4.59998 159.87 
v 342.3 4.59998 159.87 
v 343.6 4.59998 159.87 
v 343.6 4.59998 159.87 
v 343.6 4.59998 159.87 
v 343.6 4.59998 159.87 
v 343.6 4.59998 159.87 
v 343.6 4.59998 159.87 
v 343.6 4.59998 159.87 
v 343.6 4.59998 159.87 
v 343.6 4.59998 159.87 
v 343.8 4.29998 159.77 
v 343.8 3.89997 159.77 
v 343.4 3.89997 159.77 
v 343.8 3.89997 159.77 
v 343.8 4.29998 159.77 
v 343.8 4.29998 159.87 
v 343.8 4.29998 159.87 
v 343.8 4.29998 159.77 
v 343.4 4.29998 159.77 
v 343.8 3.89997 159.87 
v 343.8 4.29998 159.87 
v 343.4 4.29998 159.87 
v 343.8 3.89997 159.87 
v 343.8 3.89997 159.77 
v 343.8 3.89997 159.87 
v 343.4 3.89997 159.87 
v 344.1 2.69998 159.87 
v 343.4 4.29998 159.77 
v 343.4 4.29998 159.87 
v 343.4 4.29998 159.77 
v 343.4 3.89997 159.77 
v 343.4 4.29998 159.87 
v 343.4 3.89997 159.87 
v 343.4 3.89997 159.87 
v 343.4 3.89997 159.77 
v 343.6 3.09998 159.67 
v 343.6 2.89999 159.67 
v 343.6 3.09999 159.67 
v 343.6 3.09998 159.77 
v 343.6 3.09998 159.77 
v 343.6 3.09998 159.67 
v 343.6 3.09998 159.67 
v 343.6 2.89999 159.77 
v 343.6 3.09998 159.77 
v 343.4 3.09998 159.77 
v 343.6 2.89999 159.77 
v 343.6 2.89999 159.67 
v 343.6 2.89999 159.77 
v 343.6 2.89999 159.67 
v 343.6 2.89999 159.67 
v 343.6 2.89999 159.67 
v 343.6 2.89999 159.67 
v 343.6 2.89999 159.67 
v 343.6 2.89999 159.67 
v 343.6 3.09998 159.67 
v 343.6 3.09999 159.67 
v 343.6 3.09998 159.67 
v 343.6 3.09999 159.67 
v 343.6 2.89999 159.67 
v 343.4 3.09999 159.67 
v 343.6 3.09999 159.67 
v 343.6 3.09999 159.67 
v 343.6 3.09999 159.67 
v 343.4 3.09999 159.67 
v 343.8 2.69999 159.67 
v 343.8 2.69999 159.77 
v 343.6 2.69999 159.77 
v 343.8 2.69999 159.77 
v 343.8 2.69999 159.67 
v 343.8 3.29999 159.67 
v 343.8 2.69999 159.77 
v 343.8 3.29999 159.77 
v 343.6 3.29999 159.77 
v 343.8 3.29999 159.77 
v 344 2.69999 159.77 
v 344 2.69999 159.87 
v 344 2.69999 159.77 
v 344 3.49999 159.87 
v 344 2.69998 159.87 
v 344 2.69998 159.87 
v 344 2.69998 159.87 
v 344 2.69998 159.87 
v 344 2.69998 159.87 
v 344 2.69998 159.87 
v 344 3.49999 159.87 
v 343.6 3.29999 159.77 
v 343.8 3.29999 159.67 
v 343.6 3.29999 159.67 
v 343.8 3.29999 159.77 
v 343.6 3.29999 159.67 
v 343.8 3.29999 159.67 
v 343.8 2.69999 159.67 
v 344 3.49999 159.77 
v 343.6 3.09999 159.77 
v 343.6 3.29999 159.77 
v 344 2.69999 159.77 
v 343.6 2.69999 159.77 
v 343.6 2.7 159.77 
v 343.6 3.29999 159.77 
v 343.6 3.29998 159.77 
v 343.6 3.09999 159.77 
v 343.6 3.29999 159.77 
v 343.6 3.29999 159.77 
v 343.6 3.09999 159.77 
v 343.6 2.9 159.77 
v 343.6 3.09998 159.77 
v 343.6 2.7 159.77 
v 343.6 2.9 159.77 
v 343.6 2.9 159.77 
v 343.6 2.69999 159.77 
v 343.6 3.29998 159.77 
v 343.6 3.29999 159.77 
v 343.6 3.29998 159.67 
v 343.6 2.9 159.77 
v 343.6 2.89999 159.77 
v 343.6 2.89999 159.77 
v 343.6 3.09998 159.77 
v 343.6 3.09999 159.77 
v 343.6 3.09999 159.77 
v 343.6 2.89999 159.77 
v 343.6 3.09998 159.77 
v 343.6 2.89999 159.67 
v 343.6 2.69999 159.77 
v 343.6 2.7 159.77 
v 343.6 2.7 159.77 
v 343.6 3.09999 159.77 
v 343.6 3.29999 159.77 
v 343.6 3.29999 159.77 
v 343.6 3.29998 159.77 
v 343.6 2.7 159.77 
v 343.6 2.9 159.77 
v 343.6 2.7 159.77 
v 343.6 2.9 159.77 
v 343.4 3.09998 159.77 
v 343.4 3.09998 159.77 
v 343.4 2.89999 159.77 
v 343.4 2.89999 159.77 
v 342.4 2.69999 159.77 
v 342.4 2.69999 159.77 
v 342.4 2.69999 159.67 
v 343.6 3.29999 159.67 
v 343.6 3.09998 159.67 
v 343.6 2.69999 159.67 
v 343.6 2.69999 159.67 
v 343.6 2.69999 159.77 
v 343.6 2.69999 159.67 
v 343.6 2.69999 159.67 
v 343.6 2.69999 159.77 
v 343.6 2.69999 159.67 
v 343.6 3.29998 159.67 
v 343.6 2.69999 159.67 
v 343.4 3.09999 159.67 
v 343.4 2.89999 159.77 
v 343.4 2.89999 159.67 
v 343.6 2.89999 159.67 
v 344 3.49999 159.77 
v 342 3.49999 159.77 
v 344 3.49999 159.87 
v 342.4 3.29998 159.77 
v 343.4 3.09999 159.67 
v 342.4 3.29998 159.67 
v 343.4 3.09999 159.67 
v 343.4 2.89999 159.67 
v 343.4 3.09999 159.67 
v 343.4 2.89999 159.67 
v 343.4 2.89999 159.67 
v 343.6 2.89999 159.67 
v 343.4 2.89999 159.67 
v 343.4 2.89999 159.67 
v 343.6 2.89999 159.67 
v 343.4 3.09998 159.67 
v 343.4 2.89999 159.67 
v 342.6 2.89999 159.67 
v 343.4 2.89999 159.67 
v 343.4 3.09998 159.67 
v 342.6 2.89999 159.67 
v 342.6 3.09999 159.67 
v 342.6 2.89999 159.67 
v 342.6 3.09999 159.67 
v 342.6 2.89999 159.67 
v 342.6 2.89999 159.67 
v 342.6 3.09998 159.67 
v 342.6 3.09998 159.67 
v 342.6 3.09999 159.67 
v 342.6 2.89999 159.67 
v 342.4 3.09999 159.67 
v 342.6 3.09999 159.67 
v 342.6 3.09999 159.67 
v 342.6 3.09999 159.67 
v 342.4 3.09999 159.67 
v 342.4 2.69999 159.67 
v 342.4 3.09999 159.67 
v 342.4 3.09999 159.67 
v 343.6 3.29998 159.67 
v 342.4 3.29998 159.67 
v 342.4 3.29999 159.77 
v 342.4 3.29999 159.77 
v 342.4 3.29998 159.77 
v 342.4 3.29998 159.77 
v 342.4 3.29999 159.67 
v 342.4 3.29999 159.67 
v 342.4 3.29999 159.77 
v 342.4 3.29998 159.67 
v 342.4 3.09999 159.77 
v 342.4 2.9 159.77 
v 342.4 2.7 159.77 
v 342.4 3.09998 159.77 
v 342.4 3.29999 159.77 
v 342.4 3.09999 159.77 
v 342.4 3.29999 159.77 
v 342.4 2.69999 159.77 
v 342.4 2.9 159.77 
v 342.4 2.7 159.77 
v 342.4 2.7 159.77 
v 342.6 2.89999 159.77 
v 342.4 2.89999 159.77 
v 342.4 2.89999 159.77 
v 342.4 2.89999 159.77 
v 342.6 2.89999 159.77 
v 342.6 3.09998 159.77 
v 342.4 2.89999 159.77 
v 342.4 3.09998 159.77 
v 342.4 3.09998 159.67 
v 342.4 3.09998 159.77 
v 342.4 2.9 159.77 
v 342.4 2.9 159.77 
v 342.4 2.89999 159.77 
v 342.4 3.09998 159.77 
v 342.4 2.89999 159.77 
v 342.4 3.09998 159.67 
v 342.4 2.69999 159.77 
v 342.2 2.69999 159.77 
v 342.2 2.69999 159.67 
v 342.4 2.69999 159.77 
v 342.4 2.69999 159.77 
v 342.4 2.69999 159.67 
v 342.4 2.69999 159.77 
v 342.4 3.09999 159.77 
v 342.4 3.09999 159.77 
v 342.4 3.09998 159.77 
v 342.4 3.09999 159.77 
v 342.4 2.7 159.77 
v 342.4 2.7 159.77 
v 342.4 2.9 159.77 
v 342.4 2.7 159.77 
v 342.4 2.9 159.77 
v 342.4 3.09998 159.77 
v 342.6 3.09998 159.77 
v 342.6 3.09998 159.77 
v 342.4 3.09998 159.77 
v 342.4 3.09998 159.67 
v 342.4 2.89999 159.67 
v 342.6 2.89999 159.77 
v 342.4 3.09998 159.67 
v 342.4 3.09999 159.67 
v 342.4 2.89999 159.67 
v 342.4 2.89999 159.67 
v 342.4 2.89999 159.67 
v 342.4 2.89999 159.67 
v 342.4 2.89999 159.67 
v 342.4 2.89999 159.67 
v 342.4 3.09998 159.67 
v 342.4 3.09998 159.67 
v 342.4 2.89999 159.67 
v 342.4 2.69999 159.67 
v 342.4 2.69999 159.67 
v 342.4 2.89999 159.67 
v 342.4 3.29999 159.67 
v 342.6 2.89999 159.67 
v 342.4 2.89999 159.67 
v 342.6 2.89999 159.67 
v 342.4 2.89999 159.67 
v 342.4 2.89999 159.67 
v 342 2.69998 159.87 
v 342 4.69997 160.87 
v 342.3 4.59998 159.87 
v 342 3.49999 159.87 
v 342.4 3.29998 159.77 
v 343.6 2.89999 159.67 
v 344 3.49999 159.77 
v 342.4 3.09999 159.67 
v 342.4 2.89999 159.77 
v 342 2.69999 161.37 
v 342 2.99999 161.37 
v 341.9 2.99999 161.37 
v 341.9 2.99999 161.37 
v 341.9 2.99999 160.87 
v 341.9 2.69999 160.87 
v 341.9 2.69999 161.37 
v 341.9 2.69999 161.37 
v 342 2.69999 161.37 
v 341.9 2.69999 161.37 
v 342 2.69999 160.87 
v 342 2.69999 160.87 
v 342 2.99999 160.87 
v 342 4.59998 160.87 
v 342 2.99999 160.87 
v 342 2.69999 160.87 
v 341.9 2.69999 160.87 
v 341.9 2.99999 160.87 
v 341.9 2.99999 161.37 
v 341.9 4.29999 161.37 
v 341.9 2.99999 160.87 
v 341.9 2.69999 160.87 
v 341.9 2.69998 159.87 
v 342 2.69999 159.87 
v 341.9 2.69998 159.87 
v 341.9 4.69999 160.87 
v 341.9 4.69999 160.87 
v 341.9 2.69999 160.87 
v 342 4.59998 160.87 
v 342 2.69999 160.87 
v 341.9 4.69998 159.87 
v 341.9 4.29999 161.47 
v 341.9 4.69999 161.47 
v 341.9 4.69999 161.37 
v 341.9 4.69999 161.47 
v 341.9 4.29999 161.47 
v 343.35 4.29999 161.47 
v 342.3 4.59998 160.67 
v 342.3 4.59998 160.87 
v 343.6 4.59998 160.67 
v 342 4.59998 161.37 
v 342 4.59998 160.87 
v 343.6 4.59998 161.37 
v 342 4.69999 161.37 
v 343.6 4.69998 161.37 
v 342.3 4.69998 161.37 
v 343.6 4.69998 161.37 
v 343.6 4.69999 161.47 
v 341.9 4.69999 161.47 
v 342 4.69998 160.87 
v 341.9 4.69999 160.87 
v 342.3 4.69998 161.37 
v 342.3 4.69998 160.87 
v 342 4.59998 161.37 
v 342.3 4.59998 160.87 
v 342 4.59998 161.37 
v 342 4.29999 161.37 
v 343.6 4.29998 161.37 
v 342.3 4.69998 160.67 
v 343.6 4.69997 159.87 
v 342 4.69998 159.87 
v 342.3 4.59998 160.67 
v 343.6 4.59998 160.67 
v 342.3 4.59998 160.67 
v 342.3 4.69998 160.67 
v 343.6 4.59998 160.67 
v 342 4.69998 160.87 
v 342.3 4.69998 160.87 
v 342.3 4.69998 160.67 
v 343.6 4.69998 160.67 
v 341.9 4.69999 160.87 
v 341.9 2.99999 160.87 
v 341.9 4.69999 160.87 
v 342 4.69998 160.87 
v 341.9 4.69999 160.87 
v 342.3 4.59998 160.87 
v 342.3 4.69998 160.87 
v 342 4.69998 160.87 
v 342 4.59998 160.87 
v 342.3 4.59998 160.87 
v 342 4.59998 160.87 
v 343.6 4.59998 161.37 
v 342.3 4.69998 160.87 
v 342 2.99999 161.37 
v 342 4.59998 161.37 
v 342 4.29999 161.37 
v 342 4.59998 161.37 
v 344 4.59998 161.37 
v 341.9 4.29999 161.37 
v 342 4.29999 161.37 
v 341.9 4.29999 161.47 
v 341.9 4.29999 161.37 
v 343.35 4.29999 161.47 
v 342 4.29999 161.37 
v 341.9 4.29999 161.37 
v 342 2.99999 161.37 
v 341.9 2.99999 161.37 
v 342 2.99999 160.87 
v 341.9 4.69998 159.87 
v 342 4.69998 159.87 
v 341.9 2.69998 159.87 
v 341.9 4.69998 159.87 
v 343.6 4.69997 159.87 
v 342.3 4.59998 159.87 
v 342 2.69999 159.87 
v 343.6 4.59998 159.87 
v 342 4.59998 159.87 
v 342 4.59998 159.87 
v 342 2.69999 159.87 
v 342 4.69998 159.87 
v 342.2 4.29997 159.77 
v 342.2 4.29997 159.87 
v 342.6 4.29997 159.87 
v 342.2 4.29997 159.87 
v 342.2 4.29997 159.77 
v 342.2 3.89997 159.77 
v 342.6 3.89997 159.87 
v 342.2 3.89997 159.87 
v 342.2 3.89997 159.77 
v 342.2 3.89997 159.87 
v 342.6 3.89997 159.87 
v 342.2 4.29997 159.87 
v 342.2 3.89997 159.87 
v 342.2 3.89997 159.77 
v 342.2 4.29997 159.77 
v 342.6 4.29997 159.77 
v 342.6 3.89997 159.77 
v 342.2 3.29999 159.77 
v 342.2 3.29999 159.67 
v 342.2 2.69999 159.67 
v 342.2 3.29999 159.67 
v 342.2 3.29999 159.77 
v 342.4 3.29999 159.77 
v 342.4 3.29999 159.77 
v 342.2 3.29999 159.77 
v 342.2 2.69999 159.77 
v 342.2 2.69999 159.77 
v 342 3.49999 159.87 
v 342 2.69999 159.87 
v 344 2.69999 159.87 
v 342 2.69999 159.87 
v 342 3.49999 159.87 
v 342.4 3.09998 159.77 
v 344 2.69999 159.87 
v 342.35 3.29998 159.77 
v 342.2 2.69999 159.67 
v 342.2 3.29999 159.67 
v 342.4 2.69999 159.67 
v 343.6 4.69999 161.47 
v 343.6 4.59998 161.37 
v 344.1 2.69998 161.37 
v 344.1 2.69998 161.37 
v 344.1 2.69998 159.87 
v 344.1 4.29998 161.47 
v 344.1 4.69998 161.47 
v 343.6 4.69999 161.47 
v 344.1 4.69998 161.47 
v 344.1 4.29998 161.47 
v 344.1 4.69998 161.37 
v 343.6 4.69999 161.47 
v 344.1 4.69998 161.47 
v 344.1 4.69998 161.37 
v 343.6 4.69998 161.37 
v 343.6 4.29999 161.47 
v 344.1 4.29998 161.47 
v 343.6 4.29999 161.47 
v 343.6 4.29998 161.37 
v 343.6 4.29999 161.47 
v 343.6 4.29999 161.47 
v 343.6 4.29998 161.37 
v 344.1 4.69998 159.87 
v 344.1 4.69998 161.37 
v 344.1 2.69998 161.37 
v 344.1 4.69998 159.87 
v 344 4.69998 161.37 
v 344.1 4.69998 161.37 
v 344 4.69998 161.37 
v 344.1 4.29998 161.37 
v 344.1 4.29998 161.37 
v 344.1 4.69998 161.37 
v 344.1 4.29998 161.37 
v 343.6 4.59998 161.37 
v 344 4.59998 161.37 
v 343.6 4.69998 161.37 
v 343.6 4.29998 161.37 
v 344 4.59998 161.37 
v 344 4.69998 161.37 
v 344 4.69998 159.87 
v 342.3 4.59998 160.67 
v 343.6 4.59998 160.67 
v 343.6 4.69998 160.67 
v 343.6 4.69998 160.67 
v 343.6 4.69998 161.37 
v 344 4.69998 161.37 
v 344 4.59998 161.37 
v 344 4.59998 159.87 
v 343.6 4.59998 161.37 
v 343.6 4.69998 160.67 
v 342.6 3.89997 159.77 
v 342.6 3.89997 159.77 
v 342.6 4.29997 159.77 
v 342.6 4.29997 159.87 
v 342.6 4.29997 159.77 
v 342.6 4.29997 159.87 
v 342.6 3.89997 159.87 
v 344.1 2.69998 159.87 
v 344 4.59998 159.87 
v 344.1 4.69998 159.87 
v 344 4.59998 159.87 
v 344 2.69999 159.87 
v 343.8 4.29997 159.77 
v 343.8 3.89997 159.77 
v 343.4 3.89997 159.77 
v 343.8 3.89997 159.77 
v 343.8 4.29997 159.77 
v 343.8 4.29997 159.87 
v 343.8 4.29997 159.87 
v 343.8 4.29997 159.77 
v 343.4 4.29997 159.77 
v 343.8 3.89997 159.87 
v 343.8 4.29997 159.87 
v 343.4 4.29997 159.87 
v 343.8 3.89997 159.87 
v 343.8 3.89997 159.77 
v 343.8 3.89997 159.87 
v 343.4 3.89997 159.87 
v 344.1 2.69998 159.87 
v 343.4 4.29997 159.77 
v 343.4 4.29997 159.87 
v 343.4 4.29997 159.77 
v 343.4 3.89997 159.77 
v 343.4 4.29997 159.87 
v 343.4 3.89997 159.87 
v 343.4 3.89997 159.87 
v 343.4 3.89997 159.77 
v 343.6 3.09999 159.67 
v 343.6 3.09998 159.77 
v 343.6 2.89999 159.77 
v 343.6 3.09998 159.77 
v 343.4 3.09999 159.77 
v 343.6 2.89999 159.77 
v 343.6 3.09999 159.67 
v 343.4 3.09999 159.67 
v 343.8 2.69999 159.67 
v 343.8 2.69999 159.77 
v 343.8 2.69999 159.77 
v 343.8 2.69999 159.67 
v 343.8 3.29999 159.67 
v 343.8 2.69999 159.77 
v 343.8 3.29999 159.77 
v 343.6 3.29998 159.77 
v 343.8 3.29999 159.77 
v 344 2.69999 159.87 
v 343.6 3.29998 159.77 
v 343.8 3.29999 159.67 
v 343.6 3.29999 159.67 
v 343.8 3.29999 159.77 
v 343.6 3.29999 159.67 
v 343.8 3.29999 159.67 
v 343.8 2.69999 159.67 
v 343.6 3.09998 159.77 
v 343.6 3.29998 159.77 
v 343.6 3.09998 159.77 
v 343.6 2.89999 159.77 
v 343.6 2.89999 159.77 
v 343.6 3.09998 159.77 
v 343.6 2.89999 159.67 
v 343.6 2.69999 159.77 
v 343.6 2.89999 159.77 
v 343.4 3.09999 159.77 
v 343.4 2.89999 159.77 
v 342.4 2.69999 159.77 
v 342.4 2.69999 159.77 
v 342.4 2.69999 159.67 
v 343.6 3.09999 159.67 
v 343.6 2.69999 159.67 
v 343.6 3.29999 159.67 
v 343.6 2.69999 159.67 
v 343.6 2.69999 159.67 
v 343.4 2.89999 159.77 
v 343.4 2.89999 159.67 
v 342.4 3.29999 159.77 
v 343.4 3.09999 159.67 
v 343.6 3.09999 159.67 
v 342.4 3.29998 159.67 
v 343.4 2.89999 159.67 
v 343.6 2.89999 159.67 
v 342.6 2.89999 159.67 
v 342.6 3.09998 159.67 
v 342.6 3.09998 159.67 
v 342.6 2.89999 159.67 
v 342.4 3.09998 159.67 
v 342.4 3.29998 159.67 
v 342.4 3.09998 159.77 
v 342.4 2.69999 159.77 
v 342.4 2.9 159.77 
v 342.6 2.89999 159.77 
v 342.6 3.09999 159.77 
v 342.4 2.9 159.77 
v 342.4 3.09998 159.77 
v 342.4 3.09998 159.67 
v 342.4 3.09998 159.77 
v 342.4 3.09998 159.77 
v 342.4 2.9 159.77 
v 342.2 2.69999 159.77 
v 342.2 2.69999 159.67 
v 342.4 2.9 159.77 
v 342.6 3.09999 159.77 
v 342.6 2.89999 159.77 
v 342.4 2.89999 159.67 
v 342.4 2.89999 159.67 
v 342.4 2.69999 159.67 
v 342.4 3.29998 159.67 
v 342.4 2.89999 159.67 
v 342.4 2.89999 159.67 
v 342.3 4.69998 160.67 
v 342 3.49999 159.87 
v 341.937 2.99999 161.37 
v 341.962 2.99999 160.87 
v 341.978 2.69999 160.87 
v 341.987 2.69999 161.37 
v 341.987 2.69999 161.37 
v 341.978 2.69999 160.87 
v 344.04 2.69998 161.37 
v 342 4.59998 160.87 
v 341.962 2.99999 160.87 
v 341.937 2.99999 161.37 
v 341.936 4.29999 161.382 
v 341.983 2.69999 159.848 
v 341.976 4.67095 160.87 
v 341.976 4.67095 160.87 
v 341.978 2.69999 160.87 
v 342 4.59998 160.87 
v 341.993 4.66248 159.87 
v 341.962 4.67915 161.383 
v 341.936 4.29999 161.382 
v 342.3 4.59998 160.67 
v 342.3 4.69164 160.67 
v 342.3 4.59998 160.87 
v 341.962 4.67915 161.383 
v 342 4.59998 160.87 
v 343.6 4.65149 161.387 
v 341.962 4.67915 161.383 
v 342 4.59998 160.87 
v 341.976 4.67095 160.87 
v 342.3 4.65292 160.87 
v 341.962 4.67915 161.383 
v 343.6 4.65149 161.387 
v 341.962 4.67915 161.383 
v 342.3 4.59998 161.37 
v 342.3 4.65292 160.87 
v 341.962 4.67915 161.383 
v 342.3 4.65292 160.87 
v 341.936 4.29999 161.382 
v 343.6 4.29998 161.43 
v 342.3 4.64998 159.87 
v 342.3 4.69164 160.67 
v 343.6 4.61902 159.87 
v 341.993 4.66248 159.87 
v 342.3 4.69164 160.67 
v 341.976 4.67095 160.87 
v 342.3 4.65292 160.87 
v 342.3 4.69164 160.67 
v 343.6 4.65149 161.387 
v 341.976 4.67095 160.87 
v 341.976 4.67095 160.87 
v 341.962 4.67915 161.383 
v 341.976 4.67095 160.87 
v 343.6 4.65149 161.387 
v 341.937 2.99999 161.37 
v 341.936 4.29999 161.382 
v 341.962 4.67915 161.383 
v 341.937 2.99999 161.37 
v 344.04 4.66248 161.377 
v 341.983 2.69999 159.848 
v 342.3 4.64998 159.87 
v 343.6 4.61902 159.87 
v 341.993 4.66248 159.87 
v 342.2 3.89997 159.804 
v 342.6 3.89997 159.837 
v 342.2 4.29998 159.837 
v 342.2 3.89997 159.804 
v 342.2 4.29998 159.837 
v 342.6 4.29998 159.804 
v 342 3.49999 159.799 
v 341.983 2.69999 159.848 
v 344.014 2.69998 159.844 
v 342 3.49999 159.799 
v 342.4 3.09999 159.732 
v 342.36 3.29999 159.741 
v 341.983 2.69999 159.848 
v 343.6 4.65149 161.387 
v 344.014 2.69998 159.844 
v 344.04 2.69998 161.37 
v 344.1 4.29998 161.437 
v 343.6 4.65149 161.387 
v 343.6 4.29998 161.43 
v 343.6 4.29998 161.43 
v 344.014 4.64544 159.87 
v 344.04 4.66248 161.377 
v 344.04 2.69998 161.37 
v 344.04 4.66248 161.377 
v 344.1 4.29998 161.437 
v 343.6 4.65149 161.387 
v 344.04 4.66248 161.377 
v 343.6 4.29998 161.43 
v 342.3 4.69164 160.67 
v 341.987 2.69999 161.37 
v 341.936 4.29999 161.382 
v 343.6 4.29998 161.43 
v 342.6 3.89997 159.837 
v 342.6 4.29998 159.804 
v 344.014 2.69998 159.844 
v 344.014 4.64544 159.87 
v 344.014 4.64544 159.87 
v 344.014 2.69998 159.844 
v 343.8 4.29998 159.804 
v 343.8 3.89997 159.837 
v 343.4 3.89997 159.804 
v 343.8 3.89997 159.837 
v 343.8 4.29998 159.804 
v 343.4 4.29998 159.837 
v 343.4 4.29998 159.837 
v 343.4 3.89997 159.804 
v 343.6 2.89999 159.69 
v 343.6 3.09998 159.729 
v 343.4 3.09999 159.699 
v 343.6 3.09998 159.729 
v 343.6 2.89999 159.69 
v 343.4 3.09999 159.699 
v 344 3.49999 159.795 
v 344 3.49999 159.795 
v 343.6 3.09998 159.729 
v 343.64 3.29999 159.735 
v 343.64 3.29999 159.735 
v 343.6 3.09998 159.729 
v 343.625 2.77272 159.745 
v 343.4 3.09999 159.699 
v 343.625 2.77272 159.745 
v 343.625 2.77272 159.745 
v 343.6 2.89999 159.69 
v 343.4 2.89999 159.689 
v 343.4 2.89999 159.689 
v 342.382 2.8037 159.739 
v 343.625 2.77272 159.745 
v 343.6 3.09998 159.729 
v 343.64 3.29999 159.735 
v 343.4 2.89999 159.689 
v 343.4 2.89999 159.689 
v 343.4 3.09999 159.699 
v 343.64 3.29999 159.735 
v 343.6 3.09998 159.729 
v 342.36 3.29999 159.741 
v 343.4 2.89999 159.689 
v 343.6 2.89999 159.69 
v 343.625 2.77272 159.745 
v 342.6 2.89999 159.695 
v 342.6 3.09999 159.707 
v 342.6 3.09999 159.707 
v 342.6 2.89999 159.695 
v 342.4 3.09999 159.732 
v 342.382 2.8037 159.739 
v 342.4 3.09999 159.732 
v 342.36 3.29999 159.741 
v 342.382 2.8037 159.739 
v 342.4 3.09999 159.732 
v 342.382 2.8037 159.739 
v 342.6 2.89999 159.695 
v 342.6 3.09999 159.707 
v 342.4 3.09999 159.732 
v 342.6 3.09999 159.707 
v 342.6 2.89999 159.695 
v 342.4 3.09999 159.732 
v 342.382 2.8037 159.739 
v 342.36 3.29999 159.741 
v 342.382 2.8037 159.739 
v 342 4.59998 160.87 
v 341.962 2.99999 160.87 
v 341.976 4.67095 160.87 
v 342.3 4.69164 160.67 

vn 0 -1 0 
vn 0 -1 0 
vn 0 -1 0 
vn 0 0 1 
vn 0 0 1 
vn 0 0 1 
vn 1 0 0 
vn 1 0 0 
vn 1 0 0 
vn 0 0 1 
vn 0 0 1 
vn 0 0 1 
vn 0 -1 0 
vn 0 -1 0 
vn 0 -1 0 
vn 0 -1 0 
vn 1 0 0 
vn 0 0 1 
vn 0 0 1 
vn 0 0 1 
vn 0 -1 0 
vn 0 -1 0 
vn 0 0 1 
vn 0 0 1 
vn 0 0 1 
vn 0 -1 0 
vn -1 0 0 
vn -1 0 0 
vn -1 0 0 
vn 0 1 0 
vn 0 1 0 
vn 0 1 0 
vn 0 0 1 
vn 0 0 1 
vn 0 0 1 
vn 0 1 0 
vn 0 0 1 
vn -1 0 0 
vn -1 0 0 
vn -1 0 0 
vn -1 0 0 
vn 0 -1 0 
vn -1 0 0 
vn 0 -1 0 
vn 0 1 0 
vn 0 1 0 
vn -1 0 0 
vn -1 0 0 
vn -1 0 0 
vn -1 0 0 
vn -1 0 0 
vn -1 0 0 
vn 0 -1 0 
vn 0 -1 0 
vn 0 -1 0 
vn -1 0 0 
vn -1 0 0 
vn 0 -1 0 
vn 0 -1 0 
vn -1 0 0 
vn -1 0 0 
vn 0 0 -1 
vn 0 0 -1 
vn 0 0 -1 
vn -1 0 0 
vn -1 0 0 
vn 0 0 -1 
vn 0 -1 0 
vn 0 -1 0 
vn 0 -1 0 
vn 0 -1 0 
vn -1 0 0 
vn -1 0 0 
vn -1 0 0 
vn 0 0 1 
vn 0 0 1 
vn 0 0 1 
vn 0 0 1 
vn 0 -1 0 
vn 0 -1 0 
vn -1 0 0 
vn -1 0 0 
vn -1 0 0 
vn -1 0 0 
vn 0 0 1 
vn 0 0 1 
vn 0 0 1 
vn 1 0 0 
vn 1 0 0 
vn 0 1 0 
vn 0 1 0 
vn 0 1 0 
vn 0 1 0 
vn 0 1 0 
vn 0 1 0 
vn 0 1 0 
vn 0 1 0 
vn 0 1 0 
vn 1 0 0 
vn 1 0 0 
vn 1 0 0 
vn 0 0 -1 
vn 0 0 -1 
vn 0 0 -1 
vn 0 1 0 
vn 0 0 1 
vn 0 0 1 
vn 0 0 1 
vn 0 0 -1 
vn 0 0 -1 
vn 0 0 -1 
vn 0 1 0 
vn 0 1 0 
vn 0 1 0 
vn 1 0 0 
vn 1 0 0 
vn 1 0 0 
vn 0 1 0 
vn 0 0 1 
vn 0 0 1 
vn 0 0 1 
vn 0 1 0 
vn 0 1 0 
vn 0 1 0 
vn 0 1 0 
vn -1 0 0 
vn -1 0 0 
vn -1 0 0 
vn 0 1 0 
vn 0 1 0 
vn 0 1 0 
vn 1 0 0 
vn 0 0 1 
vn 1 0 0 
vn -1 0 0 
vn 0 1 0 
vn 0 1 0 
vn 0 1 0 
vn 0 1 0 
vn 0 0 -1 
vn 0 0 -1 
vn 0 1 0 
vn 0 1 0 
vn 0 0 -1 
vn 1 0 0 
vn 0 0 -1 
vn 0 0 -1 
vn 0 0 -1 
vn 0 -1 0 
vn 0 -1 0 
vn 0 -1 0 
vn 0 0 -1 
vn 0 0 -1 
vn 0 0 -1 
vn 0 0 -1 
vn 0 1 0 
vn 0 1 0 
vn 0 1 0 
vn 1 0 0 
vn 1 0 0 
vn 1 0 0 
vn 0 1 0 
vn 0 1 0 
vn 1 0 0 
vn 0 -1 0 
vn 0 -1 0 
vn 0 -1 0 
vn 1 0 0 
vn 0 0 1 
vn 0 0 -1 
vn 0 0 -1 
vn 0 0 -1 
vn 0 0 1 
vn 0 0 1 
vn 0 0 -1 
vn 1 0 0 
vn 1 0 0 
vn 1 0 0 
vn 0 1 0 
vn 0 1 0 
vn 0 1 0 
vn 0 1 0 
vn -1 0 0 
vn -1 0 0 
vn -1 0 0 
vn 0 0 -1 
vn 0 1 0 
vn 0 1 0 
vn 0 1 0 
vn 0 1 0 
vn 0 1 0 
vn 0 1 0 
vn 0 0 -1 
vn -1 0 0 
vn 0 0 -1 
vn 0 0 -1 
vn 0 0 -1 
vn 0 1 0 
vn 0 0 -1 
vn 0 0 -1 
vn 0 0 -1 
vn 0 1 0 
vn 0 1 0 
vn 0 1 0 
vn 1 0 0 
vn 0 0 1 
vn 0 0 1 
vn 0 0 -1 
vn 0 0 -1 
vn 0 0 1 
vn 0 0 1 
vn 0 -1 0 
vn -1 0 0 
vn -1 0 0 
vn -1 0 0 
vn -1 0 0 
vn 0 0 1 
vn 0 0 -1 
vn 0 0 -1 
vn -1 0 0 
vn -1 0 0 
vn -1 0 0 
vn 0 -1 0 
vn 0 -1 0 
vn 0 -1 0 
vn -1 0 0 
vn 0 0 -1 
vn 1 0 0 
vn 0 -1 0 
vn 0 0 -1 
vn 0 -1 0 
vn -1 0 0 
vn 1 0 0 
vn 0 0 1 
vn -1 0 0 
vn 1 0 0 
vn 0 0 1 
vn 0 0 1 
vn -1 0 0 
vn 0 -1 0 
vn 0 -1 0 
vn 0 -1 0 
vn 0 -1 0 
vn 1 0 0 
vn 0 -1 0 
vn 0 -1 0 
vn 0 -1 0 
vn 0 0 1 
vn 0 0 1 
vn 0 0 -1 
vn -1 0 0 
vn 1 0 0 
vn 0 0 -1 
vn -1 0 0 
vn 0 1 0 
vn 0 0 -1 
vn 0 0 -1 
vn 0 0 -1 
vn 0 1 0 
vn 0 1 0 
vn 0 0 -1 
vn 0 0 -1 
vn 0 0 -1 
vn 0 0 -1 
vn 0 0 -1 
vn 0 0 -1 
vn -1 0 0 
vn -1 0 0 
vn -1 0 0 
vn 0 0 -1 
vn 0 0 -1 
vn 0 0 -1 
vn 0 0 -1 
vn 1 0 0 
vn 1 0 0 
vn 1 0 0 
vn 0 0 -1 
vn 0 0 -1 
vn 0 -1 0 
vn 0 -1 0 
vn 0 -1 0 
vn -1 0 0 
vn -1 0 0 
vn 1 0 0 
vn 0 -1 0 
vn 0 0 -1 
vn 0 0 -1 
vn -1 0 0 
vn 0 1 0 
vn 0 1 0 
vn 0 1 0 
vn -1 0 0 
vn -1 0 0 
vn -1 0 0 
vn 0 -1 0 
vn 0 -1 0 
vn 0 -1 0 
vn 0 0 1 
vn 0 0 1 
vn 0 0 1 
vn -1 0 0 
vn 0 0 -1 
vn 0 0 -1 
vn 0 0 -1 
vn 0 0 -1 
vn 0 -1 0 
vn -1 0 0 
vn -1 0 0 
vn -1 0 0 
vn 0 1 0 
vn 0 1 0 
vn 0 1 0 
vn 0 0 1 
vn 0 0 1 
vn 0 0 1 
vn -1 0 0 
vn 0 0 1 
vn 0 0 1 
vn 0 0 1 
vn -1 0 0 
vn -1 0 0 
vn -1 0 0 
vn 0 -1 0 
vn 0 0 -1 
vn 0 0 -1 
vn 0 0 -1 
vn 0 0 -1 
vn -1 0 0 
vn 0 -1 0 
vn 0 -1 0 
vn 0 -1 0 
vn 0 0 -1 
vn 0 0 -1 
vn 0 0 -1 
vn 0 0 -1 
vn 0 -1 0 
vn 0 0 1 
vn 0 0 -1 
vn 0 -1 0 
vn 0 -1 0 
vn 0 -1 0 
vn 1 0 0 
vn 1 0 0 
vn 1 0 0 
vn 0 -1 0 
vn 1 0 0 
vn 1 0 0 
vn 0 0 1 
vn 0 -1 0 
vn 0 0 1 
vn 0 0 1 
vn 0 0 1 
vn 0 0 1 
vn 0 0 1 
vn 1 0 0 
vn 1 0 0 
vn 1 0 0 
vn 0 1 0 
vn 0 1 0 
vn 0 1 0 
vn 0 1 0 
vn 1 0 0 
vn 1 0 0 
vn 1 0 0 
vn 1 0 0 
vn 0 0 1 
vn 0 0 1 
vn 0 0 1 
vn 0 0 1 
vn 0 -1 0 
vn 0 -1 0 
vn 0 -1 0 
vn 1 0 0 
vn 1 0 0 
vn 0 -1 0 
vn 0 -1 0 
vn 0 -1 0 
vn 0 -1 0 
vn 1 0 0 
vn 1 0 0 
vn 1 0 0 
vn 0 1 0 
vn 0 1 0 
vn 0 1 0 
vn 0 0 1 
vn 0 0 1 
vn 0 -1 0 
vn 1 0 0 
vn 0 0 -1 
vn 0 0 -1 
vn 0 0 -1 
vn 0 0 1 
vn 0 0 1 
vn 0 0 1 
vn 0 1 0 
vn 0 1 0 
vn 0 1 0 
vn 0 1 0 
vn -1 0 0 
vn -1 0 0 
vn -1 0 0 
vn 0 -1 0 
vn 0 -1 0 
vn 0 0 -1 
vn 0 0 -1 
vn -1 0 0 
vn 0 0 -1 
vn 0 -1 0 
vn -1 0 0 
vn -1 0 0 
vn -1 0 0 
vn 1 0 0 
vn 1 0 0 
vn 1 0 0 
vn 0 0 1 
vn 0 0 1 
vn -1 0 0 
vn -1 0 0 
vn -1 0 0 
vn 1 0 0 
vn 0 1 0 
vn 0 1 0 
vn 0 1 0 
vn 0 0 -1 
vn 0 0 -1 
vn 0 0 -1 
vn 0 1 0 
vn 1 0 0 
vn 0 0 1 
vn 0 0 1 
vn 1 0 0 
vn 1 0 0 
vn 1 0 0 
vn 1 0 0 
vn 0 -1 0 
vn 0 0 1 
vn -1 0 0 
vn -1 0 0 
vn -1 0 0 
vn -1 0 0 
vn 0 1 0 
vn -1 0 0 
vn -1 0 0 
vn 0 0 -1 
vn 1 0 0 
vn 1 0 0 
vn 1 0 0 
vn 0 1 0 
vn 0 0 1 
vn 1 0 0 
vn 1 0 0 
vn -1 0 0 
vn 0 1 0 
vn 0 1 0 
vn 0 0 -1 
vn 0 0 -1 
vn 0 0 -1 
vn 0 1 0 
vn 1 0 0 
vn 1 0 0 
vn -1 0 0 
vn 0 1 0 
vn 0 1 0 
vn 0 0 -1 
vn -1 0 0 
vn -1 0 0 
vn 0 0 -1 
vn 0 0 -1 
vn 0 0 -1 
vn 0 0 -1 
vn 0 0 -1 
vn 0 0 -1 
vn 0 0 -1 
vn 1 0 0 
vn 1 0 0 
vn 1 0 0 
vn 0 0 -1 
vn 0 -1 0 
vn 0 -1 0 
vn 0 -1 0 
vn 0 0 -1 
vn 1 0 0 
vn 0 -1 0 
vn 0 0 -1 
vn 0 -1 0 
vn 0 -1 0 
vn 0 -1 0 
vn 0 0 -1 
vn 1 0 0 
vn 0 -1 0 
vn 0 -1 0 
vn 0 -1 0 
vn 0 0 -1 
vn 0 -1 0 
vn 0 0 -1 
vn 0 0 -1 
vn 0 0 -1 
vn 1 0 0 
vn 1 0 0 
vn 1 0 0 
vn 0 1 0 
vn 0 1 0 
vn 0 1 0 
vn 0 0 1 
vn 0 0 1 
vn 0 0 1 
vn 1 0 0 
vn 0 -1 0 
vn 0 -1 0 
vn 0 -1 0 
vn 0 0 -1 
vn 0 0 -1 
vn -1 0 0 
vn -1 0 0 
vn -1 0 0 
vn 0 1 0 
vn 0 0 1 
vn -1 0 0 
vn 0 -1 0 
vn 1 0 0 
vn 1 0 0 
vn 1 0 0 
vn 1 0 0 
vn 0 -1 0 
vn 0 -1 0 
vn 0 -1 0 
vn 0 0 1 
vn 0 0 1 
vn 0 0 1 
vn 1 0 0 
vn 0 1 0 
vn 0 1 0 
vn 0 1 0 
vn 1 0 0 
vn 0 0 -1 
vn 0 0 -1 
vn 0 0 -1 
vn 1 0 0 
vn 0 0 -1 
vn 0 0 -1 
vn 0 0 -1 
vn 0 0 -1 
vn 0 0 -1 
vn 0 0 -1 
vn 1 0 0 
vn 0 1 0 
vn 0 1 0 
vn 0 1 0 
vn 0 -1 0 
vn 0 -1 0 
vn 0 -1 0 
vn 1 0 0 
vn 1 0 0 
vn 1 0 0 
vn 0 0 1 
vn 0 0 1 
vn 0 0 1 
vn 1 0 0 
vn 0 -1 0 
vn 1 0 0 
vn 1 0 0 
vn 1 0 0 
vn 0 0 -1 
vn 0 0 -1 
vn 1 0 0 
vn 0 -1 0 
vn 0 -1 0 
vn 0 -1 0 
vn 0 0 1 
vn 0 1 0 
vn 0 1 0 
vn 0 1 0 
vn 0 1 0 
vn 0 0 -1 
vn 0 0 -1 
vn 0 0 -1 
vn 0 0 -1 
vn 0 0 -1 
vn 0 0 -1 
vn 0 0 -1 
vn 0 0 1 
vn 0 0 1 
vn 0 0 1 
vn 0 0 1 
vn 1 0 0 
vn 1 0 0 
vn 1 0 0 
vn 0 0 1 
vn 0 0 1 
vn 0 0 1 
vn 1 0 0 
vn 1 0 0 
vn 1 0 0 
vn 0 0 1 
vn -1 0 0 
vn -1 0 0 
vn -1 0 0 
vn 0 1 0 
vn 0 1 0 
vn 0 0 1 
vn 0 -1 0 
vn 0 -1 0 
vn 0 -1 0 
vn -1 0 0 
vn -1 0 0 
vn -1 0 0 
vn 0 -1 0 
vn 0 -1 0 
vn 0 -1 0 
vn 1 0 0 
vn 0 1 0 
vn 0 1 0 
vn 0 1 0 
vn 0 0 -1 
vn 0 0 -1 
vn 1 0 0 
vn 0 1 0 
vn 0 0 -1 
vn 0 -1 0 
vn 0 1 0 
vn 0 0 -1 
vn 0 0 -1 
vn 0 -1 0 
vn 0 -1 0 
vn -1 0 0 
vn -1 0 0 
vn -1 0 0 
vn 0 -1 0 
vn -1 0 0 
vn -1 0 0 
vn 0 -1 0 
vn -1 0 0 
vn 0 0 -1 
vn 0 0 -1 
vn 0 0 -1 
vn 0 1 0 
vn 0 0 1 
vn 0 0 -1 
vn 0 0 -1 
vn 0 1 0 
vn 0 1 0 
vn 0 1 0 
vn 0 0 -1 
vn 0 0 -1 
vn 0 0 -1 
vn -1 0 0 
vn -1 0 0 
vn -1 0 0 
vn 0 -1 0 
vn 0 -1 0 
vn 0 -1 0 
vn -1 0 0 
vn 0 0 -1 
vn 0 -1 0 
vn 0 0 -1 
vn 0 0 -1 
vn 0 0 -1 
vn -1 0 0 
vn -1 0 0 
vn 0 0 -1 
vn 0 0 -1 
vn 1 0 0 
vn 1 0 0 
vn 1 0 0 
vn 1 0 0 
vn 0 0 -1 
vn 1 0 0 
vn 0 0 -1 
vn 0 0 -1 
vn 0 0 -1 
vn 1 0 0 
vn 0 1 0 
vn 0 1 0 
vn 0 1 0 
vn 0 0 -1 
vn 0 0 -1 
vn 0 1 0 
vn 0 1 0 
vn 0 1 0 
vn 0 0 -1 
vn 0 1 0 
vn 0 1 0 
vn 0 0 1 
vn 0 1 0 
vn 1 0 0 
vn 1 0 0 
vn 1 0 0 
vn 0 0 1 
vn 0 0 1 
vn 0 0 1 
vn 0 0 1 
vn -1 0 0 
vn -1 0 0 
vn -1 0 0 
vn 0 0 1 
vn -1 0 0 
vn -1 0 0 
vn -1 0 0 
vn 0 1 0 
vn 0 1 0 
vn 0 1 0 
vn 0 0 1 
vn 0 0 1 
vn 0 0 1 
vn -1 0 0 
vn -1 0 0 
vn -1 0 0 
vn 0 0 1 
vn 0 1 0 
vn 0 1 0 
vn 0 0 1 
vn 1 0 0 
vn 1 0 0 
vn 1 0 0 
vn 0 -1 0 
vn 0 -1 0 
vn 0 -1 0 
vn 1 0 0 
vn 1 0 0 
vn 1 0 0 
vn 0 0 1 
vn 0 -1 0 
vn 0 -1 0 
vn 0 -1 0 
vn -1 0 0 
vn 0 -1 0 
vn 0 -1 0 
vn 0 0 -1 
vn 0 0 -1 
vn -1 0 0 
vn 0 0 -1 
vn 0 0 -1 
vn 0 -1 0 
vn 0 -1 0 
vn 0 -1 0 
vn 0 1 0 
vn 0 0 -1 
vn 0 -1 0 
vn -1 0 0 
vn -1 0 0 
vn -1 0 0 
vn -1 0 0 
vn 0 1 0 
vn 0 0 -1 
vn 0 0 -1 
vn 0 0 -1 
vn 0 0 -1 
vn 1 0 0 
vn 1 0 0 
vn 0 -1 0 
vn 0 0 -1 
vn 0 0 -1 
vn 0 -1 0 
vn 0 -1 0 
vn 0 -1 0 
vn 0 0 -1 
vn 0 -1 0 
vn 0 0 -1 
vn 0 1 0 
vn 0 -1 0 
vn 0 1 0 
vn 1 0 0 
vn 1 0 0 
vn 1 0 0 
vn -1 0 0 
vn 0 0 -1 
vn 0 0 1 
vn 0 0 1 
vn 0 0 1 
vn -1 0 0 
vn -1 0 0 
vn -1 0 0 
vn 0 0 1 
vn -1 0 0 
vn 0 -1 0 
vn 0 -1 0 
vn 0 -1 0 
vn -1 0 0 
vn -1 0 0 
vn -1 0 0 
vn 0 0 -1 
vn 0 0 -1 
vn 0 0 -1 
vn -1 0 0 
vn -1 0 0 
vn -1 0 0 
vn 0 0 -1 
vn 0 -1 0 
vn 0 -1 0 
vn 0 -1 0 
vn -1 0 0 
vn -1 0 0 
vn 0 0 1 
vn 0 0 1 
vn 0 0 1 
vn 0 0 1 
vn -1 0 0 
vn -1 0 0 
vn -1 0 0 
vn -1 0 0 
vn 0 0 1 
vn 0 0 1 
vn 0 0 1 
vn 0 1 0 
vn 0 1 0 
vn 0 1 0 
vn 0 1 0 
vn 0 1 0 
vn 0 1 0 
vn 0 0 -1 
vn 0 0 -1 
vn 0 0 -1 
vn 0 1 0 
vn 0 1 0 
vn 0 1 0 
vn 0 1 0 
vn 0 1 0 
vn 0 1 0 
vn 0 1 0 
vn 0 -1 0 
vn 0 -1 0 
vn 0 0 -1 
vn 0 0 -1 
vn 0 0 -1 
vn 0 1 0 
vn 0 1 0 
vn 0 1 0 
vn 0 -1 0 
vn 0 -1 0 
vn 0 0 -1 
vn 0 0 -1 
vn 0 0 -1 
vn 0 1 0 
vn 0 1 0 
vn 0 1 0 
vn 0 1 0 
vn 0 1 0 
vn 0 0 -1 
vn 0 0 -1 
vn 0 0 -1 
vn -1 0 0 
vn 0 0 1 
vn 0 0 1 
vn 0 0 1 
vn 0 -1 0 
vn 0 0 -1 
vn 0 0 -1 
vn 0 -1 0 
vn 0 0 -1 
vn 1 0 0 
vn 1 0 0 
vn 1 0 0 
vn 0 0 1 
vn 0 0 1 
vn -1 0 0 
vn 0 -1 0 
vn 0 -1 0 
vn 0 -1 0 
vn 0 -1 0 
vn 0 0 1 
vn 0 0 1 
vn 0 0 1 
vn 0 0 1 
vn 0 0 -1 
vn 0 0 -1 
vn 0 0 -1 
vn 0 0 -1 
vn 0 1 0 
vn 0 0 -1 
vn 0 0 -1 
vn 0 0 -1 
vn 0 0 -1 
vn 0 0 -1 
vn 1 0 0 
vn 1 0 0 
vn 1 0 0 
vn 0 1 0 
vn 0 1 0 
vn 0 1 0 
vn -1 0 0 
vn -1 0 0 
vn -1 0 0 
vn 0 -1 0 
vn 0 -1 0 
vn 0 -1 0 
vn 0 0 1 
vn 0 0 1 
vn 0 0 1 
vn -1 0 0 
vn 0 0 -1 
vn 0 0 -1 
vn 0 0 -1 
vn 0 -1 0 
vn -1 0 0 
vn -1 0 0 
vn -1 0 0 
vn 0 1 0 
vn 0 1 0 
vn 0 1 0 
vn 0 0 1 
vn 0 0 1 
vn 0 0 1 
vn -1 0 0 
vn 0 0 1 
vn 0 0 1 
vn 0 0 1 
vn -1 0 0 
vn -1 0 0 
vn 0 0 -1 
vn 0 -1 0 
vn 0 0 -1 
vn 0 0 -1 
vn 0 0 -1 
vn 0 0 -1 
vn 0 0 1 
vn 0 0 -1 
vn 0 -1 0 
vn 0 0 1 
vn 0 -1 0 
vn 0 0 1 
vn 0 0 1 
vn 0 0 1 
vn 1 0 0 
vn 1 0 0 
vn 1 0 0 
vn 0 1 0 
vn 0 1 0 
vn 0 1 0 
vn 0 1 0 
vn 0 0 1 
vn 0 -1 0 
vn 0 -1 0 
vn 0 -1 0 
vn 0 0 1 
vn 0 -1 0 
vn 0 -1 0 
vn 1 0 0 
vn 1 0 0 
vn 1 0 0 
vn 0 1 0 
vn 0 1 0 
vn 0 0 1 
vn 0 0 1 
vn 0 -1 0 
vn 1 0 0 
vn 0 0 -1 
vn 0 0 -1 
vn 0 0 -1 
vn 0 1 0 
vn 0 0 -1 
vn 0 0 -1 
vn -1 0 0 
vn -1 0 0 
vn -1 0 0 
vn 0 0 1 
vn 0 0 1 
vn 0 0 1 
vn 0 1 0 
vn 0 0 1 
vn 1 0 0 
vn 1 0 0 
vn 1 0 0 
vn 0 0 1 
vn 0 0 -1 
vn 0 0 -1 
vn 1 0 0 
vn 1 0 0 
vn 1 0 0 
vn 0 1 0 
vn 0 0 1 
vn 1 0 0 
vn 1 0 0 
vn -1 0 0 
vn 0 0 -1 
vn 0 0 -1 
vn 0 0 -1 
vn 0 0 -1 
vn 0 0 -1 
vn 0 0 -1 
vn 1 0 0 
vn 1 0 0 
vn 1 0 0 
vn 0 1 0 
vn 0 1 0 
vn 0 1 0 
vn 0 0 1 
vn 0 0 1 
vn 0 0 1 
vn 1 0 0 
vn 0 -1 0 
vn 0 -1 0 
vn 0 -1 0 
vn 0 0 -1 
vn 0 0 -1 
vn -1 0 0 
vn -1 0 0 
vn -1 0 0 
vn 0 1 0 
vn 0 0 1 
vn -1 0 0 
vn 0 -1 0 
vn 1 0 0 
vn 1 0 0 
vn 0 0 1 
vn 0 0 1 
vn 0 0 1 
vn 1 0 0 
vn 0 0 -1 
vn 0 0 -1 
vn 0 -1 0 
vn 0 -1 0 
vn 1 0 0 
vn 1 0 0 
vn 1 0 0 
vn 0 0 1 
vn 0 0 1 
vn 0 0 1 
vn 1 0 0 
vn 1 0 0 
vn 0 1 0 
vn 0 1 0 
vn 0 1 0 
vn 0 1 0 
vn 0 0 -1 
vn 0 0 -1 
vn 0 0 -1 
vn 0 0 -1 
vn 0 0 -1 
vn 0 0 1 
vn 0 0 1 
vn -1 0 0 
vn -1 0 0 
vn -1 0 0 
vn 0 0 -1 
vn 0 0 -1 
vn 0 0 -1 
vn 0 0 -1 
vn 0 0 -1 
vn 0 -1 0 
vn 0 -1 0 
vn -1 0 0 
vn -1 0 0 
vn -1 0 0 
vn 0 -1 0 
vn 0 0 -1 
vn 0 0 1 
vn 0 0 -1 
vn 0 0 -1 
vn 0 0 -1 
vn 0 0 -1 
vn 0 0 -1 
vn 0 0 -1 
vn 0 0 -1 
vn 0 0 -1 
vn 0 0 -1 
vn 0 0 -1 
vn 0 0 -1 
vn 0 0 -1 
vn 0 1 0 
vn 0 0 1 
vn 0 0 1 
vn 0 0 1 
vn 0 0 1 
vn 0 0 1 
vn -1 0 0 
vn -1 0 0 
vn -1 0 0 
vn 0 0 1 
vn 1 0 0 
vn 1 0 0 
vn 0 -1 0 
vn 0 -1 0 
vn 0 0 -1 
vn 0 0 -1 
vn 0 0 -1 
vn -1 0 0 
vn 1 0 0 
vn 1 0 0 
vn 1 0 0 
vn 0 0 -1 
vn 0 0 -1 
vn 0 0 1 
vn 0 1 0 
vn -1 0 0 
vn -1 0 0 
vn -1 0 0 
vn -1 0 0 
vn 0 -1 0 
vn 0 -1 0 
vn 0 -1 0 
vn -1 0 0 
vn -1 0 0 
vn -1 0 0 
vn -1 0 0 
vn -1 0 0 
vn -1 0 0 
vn 0 0 1 
vn 0 0 1 
vn 0 0 1 
vn -1 0 0 
vn 0 0 1 
vn 0 0 1 
vn 1 0 0 
vn 1 0 0 
vn 0 1 0 
vn 0 1 0 
vn 0 1 0 
vn 0 1 0 
vn 1 0 0 
vn 1 0 0 
vn 1 0 0 
vn 0 0 1 
vn 0 0 -1 
vn 0 0 -1 
vn 0 1 0 
vn 0 1 0 
vn 0 1 0 
vn 0 -1 0 
vn 0 -1 0 
vn 0 0 -1 
vn 0 0 -1 
vn 0 1 0 
vn 0 1 0 
vn 0 1 0 
vn 0 1 0 
vn 0 -1 0 
vn 0 1 0 
vn 0 1 0 
vn 0 1 0 
vn 0 1 0 
vn 0 1 0 
vn -1 0 0 
vn -1 0 0 
vn 0 -1 0 
vn 0 -1 0 
vn 1 0 0 
vn 1 0 0 
vn 0 0 1 
vn 0 0 1 
vn 0 0 1 
vn 0 0 -1 
vn 0 0 -1 
vn 0 0 -1 
vn 0 0 -1 
vn 0 0 1 
vn 0 0 1 
vn 0 0 1 
vn 0 0 -1 
vn 0 0 -1 
vn 0 0 -1 
vn 0 0 1 
vn 0 0 1 
vn 0 0 1 
vn 0 0 -1 
vn 0 0 -1 
vn 0 0 -1 
vn 0 -1 0 
vn 0 0 1 
vn 0 -1 0 
vn 0 0 1 
vn 0 0 1 
vn 0 0 1 
vn 0 0 1 
vn 0 0 1 
vn 1 0 0 
vn 1 0 0 
vn 1 0 0 
vn 0 0 -1 
vn 0 0 -1 
vn 0 0 -1 
vn 0 1 0 
vn 0 0 -1 
vn 0 0 -1 
vn 0 0 1 
vn 0 -1 0 
vn 0 -1 0 
vn 0 0 -1 
vn 0 0 1 
vn 1 0 0 
vn 0 1 0 
vn 0 0 -1 
vn 0 0 -1 
vn 0 0 -1 
vn 0 0 -1 
vn 0 0 -1 
vn 0 0 1 
vn 0 0 1 
vn 0 0 1 
vn 0 0 -1 
vn 0 0 1 
vn 0 0 1 
vn 0 0 1 
vn 0 0 1 
vn 0 0 -1 
vn 0 0 -1 
vn 0 0 -1 
vn 0 0 1 
vn 0 0 -1 
vn 0 0 -1 
vn 0 0 -1 
vn 0 0 1 
vn 0 0 1 
vn 0 0 1 
vn 0 0 -1 
vn 0 0 -1 
vn 0 1 0 
vn 0 1 0 
vn 0 1 0 
vn 0 0 -1 
vn 0 0 -1 
vn -1 0 0 
vn -1 0 0 
vn -1 0 0 
vn 0 0 1 
vn 0 0 -1 
vn 0 0 -1 
vn 0 0 -1 
vn 0 0 -1 
vn 0 0 -1 
vn 0 0 -1 
vn 0 0 -1 
vn 0 0 -1 
vn 0 0 -1 
vn 0 0 -1 
vn 0 0 -1 
vn 0 0 -1 
vn 0 0 -1 
vn 0 0 -1 
vn 0 0 -1 
vn 0 0 1 
vn 0 0 1 
vn 0 0 1 
vn 0 0 1 
vn 0 0 1 
vn 0 0 1 
vn 0 0 1 
vn 0 0 -1 
vn 0 0 -1 
vn 1 0 0 
vn 1 0 0 
vn 1 0 0 
vn 0 0 -1 
vn 0 0 -1 
vn 0 0 -1 
vn 0 0 -1 
vn 0 0 1 

vt 41.3594 233.092 
vt 41.3594 233.092 
vt 41.3594 233.092 
vt 41.3594 -103.95 
vt 41.3594 -103.95 
vt 41.3594 -103.988 
vt -240.092 -103.988 
vt -240.092 -103.95 
vt -240.092 -103.95 
vt 41.3594 -103.988 
vt 41.3594 -103.988 
vt 41.6094 -103.988 
vt 41.3594 233.092 
vt 41.3594 233.092 
vt 41.3469 233.092 
vt 41.3594 233.092 
vt -240.092 -103.988 
vt 41.3594 -103.988 
vt 41.3594 -103.95 
vt 41.3469 -103.95 
vt 41.3594 233.092 
vt 41.3594 233.092 
vt 41.3594 -103.95 
vt 41.3594 -103.95 
vt 41.3469 -103.95 
vt 41.3469 233.092 
vt 328.092 -103.95 
vt 328.029 -103.95 
vt 328.029 -103.988 
vt 46.6531 233.029 
vt 46.6531 233.092 
vt 46.6531 233.029 
vt 41.3469 -103.95 
vt 41.3469 -103.95 
vt 41.3469 -103.988 
vt 46.6531 233.092 
vt 41.3469 -103.95 
vt 328.092 -103.95 
vt 328.092 -103.95 
vt 328.092 -103.95 
vt 328.092 -103.988 
vt 41.3469 233.092 
vt 328.092 -103.95 
vt 41.3594 233.029 
vt 46.6406 233.029 
vt 46.6406 233.029 
vt 328.029 -103.95 
vt 328.029 -103.95 
vt 328.029 -103.75 
vt 328.092 -103.988 
vt 328.029 -103.988 
vt 328.092 -103.988 
vt 41.3594 233.092 
vt 41.3594 233.029 
vt 41.6094 233.092 
vt 328.029 -103.988 
vt 328.029 -103.988 
vt 41.3594 232.904 
vt 41.3594 232.904 
vt 327.904 -103.988 
vt 327.904 -103.988 
vt 46.6406 -103.95 
vt 46.6406 -103.988 
vt 46.6531 -103.988 
vt 328.029 -103.95 
vt 328.092 -103.788 
vt 46.6531 -103.95 
vt 41.3469 233.029 
vt 41.3469 233.029 
vt 41.3469 232.904 
vt 41.3594 232.904 
vt 327.904 -103.988 
vt 328.029 -103.988 
vt 328.029 -103.738 
vt 41.3469 -103.738 
vt 41.3469 -103.988 
vt 41.3594 -103.75 
vt 41.3594 -103.988 
vt 41.3594 233.029 
vt 41.3594 232.904 
vt 327.904 -103.738 
vt 328.104 -103.788 
vt 328.104 -103.738 
vt 328.092 -103.738 
vt 41.3469 -103.738 
vt 41.3469 -103.788 
vt 41.5281 -103.788 
vt -240.029 -103.75 
vt -240.004 -103.75 
vt 46.6031 233.004 
vt 46.6031 233.029 
vt 46.4406 233.004 
vt 46.6406 233.092 
vt 46.6406 233.029 
vt 46.4406 233.092 
vt 46.6406 233.029 
vt 46.6406 233.029 
vt 46.6406 233.029 
vt -240.092 -103.75 
vt -240.029 -103.75 
vt -240.029 -103.75 
vt 46.6406 -103.75 
vt 46.6406 -103.75 
vt 46.6406 -103.75 
vt 46.6406 233.029 
vt 41.3594 -103.75 
vt 41.3969 -103.75 
vt 41.3969 -103.75 
vt 46.6406 -103.738 
vt 46.4406 -103.738 
vt 46.6031 -103.738 
vt 46.4406 233.092 
vt 46.6406 233.092 
vt 46.4406 233.104 
vt -240.092 -103.738 
vt -240.092 -103.738 
vt -240.029 -103.738 
vt 46.6406 233.092 
vt 41.3469 -103.738 
vt 41.3594 -103.738 
vt 41.3469 -103.738 
vt 46.6531 233.092 
vt 46.6531 233.104 
vt 46.6531 233.092 
vt 46.6531 233.092 
vt 328.092 -103.738 
vt 328.092 -103.738 
vt 328.029 -103.738 
vt 46.6406 233.092 
vt 46.6406 233.029 
vt 46.6531 233.029 
vt -240.092 -103.738 
vt 41.3594 -103.738 
vt -240.029 -103.738 
vt 328.092 -103.738 
vt 46.6531 233.092 
vt 46.6031 233.092 
vt 46.4406 233.092 
vt 46.4406 233.092 
vt 46.4406 -103.738 
vt 46.4406 -103.738 
vt 46.6406 233.092 
vt 46.6031 233.029 
vt 46.6406 -103.738 
vt -240.092 -103.738 
vt 46.6531 -103.738 
vt 46.6531 -103.738 
vt 46.6531 -103.788 
vt 41.3969 233.092 
vt 41.3594 233.092 
vt 41.3969 233.029 
vt 46.6406 -103.75 
vt 46.6031 -103.75 
vt 46.6406 -103.788 
vt 46.4406 -103.788 
vt 46.6031 232.904 
vt 46.6031 233.004 
vt 46.4406 232.904 
vt -240.004 -103.738 
vt -239.904 -103.738 
vt -240.004 -103.738 
vt 46.6031 233.004 
vt 46.6406 232.904 
vt -240.004 -103.75 
vt 41.3969 233.029 
vt 41.3969 233.004 
vt 41.5594 233.004 
vt -240.029 -103.75 
vt 41.3969 -103.75 
vt 46.6031 -103.75 
vt 46.6031 -103.738 
vt 46.6031 -103.738 
vt 41.3969 -103.738 
vt 41.3969 -103.75 
vt 46.4406 -103.75 
vt -240.029 -103.738 
vt -239.904 -103.738 
vt -240.029 -103.738 
vt 46.6406 233.029 
vt 46.6031 233.004 
vt 46.6406 233.029 
vt 46.6031 233.029 
vt 328.004 -103.738 
vt 328.029 -103.738 
vt 328.029 -103.738 
vt 46.6031 -103.738 
vt 46.6031 233.004 
vt 46.6031 233.004 
vt 46.4406 233.004 
vt 46.6406 233.029 
vt 46.6406 233.029 
vt 46.6406 233.029 
vt 46.6031 -103.738 
vt 328.004 -103.738 
vt 46.6406 -103.738 
vt 46.6406 -103.738 
vt 46.6531 -103.95 
vt 46.6406 233.029 
vt 46.6406 -103.738 
vt 46.6406 -103.738 
vt 46.6031 -103.738 
vt 46.6406 233.029 
vt 46.6406 232.904 
vt 46.6531 233.029 
vt -239.904 -103.738 
vt 41.3594 -103.738 
vt 41.3594 -103.738 
vt 46.6406 -103.738 
vt 46.6531 -103.738 
vt 41.3594 -103.738 
vt 41.3969 -103.738 
vt 41.3969 233.029 
vt 328.029 -103.75 
vt 328.029 -103.75 
vt 328.029 -103.738 
vt 328.029 -103.738 
vt 41.3594 -103.738 
vt 46.6406 -103.75 
vt 46.6406 -103.75 
vt 328.029 -103.738 
vt 328.029 -103.75 
vt 328.029 -103.738 
vt 41.3594 233.029 
vt 41.3594 233.029 
vt 41.3594 233.029 
vt 328.029 -103.75 
vt 46.6406 -103.75 
vt -240.092 -103.75 
vt 41.3594 233.029 
vt 46.6031 -103.75 
vt 41.5594 233.092 
vt 328.029 -103.75 
vt -240.092 -103.788 
vt 41.3594 -103.75 
vt 328.029 -103.75 
vt -240.092 -103.95 
vt 41.3594 -103.75 
vt 41.6094 -103.75 
vt 328.092 -103.788 
vt 41.3594 233.092 
vt 41.3469 233.104 
vt 41.3469 233.092 
vt 41.5281 233.104 
vt -240.092 -103.788 
vt 41.3594 233.092 
vt 41.3469 233.092 
vt 41.3469 233.092 
vt 41.3594 -103.788 
vt 41.3469 -103.788 
vt 46.6531 -103.788 
vt 328.092 -103.788 
vt -240.092 -103.95 
vt 46.6406 -103.95 
vt 328.029 -103.75 
vt 46.6031 232.904 
vt 46.6531 -103.738 
vt 46.6406 -103.738 
vt 46.6531 -103.988 
vt 46.6531 232.904 
vt 46.6031 232.904 
vt 46.6031 -103.738 
vt 46.6031 -103.738 
vt 46.6406 -103.738 
vt 46.6031 -103.738 
vt 46.4406 -103.738 
vt 46.6031 -103.75 
vt 327.904 -103.738 
vt 327.904 -103.738 
vt 327.904 -103.75 
vt 46.6031 -103.75 
vt 46.6406 -103.988 
vt 46.6031 -103.75 
vt 46.4406 -103.75 
vt -239.904 -103.75 
vt -239.904 -103.988 
vt -239.904 -103.988 
vt 46.6406 -103.988 
vt 46.6406 -103.75 
vt 41.3969 232.904 
vt 41.3594 232.904 
vt 41.3969 232.904 
vt 327.904 -103.75 
vt 327.904 -103.75 
vt -239.904 -103.75 
vt 41.3594 232.904 
vt 46.6031 -103.75 
vt 46.6406 -103.75 
vt 327.904 -103.75 
vt 46.6156 232.892 
vt 46.6156 232.904 
vt 46.5656 232.904 
vt 327.904 -103.788 
vt 327.892 -103.788 
vt 327.892 -103.838 
vt 41.4344 232.904 
vt 41.3844 232.904 
vt 41.3844 232.892 
vt 41.3844 -103.838 
vt 41.4344 -103.838 
vt 41.3844 -103.788 
vt 327.904 -103.838 
vt 46.6406 -103.988 
vt 46.6156 -103.838 
vt 46.6156 -103.788 
vt 46.5656 -103.788 
vt 41.4344 232.892 
vt 327.892 -103.913 
vt 327.879 -103.913 
vt 327.879 -103.988 
vt 46.6156 232.879 
vt 46.6156 232.892 
vt 46.5906 232.892 
vt 41.4094 -103.913 
vt 41.3844 -103.913 
vt 41.3844 -103.988 
vt 327.892 -103.988 
vt 41.3594 -103.888 
vt 41.3594 -103.988 
vt 41.6094 -103.988 
vt 327.904 -103.988 
vt 327.904 -103.888 
vt 327.892 -103.988 
vt 41.3594 232.904 
vt 46.6406 -103.988 
vt 46.6406 -103.988 
vt 46.6406 -103.888 
vt 46.5906 -103.938 
vt 327.892 -103.888 
vt 41.3594 232.904 
vt 41.3594 232.892 
vt 41.6094 232.904 
vt 46.5969 -103.913 
vt 46.6156 -103.988 
vt 46.6156 -103.913 
vt 46.5906 -103.988 
vt 41.6094 232.979 
vt 41.5594 -103.738 
vt 46.4406 -103.75 
vt 41.6094 233.092 
vt 41.6094 232.979 
vt 41.6219 233.092 
vt -239.979 -103.988 
vt -240.092 -103.988 
vt -240.092 -103.988 
vt 41.6094 233.092 
vt -239.979 -103.988 
vt -239.904 -103.988 
vt 41.6219 -103.988 
vt 41.6219 232.904 
vt 41.6094 -103.988 
vt 41.6094 -103.988 
vt 41.6219 -103.788 
vt 41.6219 -103.738 
vt 41.5594 -103.738 
vt -240.104 -103.738 
vt -240.104 -103.788 
vt -240.092 -103.738 
vt 46.4406 233.104 
vt 46.3781 233.104 
vt 46.3781 233.092 
vt 46.4406 233.092 
vt -240.104 -103.738 
vt -240.092 -103.738 
vt -240.104 -103.738 
vt -240.092 -103.738 
vt 41.5594 -103.788 
vt 41.5594 -103.788 
vt 41.5594 -103.788 
vt 41.5594 -103.788 
vt 41.6219 233.104 
vt 41.5594 233.104 
vt 41.5594 233.092 
vt -240.104 -103.788 
vt -240.104 -103.788 
vt 41.5594 233.104 
vt 41.5594 233.104 
vt 41.5594 233.104 
vt 41.5594 233.092 
vt -239.904 -103.738 
vt -240.092 -103.738 
vt -240.092 -103.988 
vt 46.3781 233.092 
vt 46.3781 232.904 
vt 46.3906 233.092 
vt 41.6219 -103.738 
vt 41.6094 -103.738 
vt 41.6219 233.092 
vt -240.092 -103.788 
vt 46.3781 -103.738 
vt 46.3781 -103.788 
vt 46.4406 -103.75 
vt 41.5594 -103.75 
vt 41.6094 -103.75 
vt 41.5594 -103.75 
vt 46.3906 233.092 
vt 46.3906 233.092 
vt 46.4406 233.092 
vt 46.4406 233.092 
vt 328.092 -103.788 
vt 328.092 -103.75 
vt 328.092 -103.75 
vt 41.5594 233.092 
vt 41.5594 233.092 
vt 46.4406 -103.788 
vt 46.4406 -103.75 
vt 328.092 -103.788 
vt 46.4406 -103.738 
vt 41.5594 233.092 
vt 328.092 -103.75 
vt 328.092 -103.738 
vt 327.904 -103.738 
vt -240.004 -103.738 
vt -240.092 -103.738 
vt -240.092 -103.738 
vt 41.5594 -103.75 
vt 41.5594 -103.738 
vt 328.004 -103.738 
vt 328.004 -103.75 
vt 328.004 -103.738 
vt -240.004 -103.738 
vt 46.4406 233.004 
vt 46.4406 233.092 
vt 46.3906 233.092 
vt 46.4406 -103.738 
vt 46.4406 -103.738 
vt 46.4406 -103.738 
vt 46.4406 233.004 
vt -240.092 -103.75 
vt 41.6094 -103.738 
vt 41.5594 -103.738 
vt -240.092 -103.738 
vt -240.092 -103.75 
vt -239.904 -103.75 
vt -240.092 -103.75 
vt 41.5594 233.092 
vt 41.5594 -103.75 
vt 328.092 -103.75 
vt 328.092 -103.75 
vt 328.004 -103.75 
vt 327.904 -103.738 
vt 46.4406 233.004 
vt 328.104 -103.788 
vt 328.104 -103.788 
vt 46.5656 -103.838 
vt -239.892 -103.838 
vt -239.892 -103.788 
vt -239.904 -103.788 
vt 46.5656 232.892 
vt 41.4344 -103.788 
vt -239.904 -103.838 
vt -239.904 -103.988 
vt 327.904 -103.75 
vt 46.3906 232.904 
vt 46.3906 232.904 
vt 46.3906 -103.738 
vt 46.3781 -103.738 
vt 46.3906 -103.75 
vt 46.3906 232.904 
vt -239.904 -103.738 
vt -239.904 -103.75 
vt 327.904 -103.738 
vt 46.4406 232.904 
vt 46.3906 232.904 
vt 46.4406 -103.75 
vt 327.904 -103.75 
vt 327.904 -103.75 
vt 46.4406 -103.738 
vt 46.4406 -103.75 
vt 46.4406 -103.75 
vt 46.3906 -103.738 
vt 46.3906 -103.75 
vt 46.3906 -103.988 
vt 46.3906 -103.75 
vt -239.904 -103.75 
vt -239.904 -103.75 
vt -239.904 -103.75 
vt 46.4406 -103.75 
vt 41.6094 232.904 
vt 41.5594 232.904 
vt 41.5594 232.904 
vt 46.3906 -103.75 
vt -239.904 -103.75 
vt 41.6094 232.904 
vt 46.4406 -103.75 
vt 41.3969 232.904 
vt 41.5594 232.904 
vt 41.5594 232.904 
vt 46.4406 -103.75 
vt -239.904 -103.75 
vt 41.5594 232.904 
vt 41.5594 232.904 
vt 41.5594 232.904 
vt 46.4406 -103.75 
vt 41.5594 232.904 
vt 46.4156 -103.788 
vt 46.4156 -103.838 
vt 46.4656 -103.838 
vt -239.892 -103.838 
vt -239.892 -103.788 
vt -239.904 -103.788 
vt 46.4156 232.904 
vt 46.4156 232.892 
vt 46.4656 232.892 
vt 41.5844 -103.838 
vt 41.5844 -103.788 
vt 41.5344 -103.788 
vt -239.904 -103.838 
vt 41.5844 232.892 
vt 41.5844 232.904 
vt 41.5344 232.904 
vt 46.3781 -103.988 
vt 46.4656 -103.788 
vt 327.904 -103.788 
vt 327.892 -103.788 
vt 327.892 -103.838 
vt 46.4656 232.904 
vt 41.5344 -103.838 
vt 327.904 -103.838 
vt 41.5344 232.892 
vt -239.879 -103.938 
vt -239.879 -103.963 
vt -239.879 -103.938 
vt -239.892 -103.938 
vt 41.5594 232.892 
vt 41.5594 232.879 
vt 41.5594 232.879 
vt 41.5594 -103.963 
vt 41.5594 -103.938 
vt 41.5344 -103.938 
vt -239.892 -103.963 
vt 46.4406 232.879 
vt 46.4406 232.892 
vt 46.4406 232.879 
vt -239.879 -103.963 
vt 46.4406 -103.963 
vt 46.4406 -103.963 
vt 46.4406 -103.963 
vt -239.879 -103.963 
vt 46.4406 -103.938 
vt 46.4406 -103.938 
vt 46.4406 -103.938 
vt 46.4406 -103.938 
vt 46.4406 -103.963 
vt 46.4656 -103.938 
vt -239.879 -103.938 
vt 46.4406 232.879 
vt 46.4406 232.879 
vt 46.4656 232.879 
vt 41.5844 232.879 
vt 41.5844 232.892 
vt 41.5594 232.892 
vt -239.892 -103.988 
vt -239.879 -103.988 
vt -239.879 -103.913 
vt 41.5844 -103.988 
vt 41.5844 -103.913 
vt 41.5594 -103.913 
vt -239.892 -103.913 
vt 41.6094 232.892 
vt -239.904 -103.988 
vt -239.892 -103.988 
vt -239.904 -103.888 
vt 46.3906 -103.988 
vt 46.3906 -103.988 
vt -239.904 -103.988 
vt 41.6094 232.904 
vt 41.6094 232.904 
vt 41.6094 232.904 
vt 41.6094 -103.888 
vt 46.4406 232.892 
vt 46.4156 232.879 
vt 46.4406 232.879 
vt 46.4156 232.892 
vt 46.4406 -103.913 
vt 46.4156 -103.913 
vt 46.4156 -103.988 
vt 46.3906 -103.888 
vt 46.4406 -103.938 
vt 46.4406 -103.913 
vt 46.3906 -103.988 
vt 41.5594 -103.988 
vt 41.5594 -103.988 
vt 41.5594 -103.913 
vt 41.5594 -103.913 
vt -239.892 -103.938 
vt -239.892 -103.913 
vt -239.892 -103.913 
vt 41.5594 -103.938 
vt 41.5594 -103.963 
vt 41.5594 -103.938 
vt -239.892 -103.988 
vt -239.892 -103.963 
vt -239.892 -103.963 
vt 41.5594 -103.988 
vt 327.892 -103.913 
vt 327.892 -103.913 
vt 327.879 -103.913 
vt 46.4406 232.892 
vt 46.4406 232.892 
vt 41.5594 -103.963 
vt 41.5594 232.892 
vt 41.5594 232.892 
vt 41.5594 232.892 
vt 327.892 -103.963 
vt 327.892 -103.938 
vt 327.879 -103.963 
vt 41.5594 232.892 
vt 41.5594 232.892 
vt 41.5594 232.892 
vt -239.892 -103.938 
vt 46.4406 232.892 
vt 46.4406 232.892 
vt 46.4406 232.892 
vt 46.4406 -103.988 
vt 46.4406 -103.963 
vt -239.892 -103.988 
vt 46.4406 232.892 
vt 46.4656 -103.938 
vt 41.5344 232.892 
vt 46.4656 232.892 
vt 46.4656 -103.963 
vt 46.5906 -103.988 
vt 41.4094 232.892 
vt 41.4094 232.879 
vt 327.879 -103.913 
vt 327.879 -103.938 
vt 327.879 -103.988 
vt 41.5594 232.879 
vt 327.892 -103.988 
vt 327.879 -103.988 
vt 41.5594 232.879 
vt 327.892 -103.988 
vt 46.4406 -103.988 
vt 46.4406 -103.913 
vt 46.4406 -103.988 
vt 46.4656 232.879 
vt 41.5344 -103.963 
vt 46.4656 -103.963 
vt 46.4406 -103.963 
vt 46.3906 232.892 
vt 46.6406 232.892 
vt 46.3906 232.904 
vt 46.5906 -103.913 
vt 46.4656 -103.938 
vt 46.5906 -103.913 
vt 327.879 -103.938 
vt 327.879 -103.963 
vt 327.879 -103.938 
vt 41.5344 232.879 
vt 41.5344 232.879 
vt 41.5594 232.879 
vt 327.879 -103.963 
vt 46.4656 -103.963 
vt 41.5594 232.879 
vt 46.4656 -103.938 
vt 46.4656 -103.963 
vt 46.5656 -103.963 
vt 327.879 -103.963 
vt 327.879 -103.938 
vt 46.5656 -103.963 
vt 46.5656 -103.938 
vt -239.879 -103.963 
vt -239.879 -103.938 
vt -239.879 -103.963 
vt -239.879 -103.963 
vt 46.5656 -103.938 
vt -239.879 -103.938 
vt 46.5656 -103.938 
vt 46.5656 -103.963 
vt 46.5906 -103.938 
vt -239.879 -103.938 
vt 46.5656 232.879 
vt 46.5656 232.879 
vt 46.5906 232.879 
vt 46.5906 -103.988 
vt 46.5906 -103.938 
vt 46.5906 232.879 
vt 46.4406 232.879 
vt 46.5906 232.879 
vt 46.5906 -103.913 
vt 46.5906 232.892 
vt 46.5906 232.892 
vt 41.4094 -103.913 
vt 46.5906 232.879 
vt -239.879 -103.913 
vt -239.892 -103.913 
vt -239.879 -103.913 
vt 41.4094 -103.938 
vt 41.4094 -103.963 
vt 41.4094 -103.988 
vt 41.4094 -103.938 
vt 327.892 -103.913 
vt 327.892 -103.938 
vt 327.892 -103.913 
vt 41.4094 -103.988 
vt 327.892 -103.963 
vt 327.892 -103.988 
vt 327.892 -103.988 
vt 46.5656 232.892 
vt 46.5906 232.892 
vt 46.5906 232.892 
vt 41.4094 -103.963 
vt 41.4344 -103.963 
vt 41.4344 -103.938 
vt 327.892 -103.963 
vt 327.892 -103.938 
vt 327.879 -103.938 
vt 41.4094 -103.938 
vt 46.5906 232.892 
vt 46.5906 232.892 
vt 41.4094 -103.963 
vt -239.892 -103.938 
vt -239.892 -103.963 
vt -239.879 -103.938 
vt 41.4094 232.892 
vt 41.3844 232.892 
vt 41.3844 232.879 
vt -239.892 -103.988 
vt -239.892 -103.988 
vt -239.879 -103.988 
vt 41.4094 -103.988 
vt 41.4094 232.892 
vt 41.4094 232.892 
vt 41.4094 232.892 
vt 327.892 -103.938 
vt 41.4094 232.892 
vt 41.4094 232.892 
vt 46.5906 -103.963 
vt 46.5906 -103.988 
vt 327.892 -103.963 
vt 46.5906 -103.938 
vt 46.5656 -103.938 
vt 41.4344 232.892 
vt 41.4094 232.892 
vt 41.4094 232.879 
vt 46.5906 232.879 
vt 46.5656 -103.963 
vt 41.4094 232.879 
vt 327.879 -103.938 
vt 327.879 -103.963 
vt 327.879 -103.963 
vt 327.879 -103.963 
vt 46.5906 232.879 
vt 46.5906 -103.963 
vt 46.5906 -103.963 
vt 46.5906 -103.938 
vt 46.5906 -103.938 
vt -239.879 -103.963 
vt -239.879 -103.988 
vt 41.4094 232.879 
vt 46.5906 -103.963 
vt 46.5906 -103.913 
vt 41.4344 232.879 
vt 41.4094 232.879 
vt 41.4344 232.879 
vt 46.5906 -103.963 
vt 41.4094 232.879 
vt 46.6406 -103.988 
vt 46.6406 233.029 
vt 41.3969 232.904 
vt 46.6406 232.904 
vt -239.892 -103.913 
vt -239.879 -103.963 
vt -239.892 -103.888 
vt 327.879 -103.938 
vt 46.5906 -103.963 
vt 41.3594 -103.988 
vt 41.3594 -103.95 
vt 41.3469 -103.95 
vt 328.092 -103.95 
vt 328.029 -103.95 
vt 328.029 -103.988 
vt 41.3469 -103.988 
vt 328.092 -103.988 
vt 41.3594 233.092 
vt 41.3469 233.092 
vt 41.3594 233.029 
vt 328.029 -103.988 
vt 328.029 -103.95 
vt 328.029 -103.75 
vt 46.6406 -103.95 
vt 46.6406 -103.988 
vt 46.6531 -103.988 
vt 328.029 -103.95 
vt 328.092 -103.95 
vt 328.092 -103.788 
vt 46.6531 -103.95 
vt 41.3469 233.029 
vt 41.3469 232.904 
vt 41.3594 232.904 
vt 327.904 -103.988 
vt 328.029 -103.738 
vt 41.3469 -103.738 
vt 41.3469 -103.988 
vt 41.3594 -103.75 
vt 41.3594 -103.988 
vt 327.904 -103.738 
vt 328.104 -103.788 
vt 328.104 -103.738 
vt 328.092 -103.738 
vt 41.3469 -103.738 
vt 41.3469 -103.788 
vt 41.5281 -103.788 
vt 46.6031 233.004 
vt 46.6031 233.029 
vt 46.4406 233.004 
vt 46.6406 233.092 
vt 46.6406 233.029 
vt 46.4406 233.092 
vt 46.6406 -103.738 
vt 46.4406 -103.738 
vt 46.6031 -103.738 
vt 46.4406 233.092 
vt 46.4406 233.104 
vt 46.6531 233.104 
vt 46.6406 233.029 
vt 46.6531 233.029 
vt 46.6031 233.092 
vt 46.6031 233.029 
vt 41.3594 233.092 
vt 41.3969 233.029 
vt 46.6406 -103.75 
vt 46.6406 -103.788 
vt 46.4406 -103.788 
vt 46.6031 233.004 
vt 46.4406 232.904 
vt 46.6406 232.904 
vt 41.3969 233.004 
vt 41.5594 233.004 
vt 46.6031 -103.75 
vt 46.6031 -103.738 
vt 46.4406 -103.75 
vt 46.6406 233.029 
vt 46.6031 233.029 
vt 46.6031 233.004 
vt 46.4406 233.004 
vt 46.6531 233.029 
vt 46.6531 -103.95 
vt 46.6531 -103.738 
vt 46.6406 -103.738 
vt 328.029 -103.738 
vt 41.3969 -103.75 
vt 41.3969 -103.738 
vt 41.3594 -103.738 
vt 41.3594 233.029 
vt 46.6031 -103.75 
vt 46.6406 -103.75 
vt 41.5594 233.092 
vt 46.6031 -103.738 
vt -240.092 -103.95 
vt -240.092 -103.75 
vt -240.092 -103.788 
vt 41.3594 -103.75 
vt 41.6094 -103.75 
vt 328.092 -103.788 
vt 41.3594 233.092 
vt 41.3469 233.104 
vt 41.3469 233.092 
vt 41.5281 233.104 
vt 41.3594 -103.788 
vt 41.3469 -103.788 
vt 41.3594 -103.95 
vt 41.3469 -103.95 
vt 46.6406 -103.95 
vt 46.6531 -103.738 
vt 46.6406 -103.738 
vt 46.6531 -103.988 
vt 46.6531 232.904 
vt 46.4406 -103.738 
vt 46.6031 -103.75 
vt 46.6406 -103.988 
vt 46.4406 -103.75 
vt 46.6406 -103.75 
vt -239.904 -103.75 
vt -239.904 -103.988 
vt -239.904 -103.738 
vt 46.6156 232.892 
vt 46.6156 232.904 
vt 46.5656 232.904 
vt 327.904 -103.788 
vt 327.892 -103.788 
vt 327.892 -103.838 
vt 41.4344 232.904 
vt 41.3844 232.904 
vt 41.3844 232.892 
vt 41.3844 -103.838 
vt 41.4344 -103.838 
vt 41.3844 -103.788 
vt 327.904 -103.838 
vt 46.6156 -103.838 
vt 46.6156 -103.788 
vt 46.5656 -103.788 
vt 41.4344 232.892 
vt 327.892 -103.913 
vt 327.879 -103.913 
vt 327.879 -103.988 
vt 46.6156 232.879 
vt 46.6156 232.892 
vt 46.5906 232.892 
vt 41.4094 -103.913 
vt 41.3844 -103.913 
vt 41.3844 -103.988 
vt 327.892 -103.988 
vt 41.3594 -103.888 
vt 41.3594 -103.988 
vt 41.6094 -103.988 
vt 327.904 -103.988 
vt 327.904 -103.888 
vt 46.5906 -103.938 
vt 41.6094 232.904 
vt 46.5969 -103.913 
vt 46.6156 -103.988 
vt 46.6156 -103.913 
vt 46.5906 -103.988 
vt 41.5594 -103.738 
vt 46.4406 -103.75 
vt 41.6219 233.092 
vt 41.6219 -103.988 
vt 41.6219 232.904 
vt 41.6219 -103.788 
vt 41.6219 -103.738 
vt 41.5594 -103.738 
vt -240.104 -103.738 
vt -240.104 -103.788 
vt -240.092 -103.738 
vt 46.4406 233.104 
vt 46.3781 233.104 
vt 46.3781 233.092 
vt 46.4406 233.092 
vt 41.5594 -103.788 
vt 41.6219 233.104 
vt 41.5594 233.104 
vt 41.5594 233.092 
vt 41.5594 -103.788 
vt 41.5594 233.104 
vt 41.5594 233.092 
vt -239.904 -103.738 
vt -240.092 -103.738 
vt -240.092 -103.988 
vt 46.3781 232.904 
vt 46.3906 233.092 
vt 41.6219 -103.738 
vt 41.6094 -103.738 
vt 41.6219 233.092 
vt -240.092 -103.788 
vt 46.3781 -103.738 
vt 46.3781 -103.788 
vt 46.4406 -103.75 
vt 46.3906 233.092 
vt 46.4406 -103.738 
vt 46.4406 -103.788 
vt 328.092 -103.75 
vt 328.092 -103.738 
vt 327.904 -103.738 
vt 41.3969 -103.75 
vt 41.5594 -103.75 
vt 41.5594 -103.738 
vt 46.4406 233.004 
vt 41.5594 -103.738 
vt -240.092 -103.738 
vt -240.092 -103.75 
vt -239.904 -103.75 
vt 41.5594 -103.75 
vt 46.4406 -103.738 
vt 46.5656 -103.838 
vt -239.892 -103.838 
vt -239.892 -103.788 
vt -239.904 -103.788 
vt 46.5656 232.892 
vt 41.4344 -103.788 
vt -239.904 -103.838 
vt -239.904 -103.988 
vt 327.904 -103.75 
vt 46.3781 -103.738 
vt 46.3906 -103.75 
vt 46.3906 -103.988 
vt 46.4156 -103.788 
vt 46.4156 -103.838 
vt 46.4656 -103.838 
vt -239.892 -103.838 
vt -239.892 -103.788 
vt -239.904 -103.788 
vt 46.4156 232.904 
vt 46.4156 232.892 
vt 46.4656 232.892 
vt 41.5844 -103.838 
vt 41.5844 -103.788 
vt 41.5344 -103.788 
vt -239.904 -103.838 
vt 41.5844 232.892 
vt 41.5844 232.904 
vt 41.5344 232.904 
vt 46.3781 -103.988 
vt 46.4656 -103.788 
vt 327.904 -103.788 
vt 327.892 -103.788 
vt 327.892 -103.838 
vt 46.4656 232.904 
vt 41.5344 -103.838 
vt 327.904 -103.838 
vt 41.5344 232.892 
vt -239.879 -103.938 
vt -239.892 -103.938 
vt 41.5594 -103.963 
vt 41.5594 -103.938 
vt 41.5344 -103.938 
vt -239.892 -103.963 
vt 46.4406 -103.938 
vt 46.4656 -103.938 
vt 41.5844 232.879 
vt 41.5844 232.892 
vt -239.892 -103.988 
vt -239.879 -103.988 
vt -239.879 -103.913 
vt 41.5844 -103.988 
vt 41.5844 -103.913 
vt 41.5594 -103.913 
vt -239.892 -103.913 
vt -239.904 -103.988 
vt 46.4406 232.892 
vt 46.4156 232.879 
vt 46.4406 232.879 
vt 46.4156 232.892 
vt 46.4406 -103.913 
vt 46.4156 -103.913 
vt 46.4156 -103.988 
vt 46.4406 -103.938 
vt 46.4406 -103.913 
vt 41.5594 -103.938 
vt 41.5594 -103.963 
vt 327.892 -103.963 
vt 327.892 -103.938 
vt 327.879 -103.963 
vt 46.4406 -103.988 
vt 46.4406 -103.963 
vt 46.4656 -103.938 
vt 46.4656 -103.963 
vt 46.5906 -103.988 
vt 41.4094 232.892 
vt 41.4094 232.879 
vt 327.879 -103.938 
vt 327.879 -103.988 
vt 327.879 -103.913 
vt 41.5594 232.879 
vt 46.4406 -103.988 
vt 41.5344 -103.963 
vt 46.4656 -103.963 
vt 46.5906 -103.913 
vt 46.4656 -103.938 
vt 46.4406 -103.938 
vt 46.5906 -103.913 
vt 46.4656 -103.963 
vt 46.4406 -103.963 
vt 46.5656 -103.963 
vt 46.5656 -103.938 
vt 46.5656 -103.938 
vt 46.5656 -103.963 
vt 46.5906 -103.938 
vt 46.5906 232.879 
vt 41.4094 -103.938 
vt 41.4094 -103.988 
vt 41.4094 -103.963 
vt 41.4344 -103.963 
vt 41.4344 -103.938 
vt 327.892 -103.963 
vt 327.892 -103.938 
vt 327.879 -103.938 
vt 41.4094 -103.938 
vt -239.892 -103.938 
vt -239.892 -103.963 
vt 41.3844 232.892 
vt 41.3844 232.879 
vt 46.5906 -103.963 
vt 46.5656 -103.938 
vt 46.5656 -103.963 
vt 327.879 -103.963 
vt -239.879 -103.963 
vt -239.879 -103.988 
vt -239.879 -103.913 
vt 46.5906 -103.963 
vt 46.5906 -103.963 
vt 41.3969 -103.738 
vt 46.6406 232.904 
vt 328.092 -103.95 
vt 328.029 -103.95 
vt 328.029 -103.988 
vt 328.092 -103.988 
vt 41.3578 233.092 
vt 41.3567 233.029 
vt 41.6144 233.092 
vt 328.029 -103.75 
vt 328.029 -103.95 
vt 328.092 -103.95 
vt 328.093 -103.788 
vt 327.901 -103.988 
vt 328.029 -103.741 
vt 41.3564 -103.741 
vt 41.3567 -103.988 
vt 41.3594 -103.75 
vt 327.904 -103.742 
vt 41.3546 -103.74 
vt 41.3513 -103.788 
vt -240.004 -103.75 
vt -240.004 -103.739 
vt 46.6031 233.029 
vt 46.6454 233.093 
vt 46.6406 233.029 
vt 46.4406 233.094 
vt -240.093 -103.74 
vt -240.029 -103.75 
vt -240.029 -103.741 
vt 41.3969 -103.743 
vt 46.6454 -103.74 
vt 46.4406 -103.744 
vt 46.6454 233.093 
vt 46.6031 233.092 
vt 46.6031 233.029 
vt 41.3546 233.093 
vt 41.3969 233.029 
vt 46.6487 -103.788 
vt 46.4406 -103.788 
vt 46.6031 232.904 
vt 46.6031 233.004 
vt 46.4406 232.904 
vt 46.6415 232.904 
vt 41.3969 233.004 
vt 46.6436 233.029 
vt 46.6031 233.029 
vt 46.6031 233.004 
vt 46.4406 233.094 
vt 46.6436 233.029 
vt 328.029 -103.741 
vt 328.093 -103.74 
vt 41.3564 233.029 
vt 41.5594 233.094 
vt -240.092 -103.95 
vt -240.093 -103.788 
vt 41.3546 -103.74 
vt 41.3515 -103.95 
vt 41.6144 -103.742 
vt 46.6427 -103.988 
vt 46.6031 -103.744 
vt 46.4406 -103.748 
vt 46.6415 -103.742 
vt 41.3844 -103.838 
vt 41.4344 -103.838 
vt 41.3844 -103.788 
vt 46.6156 -103.838 
vt 46.6156 -103.788 
vt 46.5656 -103.788 
vt 41.3594 -103.888 
vt 41.3573 -103.988 
vt 41.6112 -103.988 
vt 46.6406 -103.888 
vt 46.5906 -103.938 
vt 46.5956 -103.913 
vt 41.3573 232.901 
vt 41.5594 -103.744 
vt 41.6112 232.901 
vt 41.6144 -103.988 
vt 41.6219 -103.788 
vt 41.5594 -103.744 
vt 41.5594 -103.788 
vt 41.5594 -103.788 
vt -239.904 -103.744 
vt -240.093 -103.742 
vt -240.092 -103.988 
vt 46.3856 -103.742 
vt 46.3781 -103.788 
vt 46.4406 -103.744 
vt 46.3856 233.093 
vt 46.4406 -103.788 
vt 46.6031 -103.739 
vt 41.3578 -103.988 
vt 41.3513 233.093 
vt 41.5594 233.099 
vt 46.5656 -103.838 
vt 41.4344 -103.788 
vt -239.901 -103.988 
vt 46.3888 232.904 
vt 46.3888 -103.744 
vt 46.3888 -103.988 
vt 46.4156 -103.788 
vt 46.4156 -103.838 
vt 46.4656 -103.838 
vt 41.5844 -103.838 
vt 41.5844 -103.788 
vt 41.5344 -103.788 
vt 46.4656 -103.788 
vt 41.5344 -103.838 
vt 41.5594 -103.963 
vt 41.5594 -103.938 
vt 41.5344 -103.938 
vt 46.4406 -103.938 
vt 46.4406 -103.963 
vt 46.4656 -103.938 
vt 41.6094 -103.888 
vt 46.3906 -103.888 
vt 46.4406 -103.938 
vt 46.4356 -103.913 
vt 41.5644 -103.913 
vt 41.5594 -103.938 
vt 41.5625 -103.978 
vt 46.4656 -103.938 
vt 46.4375 -103.978 
vt 46.4375 232.888 
vt 46.4406 232.882 
vt 46.4656 232.882 
vt 46.4656 -103.963 
vt 46.5929 -103.975 
vt 327.888 -103.978 
vt 327.887 -103.938 
vt 327.887 -103.913 
vt 41.5344 -103.963 
vt 46.4656 -103.963 
vt 46.4656 -103.938 
vt 46.4356 -103.913 
vt 46.4406 -103.938 
vt 46.5956 -103.913 
vt 46.4656 -103.963 
vt 46.4406 -103.963 
vt 46.4375 -103.978 
vt 46.5656 -103.963 
vt 46.5656 -103.938 
vt 46.5656 -103.938 
vt 46.5656 -103.963 
vt 46.5906 -103.938 
vt 46.5929 -103.975 
vt 46.5906 -103.938 
vt 41.4044 -103.913 
vt 41.4071 -103.975 
vt 41.4094 -103.938 
vt 41.4071 -103.975 
vt 41.4344 -103.963 
vt 41.4344 -103.938 
vt 41.4094 -103.938 
vt 46.5656 -103.938 
vt 46.5656 -103.963 
vt -239.887 -103.938 
vt -239.888 -103.975 
vt -239.888 -103.913 
vt 46.5929 -103.975 
vt 46.6406 -103.75 
vt 46.6453 -103.95 
vt 46.6436 -103.741 
vt 41.3969 -103.739 

usemtl Head1Mtl

f 1/1/1 2/2/2 3/3/3 
f 4/4/4 5/5/5 6/6/6 
f 7/7/7 8/8/8 9/9/9 
f 10/10/10 6/6/6 11/11/11 
f 6/6/6 10/10/10 12/12/12 
f 13/13/13 14/14/14 15/15/15 
f 14/14/14 16/16/16 15/15/15 
f 17/17/17 7/7/7 9/9/9 
f 18/18/18 19/19/19 20/20/20 
f 21/21/21 22/22/22 2/2/2 
f 23/23/23 24/24/24 25/25/25 
f 3/3/3 22/22/22 26/26/26 
f 22/22/22 3/3/3 2/2/2 
f 27/27/27 28/28/28 29/29/29 
f 30/30/30 31/31/31 32/32/32 
f 33/33/33 34/34/34 35/35/35 
f 31/31/31 36/36/36 32/32/32 
f 25/25/25 24/24/24 37/37/37 
f 20/20/20 35/35/35 18/18/18 
f 35/35/35 20/20/20 33/33/33 
f 38/38/38 39/39/39 40/40/40 
f 41/41/41 27/27/27 29/29/29 
f 42/42/42 3/3/3 26/26/26 
f 40/40/40 43/43/43 38/38/38 
f 13/13/13 15/15/15 44/44/44 
f 45/45/45 46/46/46 30/30/30 
f 47/47/47 48/48/48 49/49/49 
f 50/50/50 51/51/51 52/52/52 
f 53/53/53 54/54/54 55/55/55 
f 56/56/56 52/52/52 57/57/57 
f 54/54/54 58/58/58 59/59/59 
f 60/60/60 56/56/56 61/61/61 
f 61/61/61 56/56/56 57/57/57 
f 57/57/57 47/47/47 49/49/49 
f 47/47/47 57/57/57 51/51/51 
f 62/62/62 63/63/63 64/64/64 
f 65/65/65 38/38/38 66/66/66 
f 67/67/67 62/62/62 64/64/64 
f 15/15/15 68/68/68 44/44/44 
f 69/69/69 70/70/70 71/71/71 
f 72/72/72 73/73/73 74/74/74 
f 75/75/75 76/76/76 77/77/77 
f 76/76/76 78/78/78 77/77/77 
f 79/79/79 69/69/69 80/80/80 
f 72/72/72 74/74/74 81/81/81 
f 82/82/82 83/83/83 84/84/84 
f 85/85/85 86/86/86 87/87/87 
f 88/88/88 89/89/89 89/89/89 
f 90/90/90 91/91/91 92/92/92 
f 93/93/93 91/91/91 94/94/94 
f 91/91/91 93/93/93 95/95/95 
f 96/96/96 94/94/94 97/97/97 
f 94/94/94 96/96/96 98/98/98 
f 99/99/99 100/100/100 101/101/101 
f 102/102/102 103/103/103 104/104/104 
f 105/105/105 94/94/94 98/98/98 
f 106/106/106 107/107/107 108/108/108 
f 91/91/91 97/97/97 94/94/94 
f 109/109/109 110/110/110 111/111/111 
f 112/112/112 113/113/113 114/114/114 
f 115/115/115 116/116/116 117/117/117 
f 113/113/113 118/118/118 114/114/114 
f 119/119/119 120/120/120 121/121/121 
f 118/118/118 122/122/122 123/123/123 
f 124/124/124 122/122/122 125/125/125 
f 122/122/122 124/124/124 123/123/123 
f 126/126/126 127/127/127 128/128/128 
f 129/129/129 130/130/130 131/131/131 
f 117/117/117 132/132/132 115/115/115 
f 120/120/120 133/133/133 121/121/121 
f 117/117/117 116/116/116 134/134/134 
f 135/135/135 128/128/128 127/127/127 
f 131/131/131 136/136/136 129/129/129 
f 137/137/137 138/138/138 139/139/139 
f 140/140/140 111/111/111 141/141/141 
f 142/142/142 137/137/137 143/143/143 
f 111/111/111 144/144/144 109/109/109 
f 116/116/116 145/145/145 134/134/134 
f 146/146/146 147/147/147 148/148/148 
f 149/149/149 150/150/150 151/151/151 
f 152/152/152 153/153/153 154/154/154 
f 154/154/154 153/153/153 155/155/155 
f 156/156/156 157/157/157 158/158/158 
f 159/159/159 160/160/160 161/161/161 
f 162/162/162 156/156/156 163/163/163 
f 164/164/164 89/89/89 159/159/159 
f 89/89/89 164/164/164 88/88/88 
f 165/165/165 166/166/166 167/167/167 
f 164/164/164 168/168/168 88/88/88 
f 107/107/107 169/169/169 108/108/108 
f 170/170/170 171/171/171 172/172/172 
f 161/161/161 164/164/164 159/159/159 
f 173/173/173 174/174/174 174/174/174 
f 170/170/170 172/172/172 175/175/175 
f 176/176/176 177/177/177 178/178/178 
f 163/163/163 179/179/179 162/162/162 
f 180/180/180 181/181/181 182/182/182 
f 181/181/181 180/180/180 162/162/162 
f 183/183/183 184/184/184 185/185/185 
f 162/162/162 179/179/179 181/181/181 
f 171/171/171 186/186/186 172/172/172 
f 143/143/143 187/187/187 188/188/188 
f 187/187/187 143/143/143 189/189/189 
f 143/143/143 137/137/137 139/139/139 
f 190/190/190 191/191/191 192/192/192 
f 191/191/191 190/190/190 143/143/143 
f 190/190/190 142/142/142 143/143/143 
f 193/193/193 172/172/172 186/186/186 
f 185/185/185 194/194/194 183/183/183 
f 195/195/195 196/196/196 197/197/197 
f 198/198/198 190/190/190 192/192/192 
f 199/199/199 200/200/200 201/201/201 
f 202/202/202 203/203/203 204/204/204 
f 205/205/205 178/178/178 177/177/177 
f 206/206/206 207/207/207 75/75/75 
f 208/208/208 195/195/195 209/209/209 
f 197/197/197 209/209/209 195/195/195 
f 128/128/128 65/65/65 66/66/66 
f 206/206/206 75/75/75 210/210/210 
f 106/106/106 108/108/108 211/211/211 
f 212/212/212 165/165/165 151/151/151 
f 184/184/184 213/213/213 185/185/185 
f 214/214/214 215/215/215 216/216/216 
f 217/217/217 106/106/106 211/211/211 
f 218/218/218 199/199/199 219/219/219 
f 220/220/220 221/221/221 222/222/222 
f 223/223/223 224/224/224 225/225/225 
f 221/221/221 226/226/226 222/222/222 
f 196/196/196 227/227/227 103/103/103 
f 128/128/128 66/66/66 126/126/126 
f 103/103/103 227/227/227 104/104/104 
f 101/101/101 228/228/228 99/99/99 
f 150/150/150 229/229/229 151/151/151 
f 225/225/225 229/229/229 223/223/223 
f 229/229/229 225/225/225 151/151/151 
f 230/230/230 219/219/219 199/199/199 
f 149/149/149 151/151/151 231/231/231 
f 213/213/213 232/232/232 185/185/185 
f 99/99/99 228/228/228 233/233/233 
f 201/201/201 230/230/230 199/199/199 
f 234/234/234 210/210/210 77/77/77 
f 216/216/216 235/235/235 214/214/214 
f 236/236/236 99/99/99 233/233/233 
f 237/237/237 4/4/4 238/238/238 
f 82/82/82 84/84/84 239/239/239 
f 240/240/240 241/241/241 242/242/242 
f 241/241/241 240/240/240 243/243/243 
f 233/233/233 244/244/244 236/236/236 
f 240/240/240 245/245/245 243/243/243 
f 242/242/242 246/246/246 247/247/247 
f 246/246/246 242/242/242 241/241/241 
f 248/248/248 249/249/249 24/24/24 
f 148/148/148 250/250/250 146/146/146 
f 251/251/251 66/66/66 43/43/43 
f 244/244/244 252/252/252 236/236/236 
f 249/249/249 37/37/37 24/24/24 
f 66/66/66 38/38/38 43/43/43 
f 103/103/103 253/253/253 197/197/197 
f 48/48/48 254/254/254 49/49/49 
f 156/156/156 158/158/158 255/255/255 
f 256/256/256 257/257/257 258/258/258 
f 203/203/203 259/259/259 204/204/204 
f 260/260/260 156/156/156 255/255/255 
f 261/261/261 262/262/262 263/263/263 
f 177/177/177 177/177/177 205/205/205 
f 263/263/263 263/263/263 261/261/261 
f 264/264/264 265/265/265 266/266/266 
f 267/267/267 268/268/268 269/269/269 
f 270/270/270 271/271/271 272/272/272 
f 271/271/271 270/270/270 273/273/273 
f 274/274/274 275/275/275 276/276/276 
f 277/277/277 278/278/278 272/272/272 
f 279/279/279 280/280/280 281/281/281 
f 282/282/282 283/283/283 269/269/269 
f 272/272/272 271/271/271 277/277/277 
f 284/284/284 274/274/274 276/276/276 
f 280/280/280 285/285/285 281/281/281 
f 286/286/286 287/287/287 263/263/263 
f 283/283/283 288/288/288 269/269/269 
f 269/269/269 288/288/288 267/267/267 
f 284/284/284 276/276/276 205/205/205 
f 262/262/262 286/286/286 263/263/263 
f 177/177/177 284/284/284 205/205/205 
f 289/289/289 290/290/290 291/291/291 
f 292/292/292 293/293/293 294/294/294 
f 295/295/295 296/296/296 297/297/297 
f 298/298/298 299/299/299 300/300/300 
f 301/301/301 292/292/292 294/294/294 
f 257/257/257 302/302/302 258/258/258 
f 303/303/303 304/304/304 305/305/305 
f 295/295/295 297/297/297 306/306/306 
f 307/307/307 308/308/308 309/309/309 
f 310/310/310 311/311/311 312/312/312 
f 313/313/313 314/314/314 315/315/315 
f 313/313/313 315/315/315 313/313/313 
f 316/316/316 307/307/307 309/309/309 
f 317/317/317 318/318/318 319/319/319 
f 320/320/320 321/321/321 322/322/322 
f 69/69/69 71/71/71 80/80/80 
f 323/323/323 80/80/80 71/71/71 
f 324/324/324 277/277/277 271/271/271 
f 325/325/325 326/326/326 327/327/327 
f 328/328/328 322/322/322 321/321/321 
f 329/329/329 330/330/330 331/331/331 
f 327/327/327 326/326/326 332/332/332 
f 333/333/333 334/334/334 335/335/335 
f 54/54/54 336/336/336 55/55/55 
f 336/336/336 54/54/54 59/59/59 
f 337/337/337 85/85/85 87/87/87 
f 123/123/123 114/114/114 118/118/118 
f 155/155/155 153/153/153 338/338/338 
f 165/165/165 167/167/167 151/151/151 
f 339/339/339 340/340/340 341/341/341 
f 342/342/342 343/343/343 344/344/344 
f 336/336/336 345/345/345 55/55/55 
f 344/344/344 346/346/346 342/342/342 
f 342/342/342 346/346/346 347/347/347 
f 12/12/12 348/348/348 238/238/238 
f 341/341/341 340/340/340 349/349/349 
f 12/12/12 350/350/350 351/351/351 
f 350/350/350 12/12/12 10/10/10 
f 238/238/238 4/4/4 12/12/12 
f 352/352/352 353/353/353 354/354/354 
f 355/355/355 356/356/356 357/357/357 
f 358/358/358 359/359/359 360/360/360 
f 358/358/358 360/360/360 361/361/361 
f 362/362/362 363/363/363 364/364/364 
f 363/363/363 362/362/362 365/365/365 
f 337/337/337 87/87/87 366/366/366 
f 352/352/352 367/367/367 368/368/368 
f 367/367/367 352/352/352 369/369/369 
f 370/370/370 371/371/371 372/372/372 
f 373/373/373 362/362/362 374/374/374 
f 354/354/354 369/369/369 352/352/352 
f 375/375/375 376/376/376 377/377/377 
f 374/374/374 362/362/362 364/364/364 
f 377/377/377 243/243/243 375/375/375 
f 375/375/375 243/243/243 378/378/378 
f 379/379/379 380/380/380 381/381/381 
f 382/382/382 383/383/383 384/384/384 
f 348/348/348 385/385/385 238/238/238 
f 238/238/238 385/385/385 386/386/386 
f 387/387/387 370/370/370 372/372/372 
f 356/356/356 388/388/388 357/357/357 
f 389/389/389 390/390/390 391/391/391 
f 91/91/91 95/95/95 92/92/92 
f 392/392/392 393/393/393 394/394/394 
f 395/395/395 95/95/95 396/396/396 
f 95/95/95 93/93/93 396/396/396 
f 397/397/397 398/398/398 361/361/361 
f 110/110/110 141/141/141 111/111/111 
f 399/399/399 400/400/400 401/401/401 
f 402/402/402 403/403/403 149/149/149 
f 404/404/404 405/405/405 391/391/391 
f 401/401/401 406/406/406 399/399/399 
f 149/149/149 231/231/231 402/402/402 
f 407/407/407 389/389/389 391/391/391 
f 360/360/360 397/397/397 361/361/361 
f 408/408/408 402/402/402 231/231/231 
f 404/404/404 391/391/391 390/390/390 
f 409/409/409 410/410/410 411/411/411 
f 139/139/139 189/189/189 143/143/143 
f 412/412/412 413/413/413 414/414/414 
f 174/174/174 415/415/415 416/416/416 
f 417/417/417 418/418/418 419/419/419 
f 151/151/151 167/167/167 231/231/231 
f 414/414/414 420/420/420 412/412/412 
f 421/421/421 422/422/422 423/423/423 
f 424/424/424 425/425/425 426/426/426 
f 427/427/427 421/421/421 423/423/423 
f 414/414/414 413/413/413 428/428/428 
f 393/393/393 429/429/429 430/430/430 
f 431/431/431 432/432/432 433/433/433 
f 434/434/434 414/414/414 428/428/428 
f 430/430/430 394/394/394 393/393/393 
f 231/231/231 435/435/435 408/408/408 
f 394/394/394 436/436/436 392/392/392 
f 437/437/437 438/438/438 418/418/418 
f 419/419/419 418/418/418 439/439/439 
f 425/425/425 175/175/175 172/172/172 
f 440/440/440 417/417/417 419/419/419 
f 441/441/441 158/158/158 157/157/157 
f 426/426/426 425/425/425 172/172/172 
f 12/12/12 4/4/4 6/6/6 
f 442/442/442 399/399/399 443/443/443 
f 406/406/406 443/443/443 399/399/399 
f 245/245/245 378/378/378 243/243/243 
f 305/305/305 444/444/444 303/303/303 
f 445/445/445 446/446/446 447/447/447 
f 291/291/291 448/448/448 289/289/289 
f 299/299/299 449/449/449 300/300/300 
f 447/447/447 450/450/450 445/445/445 
f 379/379/379 381/381/381 451/451/451 
f 452/452/452 409/409/409 411/411/411 
f 396/396/396 453/453/453 454/454/454 
f 454/454/454 395/395/395 396/396/396 
f 455/455/455 456/456/456 457/457/457 
f 383/383/383 458/458/458 384/384/384 
f 459/459/459 433/433/433 460/460/460 
f 433/433/433 459/459/459 431/431/431 
f 419/419/419 461/461/461 440/440/440 
f 462/462/462 427/427/427 463/463/463 
f 265/265/265 464/464/464 266/266/266 
f 465/465/465 440/440/440 466/466/466 
f 466/466/466 440/440/440 461/461/461 
f 467/467/467 468/468/468 469/469/469 
f 468/468/468 467/467/467 470/470/470 
f 471/471/471 457/457/457 472/472/472 
f 457/457/457 471/471/471 473/473/473 
f 474/474/474 475/475/475 476/476/476 
f 273/273/273 477/477/477 472/472/472 
f 478/478/478 479/479/479 480/480/480 
f 477/477/477 471/471/471 472/472/472 
f 470/470/470 481/481/481 468/468/468 
f 482/482/482 459/459/459 460/460/460 
f 483/483/483 478/478/478 480/480/480 
f 484/484/484 266/266/266 464/464/464 
f 485/485/485 486/486/486 487/487/487 
f 484/484/484 464/464/464 488/488/488 
f 489/489/489 474/474/474 476/476/476 
f 479/479/479 490/490/490 480/480/480 
f 480/480/480 490/490/490 491/491/491 
f 492/492/492 480/480/480 491/491/491 
f 488/488/488 493/493/493 484/484/484 
f 487/487/487 494/494/494 485/485/485 
f 495/495/495 496/496/496 497/497/497 
f 498/498/498 499/499/499 500/500/500 
f 501/501/501 502/502/502 503/503/503 
f 504/504/504 505/505/505 506/506/506 
f 500/500/500 507/507/507 498/498/498 
f 508/508/508 509/509/509 510/510/510 
f 472/472/472 457/457/457 511/511/511 
f 512/512/512 495/495/495 497/497/497 
f 513/513/513 514/514/514 515/515/515 
f 503/503/503 516/516/516 501/501/501 
f 517/517/517 504/504/504 506/506/506 
f 518/518/518 513/513/513 515/515/515 
f 510/510/510 519/519/519 508/508/508 
f 520/520/520 521/521/521 522/522/522 
f 521/521/521 520/520/520 523/523/523 
f 524/524/524 525/525/525 526/526/526 
f 527/527/527 528/528/528 529/529/529 
f 523/523/523 530/530/530 521/521/521 
f 531/531/531 532/532/532 533/533/533 
f 530/530/530 534/534/534 521/521/521 
f 535/535/535 536/536/536 537/537/537 
f 534/534/534 538/538/538 521/521/521 
f 539/539/539 540/540/540 541/541/541 
f 542/542/542 543/543/543 544/544/544 
f 521/521/521 545/545/545 522/522/522 
f 546/546/546 547/547/547 548/548/548 
f 549/549/549 550/550/550 551/551/551 
f 552/552/552 553/553/553 554/554/554 
f 555/555/555 556/556/556 557/557/557 
f 558/558/558 552/552/552 554/554/554 
f 559/559/559 331/331/331 330/330/330 
f 560/560/560 561/561/561 562/562/562 
f 472/472/472 563/563/563 564/564/564 
f 347/347/347 565/565/565 342/342/342 
f 340/340/340 566/566/566 349/349/349 
f 567/567/567 336/336/336 568/568/568 
f 456/456/456 511/511/511 457/457/457 
f 317/317/317 319/319/319 569/569/569 
f 570/570/570 571/571/571 572/572/572 
f 571/571/571 570/570/570 573/573/573 
f 574/574/574 575/575/575 576/576/576 
f 472/472/472 564/564/564 271/271/271 
f 577/577/577 578/578/578 579/579/579 
f 578/578/578 577/577/577 580/580/580 
f 581/581/581 555/555/555 582/582/582 
f 583/583/583 557/557/557 584/584/584 
f 557/557/557 583/583/583 555/555/555 
f 585/585/585 586/586/586 587/587/587 
f 583/583/583 588/588/588 555/555/555 
f 589/589/589 588/588/588 590/590/590 
f 588/588/588 589/589/589 555/555/555 
f 591/591/591 592/592/592 593/593/593 
f 589/589/589 582/582/582 555/555/555 
f 581/581/581 582/582/582 594/594/594 
f 595/595/595 596/596/596 597/597/597 
f 598/598/598 599/599/599 532/532/532 
f 600/600/600 589/589/589 590/590/590 
f 601/601/601 602/602/602 603/603/603 
f 604/604/604 605/605/605 606/606/606 
f 607/607/607 608/608/608 609/609/609 
f 587/587/587 610/610/610 585/585/585 
f 611/611/611 612/612/612 613/613/613 
f 614/614/614 615/615/615 580/580/580 
f 593/593/593 616/616/616 591/591/591 
f 617/617/617 598/598/598 532/532/532 
f 336/336/336 59/59/59 568/568/568 
f 618/618/618 578/578/578 615/615/615 
f 603/603/603 619/619/619 601/601/601 
f 601/601/601 524/524/524 526/526/526 
f 524/524/524 601/601/601 619/619/619 
f 532/532/532 599/599/599 533/533/533 
f 617/617/617 532/532/532 620/620/620 
f 618/618/618 615/615/615 621/621/621 
f 622/622/622 614/614/614 580/580/580 
f 609/609/609 623/623/623 624/624/624 
f 609/609/609 624/624/624 607/607/607 
f 597/597/597 625/625/625 626/626/626 
f 625/625/625 597/597/597 596/596/596 
f 605/605/605 626/626/626 606/606/606 
f 627/627/627 626/626/626 625/625/625 
f 626/626/626 627/627/627 606/606/606 
f 551/551/551 628/628/628 549/549/549 
f 627/627/627 629/629/629 630/630/630 
f 631/631/631 607/607/607 624/624/624 
f 632/632/632 630/630/630 629/629/629 
f 627/627/627 630/630/630 606/606/606 
f 537/537/537 633/633/633 535/535/535 
f 634/634/634 541/541/541 540/540/540 
f 635/635/635 574/574/574 576/576/576 
f 547/547/547 636/636/636 548/548/548 
f 637/637/637 527/527/527 529/529/529 
f 544/544/544 543/543/543 638/638/638 
f 638/638/638 543/543/543 639/639/639 
f 326/326/326 577/577/577 579/579/579 
f 640/640/640 641/641/641 642/642/642 
f 326/326/326 579/579/579 643/643/643 
f 644/644/644 634/634/634 540/540/540 
f 634/634/634 644/644/644 645/645/645 
f 646/646/646 647/647/647 648/648/648 
f 649/649/649 650/650/650 651/651/651 
f 647/647/647 652/652/652 648/648/648 
f 653/653/653 535/535/535 633/633/633 
f 654/654/654 649/649/649 651/651/651 
f 655/655/655 656/656/656 657/657/657 
f 658/658/658 659/659/659 648/648/648 
f 652/652/652 658/658/658 648/648/648 
f 656/656/656 653/653/653 660/660/660 
f 644/644/644 655/655/655 661/661/661 
f 662/662/662 663/663/663 664/664/664 
f 663/663/663 662/662/662 665/665/665 
f 657/657/657 666/666/666 655/655/655 
f 667/667/667 664/664/664 663/663/663 
f 660/660/660 657/657/657 656/656/656 
f 666/666/666 661/661/661 655/655/655 
f 668/668/668 669/669/669 670/670/670 
f 665/665/665 671/671/671 663/663/663 
f 672/672/672 673/673/673 674/674/674 
f 644/644/644 661/661/661 645/645/645 
f 660/660/660 653/653/653 675/675/675 
f 661/661/661 676/676/676 645/645/645 
f 677/677/677 672/672/672 674/674/674 
f 678/678/678 679/679/679 613/613/613 
f 643/643/643 680/680/680 332/332/332 
f 681/681/681 682/682/682 312/312/312 
f 313/313/313 683/683/683 313/313/313 
f 312/312/312 684/684/684 310/310/310 
f 685/685/685 686/686/686 687/687/687 
f 271/271/271 273/273/273 472/472/472 
f 313/313/313 315/315/315 688/688/688 
f 332/332/332 680/680/680 327/327/327 
f 689/689/689 315/315/315 690/690/690 
f 315/315/315 689/689/689 688/688/688 
f 688/688/688 689/689/689 691/691/691 
f 692/692/692 693/693/693 694/694/694 
f 690/690/690 315/315/315 695/695/695 
f 696/696/696 697/697/697 698/698/698 
f 699/699/699 700/700/700 701/701/701 
f 702/702/702 703/703/703 704/704/704 
f 705/705/705 706/706/706 707/707/707 
f 708/708/708 702/702/702 704/704/704 
f 701/701/701 709/709/709 710/710/710 
f 689/689/689 711/711/711 691/691/691 
f 712/712/712 713/713/713 714/714/714 
f 715/715/715 716/716/716 717/717/717 
f 718/718/718 719/719/719 720/720/720 
f 695/695/695 721/721/721 690/690/690 
f 722/722/722 723/723/723 724/724/724 
f 693/693/693 725/725/725 694/694/694 
f 726/726/726 727/727/727 623/623/623 
f 728/728/728 729/729/729 325/325/325 
f 698/698/698 730/730/730 696/696/696 
f 728/728/728 327/327/327 731/731/731 
f 327/327/327 728/728/728 325/325/325 
f 731/731/731 732/732/732 728/728/728 
f 733/733/733 724/724/724 734/734/734 
f 734/734/734 724/724/724 735/735/735 
f 701/701/701 700/700/700 736/736/736 
f 728/728/728 732/732/732 737/737/737 
f 729/729/729 622/622/622 325/325/325 
f 580/580/580 325/325/325 622/622/622 
f 738/738/738 734/734/734 735/735/735 
f 705/705/705 739/739/739 740/740/740 
f 739/739/739 705/705/705 707/707/707 
f 739/739/739 741/741/741 740/740/740 
f 741/741/741 739/739/739 742/742/742 
f 700/700/700 743/743/743 736/736/736 
f 744/744/744 745/745/745 675/675/675 
f 676/676/676 746/746/746 747/747/747 
f 713/713/713 748/748/748 714/714/714 
f 714/714/714 749/749/749 685/685/685 
f 749/749/749 714/714/714 748/748/748 
f 720/720/720 719/719/719 749/749/749 
f 750/750/750 715/715/715 717/717/717 
f 720/720/720 749/749/749 748/748/748 
f 675/675/675 751/751/751 744/744/744 
f 752/752/752 335/335/335 334/334/334 
f 687/687/687 714/714/714 685/685/685 
f 747/747/747 645/645/645 676/676/676 
f 745/745/745 660/660/660 675/675/675 
f 753/753/753 754/754/754 755/755/755 
f 669/669/669 756/756/756 670/670/670 
f 757/757/757 755/755/755 754/754/754 
f 52/52/52 51/51/51 57/57/57 
f 30/30/30 32/32/32 45/45/45 
f 758/758/758 324/324/324 271/271/271 
f 103/103/103 197/197/197 196/196/196 
f 77/77/77 210/210/210 75/75/75 
f 173/173/173 174/174/174 416/416/416 
f 182/182/182 181/181/181 759/759/759 
f 760/760/760 485/485/485 494/494/494 
f 641/641/641 761/761/761 642/642/642 
f 332/332/332 326/326/326 643/643/643 
f 686/686/686 762/762/762 687/687/687 
f 418/418/418 438/438/438 439/439/439 
f 423/423/423 463/463/463 427/427/427 
f 521/521/521 538/538/538 763/763/763 
f 562/562/562 561/561/561 764/764/764 
f 580/580/580 615/615/615 578/578/578 
f 611/611/611 613/613/613 679/679/679 
f 611/611/611 679/679/679 682/682/682 
f 633/633/633 675/675/675 653/653/653 
f 739/739/739 765/765/765 742/742/742 
f 737/737/737 766/766/766 728/728/728 

