# This file is brought to you by Roblox Corporation
# Generated by Roblox Studio

mtllib Chicken.mtl

g Wing21

v 371.038 3.3375 211.825 
v 371.038 3.3375 209.575 
v 371.038 2.4625 211.825 
v 371.038 2.4625 209.575 
v 371.163 3.3375 209.575 
v 371.038 3.3375 209.575 
v 371.163 3.3375 211.825 
v 371.038 3.3375 211.825 
v 371.038 3.3375 209.575 
v 371.163 3.3375 209.575 
v 371.038 2.4625 209.575 
v 371.163 2.4625 209.575 
v 371.163 3.3375 209.575 
v 371.163 3.3375 211.825 
v 371.163 2.4625 209.575 
v 371.163 2.4625 211.825 
v 371.163 2.4625 211.825 
v 371.038 2.4625 211.825 
v 371.163 2.4625 209.575 
v 371.038 2.4625 209.575 
v 371.163 3.3375 211.825 
v 371.038 3.3375 211.825 
v 371.163 2.4625 211.825 
v 371.038 2.4625 211.825 

vn -1 0 0 
vn -1 0 0 
vn -1 0 0 
vn -1 0 0 
vn 0 1 0 
vn 0 1 0 
vn 0 1 0 
vn 0 1 0 
vn 0 0 -1 
vn 0 0 -1 
vn 0 0 -1 
vn 0 0 -1 
vn 1 0 0 
vn 1 0 0 
vn 1 0 0 
vn 1 0 0 
vn 0 -1 0 
vn 0 -1 0 
vn 0 -1 0 
vn 0 -1 0 
vn 0 0 1 
vn 0 0 1 
vn 0 0 1 
vn 0 0 1 

vt 4.28125 -5.75 
vt 4 -5.75 
vt 4.28125 -5.85938 
vt 4 -5.85938 
vt 4.01562 -5.75 
vt 4 -5.75 
vt 4.01562 -6.03125 
vt 4 -6.03125 
vt 4.01562 -5.75 
vt 4 -5.75 
vt 4.01562 -5.85938 
vt 4 -5.85938 
vt 4.28125 -5.75 
vt 4 -5.75 
vt 4.28125 -5.85938 
vt 4 -5.85938 
vt 4.01562 -5.75 
vt 4 -5.75 
vt 4.01562 -6.03125 
vt 4 -6.03125 
vt 4.01562 -5.75 
vt 4 -5.75 
vt 4.01562 -5.85938 
vt 4 -5.85938 

usemtl Wing21Mtl

f 1/1/1 2/2/2 3/3/3 
f 3/3/3 2/2/2 4/4/4 
f 5/5/5 6/6/6 7/7/7 
f 7/7/7 6/6/6 8/8/8 
f 9/9/9 10/10/10 11/11/11 
f 11/11/11 10/10/10 12/12/12 
f 13/13/13 14/14/14 15/15/15 
f 15/15/15 14/14/14 16/16/16 
f 17/17/17 18/18/18 19/19/19 
f 19/19/19 18/18/18 20/20/20 
f 21/21/21 22/22/22 23/23/23 
f 23/23/23 22/22/22 24/24/24 

g Chiken1

v 371 1.96209 208.913 
v 371 1.96208 211.913 
v 369 1.96209 208.913 
v 371 1.96208 211.913 
v 371 1.96209 208.913 
v 371 3.46209 208.913 
v 371 3.46209 208.913 
v 371 1.96209 208.913 
v 370.875 2.68175 208.913 
v 371 3.46208 211.913 
v 371 3.46209 208.913 
v 370.875 3.46208 209.193 
v 371 3.46208 211.913 
v 369 3.46209 208.913 
v 369 3.46208 211.913 
v 369.125 3.46208 209.193 
v 369 3.46208 211.913 
v 369 3.46209 208.913 
v 369 1.96208 211.913 
v 369 1.96209 208.913 
v 369 3.46209 208.913 
v 369.125 2.68175 208.913 
v 369 1.96209 208.913 
v 369.125 3.46208 208.913 
v 369.125 3.50758 208.087 
v 369.125 2.68175 208.913 
v 369.125 4.03791 208.617 
v 369.125 4.03791 208.617 
v 369.125 3.46208 209.193 
v 370.875 4.03791 208.617 
v 369.125 3.46208 209.193 
v 369.125 2.68175 208.913 
v 369.125 3.50758 208.087 
v 370.875 3.50758 208.087 
v 369.125 3.46208 208.913 
v 369.125 3.46208 208.913 
v 369 1.96208 211.913 
v 370.875 3.46208 209.193 
v 370.875 4.03791 208.617 
v 370.875 3.46208 209.193 
v 370.875 3.46208 208.913 
v 369.125 4.03791 208.617 
v 370.875 4.03791 208.617 
v 370.875 3.50758 208.087 
v 369.125 3.50758 208.087 
v 370.875 3.50758 208.087 
v 370.875 3.46208 208.913 
v 370.875 2.68175 208.913 
v 370.875 2.68175 208.913 
v 370.875 3.46208 208.913 
v 371 3.46208 211.913 
v 369 3.46208 211.913 
v 371 1.96208 211.913 
v 369 1.96208 211.913 

vn 0 -1 0 
vn 0 -1 0 
vn 0 -1 0 
vn 1 0 0 
vn 1 0 0 
vn 1 0 0 
vn 0 0 -1 
vn 0 0 -1 
vn 0 0 -1 
vn 0 1 0 
vn 0 1 0 
vn 0 1 0 
vn 1 0 0 
vn 0 1 0 
vn 0 1 0 
vn 0 1 0 
vn -1 0 0 
vn -1 0 0 
vn -1 0 0 
vn 0 0 -1 
vn 0 0 -1 
vn 0 0 -1 
vn -1 0 0 
vn -1 0 0 
vn -1 0 0 
vn -1 0 0 
vn -1 0 0 
vn 0 0.708661 0.708661 
vn 0 0.708661 0.708661 
vn 0 0.708661 0.708661 
vn -1 0 0 
vn 0 -0.708661 -0.708661 
vn 0 -0.708661 -0.708661 
vn 0 -0.708661 -0.708661 
vn 0 0 -1 
vn 0 1 0 
vn 0 -1 0 
vn 0 0.708661 0.708661 
vn 1 0 0 
vn 1 0 0 
vn 1 0 0 
vn 0 0.708661 -0.708661 
vn 0 0.708661 -0.708661 
vn 0 0.708661 -0.708661 
vn 0 0.708661 -0.708661 
vn 1 0 0 
vn 0 1 0 
vn 0 -0.708661 -0.708661 
vn 1 0 0 
vn 0 0 -1 
vn 0 0 1 
vn 0 0 1 
vn 0 0 1 
vn 0 0 1 

vt 23.5208 -28.0417 
vt 23.5208 -28.4167 
vt 23.7708 -28.0417 
vt 26.5833 -26.7547 
vt 26.9583 -26.7547 
vt 26.9583 -26.5672 
vt 23.5208 -26.5672 
vt 23.5208 -26.7547 
vt 23.5365 -26.6648 
vt 32.4792 -28.4167 
vt 32.4792 -28.0417 
vt 32.4635 -28.0767 
vt 26.5833 -26.5672 
vt 32.2292 -28.0417 
vt 32.2292 -28.4167 
vt 32.2448 -28.0767 
vt 29.4167 -26.5672 
vt 29.0417 -26.5672 
vt 29.4167 -26.7547 
vt 23.7708 -26.7547 
vt 23.7708 -26.5672 
vt 23.7552 -26.6648 
vt 29.0417 -26.7547 
vt 29.0417 -26.5672 
vt 28.9384 -26.5616 
vt 29.0417 -26.6648 
vt 29.0047 -26.4953 
vt 32.2448 -26.4953 
vt 32.2448 -26.5672 
vt 32.4635 -26.4953 
vt 29.0767 -26.5672 
vt 23.7552 -26.6648 
vt 23.7552 -26.5616 
vt 23.5365 -26.5616 
vt 23.7552 -26.5672 
vt 32.2448 -28.0417 
vt 23.7708 -28.4167 
vt 32.4635 -26.5672 
vt 26.9953 -26.4953 
vt 26.9233 -26.5672 
vt 26.9583 -26.5672 
vt 23.7552 -26.4953 
vt 23.5365 -26.4953 
vt 23.5365 -26.5616 
vt 23.7552 -26.5616 
vt 27.0616 -26.5616 
vt 32.4635 -28.0417 
vt 23.5365 -26.6648 
vt 26.9583 -26.6648 
vt 23.5365 -26.5672 
vt 32.4792 -26.5672 
vt 32.2292 -26.5672 
vt 32.4792 -26.7547 
vt 32.2292 -26.7547 

usemtl Chiken1Mtl

f 25/25/25 26/26/26 27/27/27 
f 28/28/28 29/29/29 30/30/30 
f 31/31/31 32/32/32 33/33/33 
f 34/34/34 35/35/35 36/36/36 
f 30/30/30 37/37/37 28/28/28 
f 38/38/38 39/39/39 40/40/40 
f 41/41/41 42/42/42 43/43/43 
f 44/44/44 45/45/45 46/46/46 
f 42/42/42 47/47/47 43/43/43 
f 48/48/48 49/49/49 50/50/50 
f 49/49/49 48/48/48 51/51/51 
f 52/52/52 53/53/53 54/54/54 
f 55/55/55 51/51/51 48/48/48 
f 56/56/56 57/57/57 58/58/58 
f 39/39/39 36/36/36 40/40/40 
f 36/36/36 39/39/39 34/34/34 
f 45/45/45 59/59/59 46/46/46 
f 60/60/60 38/38/38 40/40/40 
f 61/61/61 27/27/27 26/26/26 
f 53/53/53 62/62/62 54/54/54 
f 63/63/63 64/64/64 65/65/65 
f 66/66/66 67/67/67 68/68/68 
f 68/68/68 69/69/69 66/66/66 
f 70/70/70 63/63/63 65/65/65 
f 71/71/71 36/36/36 35/35/35 
f 58/58/58 72/72/72 56/56/56 
f 73/73/73 70/70/70 65/65/65 
f 74/74/74 31/31/31 33/33/33 
f 33/33/33 32/32/32 44/44/44 
f 46/46/46 33/33/33 44/44/44 
f 75/75/75 76/76/76 77/77/77 
f 77/77/77 76/76/76 78/78/78 

g Chiken2

v 369.25 4.75 212.75 
v 370.75 4.75 212.75 
v 370.75 4.75 211.375 
v 370.75 4.75 212.75 
v 369.25 4.75 212.75 
v 370.75 4.75 212.75 
v 370.75 4.75 212.75 
v 369.25 4.75 212.75 
v 370.75 4.75 212.875 
v 369.25 4.75 212.75 
v 370.75 4.25 212.75 
v 370.75 4.5 212.75 
v 370.75 4.25 212.875 
v 370.75 4.5 212.75 
v 370.75 4.25 212.75 
v 370.75 4.25 212.75 
v 370.75 4.25 212.875 
v 370.75 4.75 211.375 
v 370.75 4.5 212.75 
v 370.75 4.5 212.875 
v 369.25 3.25 212.75 
v 370.75 3.25 212.75 
v 369.875 3.25 212.875 
v 370.75 3.25 212.75 
v 369.25 3.25 212.75 
v 369.25 3.25 212.75 
v 369.25 3.25 212.75 
v 369.25 3.25 212.875 
v 369.25 3.25 212.75 
v 369.25 3.25 212.75 
v 370.75 3.25 211.375 
v 369.25 4.25 212.75 
v 369.25 4.5 212.75 
v 369.25 4.75 211.375 
v 369.25 4.5 212.75 
v 369.25 4.25 212.75 
v 369.25 4.25 212.75 
v 369.25 4.25 212.875 
v 369.25 4.5 212.875 
v 369.25 4.5 212.75 
v 369.25 4.5 212.875 
v 369.25 3.25 211.375 
v 369.25 3.25 211.375 
v 369.25 4.25 212.875 
v 370.75 3.25 211.375 
v 369.25 3.25 211.375 
v 370.75 4.75 211.375 
v 370.75 3.25 212.75 
v 370.75 3.25 211.375 
v 370.75 3.625 212.875 
v 370.75 4.75 212.75 
v 369.25 4.75 211.375 
v 369.25 4.75 211.375 
v 370.75 4.75 212.75 
v 370.75 4.5 212.875 
v 369.25 4.75 212.75 
v 369.25 4.75 212.75 
v 369.25 4.75 212.875 
v 369.25 4.5 212.875 
v 369.25 4.25 212.875 
v 369.25 4.75 212.875 
v 369.5 4.5 212.875 
v 369.5 4.25 212.875 
v 369.25 3.25 212.875 
v 369.5 4.5 212.875 
v 369.5 4.25 212.875 
v 369.75 4.5 212.875 
v 369.75 4.5 212.875 
v 369.75 4.25 212.875 
v 370.25 4.5 212.875 
v 369.75 4.25 212.875 
v 369.875 3.625 212.875 
v 370.75 4.75 212.875 
v 370.125 3.625 212.875 
v 370.25 4.25 212.875 
v 370.25 4.5 212.875 
v 370.25 4.25 212.875 
v 370.5 4.5 212.875 
v 370.75 4.5 212.875 
v 369.25 4.75 212.875 
v 370.5 4.5 212.875 
v 370.75 4.75 212.875 
v 370.75 4.25 212.875 
v 370.75 3.625 212.875 
v 370.5 4.25 212.875 
v 370.5 4.25 212.875 
v 369.875 3.625 212.875 
v 369.875 3.25 212.875 
v 369.875 3.625 213.125 
v 369.875 3.625 212.875 
v 369.875 3.625 212.875 
v 369.875 3.625 212.875 
v 369.625 3.625 212.875 
v 369.875 3.625 212.875 
v 369.875 3.625 212.875 
v 370.125 3.625 212.875 
v 369.875 3.625 212.875 
v 369.875 3.25 212.875 
v 369.875 3.25 212.875 
v 370.125 3.25 212.875 
v 369.875 3.25 212.875 
v 369.875 3.625 213.125 
v 369.875 3.25 213.125 
v 370.125 3.25 213.125 
v 369.875 3.25 213.125 
v 369.875 3.625 212.875 
v 369.875 3.625 213.125 
v 369.625 3.625 212.875 
v 369.875 3.25 213.125 
v 369.625 3.875 212.875 
v 369.625 3.875 212.875 
v 369.625 3.625 212.875 
v 369.625 3.875 213.625 
v 369.625 3.625 213.625 
v 369.625 3.625 213.625 
v 369.25 3.25 212.875 
v 369.875 3.25 212.875 
v 370.375 3.875 212.875 
v 370.75 3.25 212.875 
v 369.875 3.25 212.875 
v 369.875 3.25 212.875 
v 369.875 3.25 212.875 
v 370.125 3.25 212.875 
v 370.375 3.625 213.625 
v 370.125 3.625 212.875 
v 370.125 3.625 212.875 
v 370.125 3.625 212.875 
v 370.125 3.625 212.875 
v 370.125 3.625 212.875 
v 370.375 3.875 213.625 
v 369.625 3.875 213.625 
v 369.625 3.625 213.625 
v 369.625 3.875 213.625 
v 370.375 3.875 213.625 
v 370.375 3.875 212.875 
v 370.375 3.875 212.875 
v 370.375 3.875 213.625 
v 370.375 3.625 213.625 
v 369.625 3.875 212.875 
v 370.375 3.625 212.875 
v 370.75 3.25 212.875 
v 370.75 3.625 212.875 
v 370.125 3.625 212.875 
v 370.375 3.625 213.625 
v 370.125 3.25 212.875 
v 370.125 3.25 213.125 
v 370.75 3.25 212.875 
v 370.125 3.625 212.875 
v 370.125 3.625 213.125 
v 370.125 3.625 213.125 
v 370.125 3.625 212.875 
v 370.375 3.625 212.875 
v 370.125 3.625 213.125 
v 370.125 3.25 213.125 
v 370.375 3.625 212.875 

vn 0 1 0 
vn 0 1 0 
vn 0 1 0 
vn 0 0 1 
vn 0 0 1 
vn 0 0 1 
vn 0 1 0 
vn 0 1 0 
vn 0 1 0 
vn 0 0 1 
vn 1 0 0 
vn 1 0 0 
vn 1 0 0 
vn 0 0 1 
vn 0 0 1 
vn 0 1 0 
vn 0 1 0 
vn 1 0 0 
vn 0 -1 0 
vn 0 -1 0 
vn 0 -1 0 
vn 0 -1 0 
vn 0 -1 0 
vn 0 0 -1 
vn 0 0 -1 
vn -1 0 0 
vn -1 0 0 
vn -1 0 0 
vn 0 0 -1 
vn 0 -1 0 
vn 0 -1 0 
vn -1 0 0 
vn -1 0 0 
vn -1 0 0 
vn 0 0 -1 
vn 0 0 -1 
vn 0 -1 0 
vn 0 -1 0 
vn -1 0 0 
vn 0 1 0 
vn 0 1 0 
vn 0 -1 0 
vn -1 0 0 
vn -1 0 0 
vn 0 0 -1 
vn 0 0 -1 
vn 0 0 -1 
vn 1 0 0 
vn 1 0 0 
vn 1 0 0 
vn 1 0 0 
vn 0 0 -1 
vn 0 1 0 
vn 1 0 0 
vn 1 0 0 
vn -1 0 0 
vn -1 0 0 
vn -1 0 0 
vn 0 0 1 
vn 0 0 1 
vn 0 0 1 
vn 0 0 1 
vn 0 0 1 
vn 0 0 1 
vn 0 0 1 
vn 0 0 1 
vn 0 0 1 
vn 0 0 1 
vn 0 0 1 
vn 0 0 1 
vn 0 0 1 
vn 0 0 1 
vn 0 0 1 
vn 0 0 1 
vn 0 0 1 
vn 0 0 1 
vn 0 0 1 
vn 0 0 1 
vn 0 0 1 
vn 0 1 0 
vn 0 0 1 
vn 1 0 0 
vn 0 0 1 
vn 0 0 1 
vn 0 0 1 
vn 0 0 1 
vn -1 0 0 
vn -1 0 0 
vn -1 0 0 
vn -1 0 0 
vn 0 0 -1 
vn 0 0 -1 
vn 0 0 -1 
vn 0 1 0 
vn 0 1 0 
vn 0 1 0 
vn -1 0 0 
vn 0 -1 0 
vn 0 -1 0 
vn 0 -1 0 
vn -1 0 0 
vn 0 0 1 
vn 0 0 1 
vn 0 0 1 
vn -1 0 0 
vn 0 -1 0 
vn 0 -1 0 
vn 0 -1 0 
vn 0 -1 0 
vn 0 0 -1 
vn -1 0 0 
vn -1 0 0 
vn -1 0 0 
vn 0 -1 0 
vn -1 0 0 
vn 0 -1 0 
vn 0 0 1 
vn 0 0 -1 
vn 0 -1 0 
vn 0 0 1 
vn 0 0 1 
vn 0 0 1 
vn 0 0 1 
vn 0 -1 0 
vn 0 0 -1 
vn 0 1 0 
vn 1 0 0 
vn 1 0 0 
vn 1 0 0 
vn 0 0 1 
vn 0 0 1 
vn 0 0 1 
vn 0 1 0 
vn 0 1 0 
vn 0 1 0 
vn 1 0 0 
vn 1 0 0 
vn 1 0 0 
vn 0 1 0 
vn 0 0 -1 
vn 1 0 0 
vn 0 0 1 
vn 0 0 1 
vn 0 0 1 
vn 1 0 0 
vn 1 0 0 
vn 0 0 1 
vn 0 0 -1 
vn 1 0 0 
vn 0 -1 0 
vn 0 -1 0 
vn 0 -1 0 
vn 0 0 1 
vn 0 -1 0 
vn 1 0 0 

vt 16.4427 -26.2023 
vt 16.6302 -26.2023 
vt 16.6302 -26.0304 
vt 16.6302 -21.967 
vt 16.4427 -21.967 
vt 16.6302 -21.967 
vt 16.6302 -26.2023 
vt 16.4427 -26.2023 
vt 16.6302 -26.2179 
vt 16.4427 -21.967 
vt 2.79774 -22.0295 
vt 2.79774 -21.9983 
vt 2.78212 -22.0295 
vt 16.6302 -21.9983 
vt 16.6302 -22.0295 
vt 16.6302 -26.2023 
vt 16.6302 -26.2179 
vt 2.96962 -21.967 
vt -4.63021 -26.2023 
vt -4.63021 -26.2179 
vt -4.44271 -26.2023 
vt -4.63021 -26.2023 
vt -4.52083 -26.2179 
vt -4.63021 -22.1545 
vt -4.44271 -22.1545 
vt 9.20226 -22.1545 
vt 9.20226 -22.1545 
vt 9.21788 -22.1545 
vt -4.44271 -22.1545 
vt -4.44271 -26.2023 
vt -4.63021 -26.0304 
vt 9.20226 -22.0295 
vt 9.20226 -21.9983 
vt 9.03038 -21.967 
vt -4.44271 -21.9983 
vt -4.44271 -22.0295 
vt -4.44271 -26.2023 
vt -4.44271 -26.2179 
vt 9.21788 -21.9983 
vt 16.4427 -26.2023 
vt 16.4427 -26.2179 
vt -4.44271 -26.0304 
vt 9.03038 -22.1545 
vt 9.21788 -22.0295 
vt -4.63021 -22.1545 
vt -4.44271 -22.1545 
vt -4.63021 -21.967 
vt 2.79774 -22.1545 
vt 2.96962 -22.1545 
vt 2.78212 -22.1076 
vt 2.79774 -21.967 
vt -4.44271 -21.967 
vt 16.4427 -26.0304 
vt 2.79774 -21.967 
vt 2.78212 -21.9983 
vt 9.20226 -21.967 
vt 9.20226 -21.967 
vt 9.21788 -21.967 
vt 16.4427 -21.9983 
vt 16.4427 -22.0295 
vt 16.4427 -21.967 
vt 16.474 -21.9983 
vt 16.474 -22.0295 
vt 16.4427 -22.1545 
vt 16.474 -21.9983 
vt 16.474 -22.0295 
vt 16.5052 -21.9983 
vt 16.5052 -21.9983 
vt 16.5052 -22.0295 
vt 16.5677 -21.9983 
vt 16.5052 -22.0295 
vt 16.5208 -22.1076 
vt 16.6302 -21.967 
vt 16.5521 -22.1076 
vt 16.5677 -22.0295 
vt 16.5677 -21.9983 
vt 16.5677 -22.0295 
vt 16.599 -21.9983 
vt 16.6302 -21.9983 
vt 16.4427 -26.2179 
vt 16.599 -21.9983 
vt 2.78212 -21.967 
vt 16.6302 -22.0295 
vt 16.6302 -22.1076 
vt 16.599 -22.0295 
vt 16.599 -22.0295 
vt 9.21788 -22.1076 
vt 9.21788 -22.1545 
vt 9.24913 -22.1076 
vt 9.21788 -22.1076 
vt -4.52083 -22.1076 
vt -4.52083 -22.1076 
vt -4.48958 -22.1076 
vt 16.5208 -26.2179 
vt 16.5208 -26.2179 
vt 16.5521 -26.2179 
vt 9.21788 -22.1076 
vt -4.52083 -26.2179 
vt -4.52083 -26.2179 
vt -4.55208 -26.2179 
vt 9.21788 -22.1545 
vt 16.5208 -22.1076 
vt 16.5208 -22.1545 
vt 16.5521 -22.1545 
vt 9.24913 -22.1545 
vt -4.52083 -26.2179 
vt -4.52083 -26.2491 
vt -4.48958 -26.2179 
vt -4.52083 -26.2491 
vt -4.48958 -22.0764 
vt 9.21788 -22.0764 
vt 9.21788 -22.1076 
vt 9.31163 -22.0764 
vt -4.48958 -26.3116 
vt 9.31163 -22.1076 
vt -4.44271 -26.2179 
vt 16.5208 -22.1545 
vt -4.58333 -22.0764 
vt -4.63021 -26.2179 
vt 16.5208 -22.1545 
vt 16.5208 -22.1545 
vt 16.5208 -22.1545 
vt 16.5521 -22.1545 
vt -4.58333 -26.3116 
vt -4.55208 -22.1076 
vt 16.5521 -26.2179 
vt 2.78212 -22.1076 
vt 2.78212 -22.1076 
vt 2.78212 -22.1076 
vt 16.5833 -22.0764 
vt 16.4896 -22.0764 
vt 16.4896 -22.1076 
vt 16.4896 -26.3116 
vt 16.5833 -26.3116 
vt 16.5833 -26.2179 
vt 2.78212 -22.0764 
vt 2.68837 -22.0764 
vt 2.68837 -22.1076 
vt 16.4896 -26.2179 
vt -4.58333 -22.1076 
vt 2.78212 -22.1545 
vt 16.6302 -22.1076 
vt 16.5521 -22.1076 
vt 16.5833 -22.1076 
vt 2.78212 -22.1545 
vt 2.75087 -22.1545 
vt 16.6302 -22.1545 
vt -4.55208 -22.1076 
vt 2.75087 -22.1076 
vt -4.55208 -26.2491 
vt -4.55208 -26.2179 
vt -4.58333 -26.2179 
vt 16.5521 -22.1076 
vt -4.55208 -26.2491 
vt 2.78212 -22.1076 

usemtl Chiken1Mtl

f 79/79/79 80/80/80 81/81/81 
f 82/82/82 83/83/83 84/84/84 
f 85/85/85 86/86/86 87/87/87 
f 88/88/88 84/84/84 83/83/83 
f 89/89/89 90/90/90 91/91/91 
f 92/92/92 93/93/93 93/93/93 
f 94/94/94 94/94/94 95/95/95 
f 90/90/90 89/89/89 96/96/96 
f 93/93/93 92/92/92 92/92/92 
f 97/97/97 97/97/97 98/98/98 
f 99/99/99 100/100/100 101/101/101 
f 102/102/102 103/103/103 102/102/102 
f 104/104/104 105/105/105 106/106/106 
f 103/103/103 107/107/107 102/102/102 
f 100/100/100 108/108/108 109/109/109 
f 110/110/110 111/111/111 112/112/112 
f 113/113/113 114/114/114 113/113/113 
f 115/115/115 115/115/115 116/116/116 
f 114/114/114 114/114/114 113/113/113 
f 111/111/111 110/110/110 117/117/117 
f 118/118/118 118/118/118 119/119/119 
f 108/108/108 120/120/120 109/109/109 
f 121/121/121 104/104/104 110/110/110 
f 110/110/110 104/104/104 122/122/122 
f 123/123/123 124/124/124 125/125/125 
f 126/126/126 127/127/127 89/89/89 
f 126/126/126 89/89/89 128/128/128 
f 96/96/96 129/129/129 90/90/90 
f 130/130/130 125/125/125 124/124/124 
f 81/81/81 131/131/131 79/79/79 
f 127/127/127 96/96/96 89/89/89 
f 112/112/112 121/121/121 110/110/110 
f 90/90/90 132/132/132 133/133/133 
f 132/132/132 90/90/90 129/129/129 
f 134/134/134 112/112/112 135/135/135 
f 135/135/135 111/111/111 136/136/136 
f 111/111/111 135/135/135 112/112/112 
f 137/137/137 138/138/138 138/138/138 
f 122/122/122 117/117/117 110/110/110 
f 118/118/118 119/119/119 119/119/119 
f 116/116/116 115/115/115 116/116/116 
f 137/137/137 137/137/137 138/138/138 
f 111/111/111 117/117/117 136/136/136 
f 139/139/139 137/137/137 140/140/140 
f 140/140/140 137/137/137 138/138/138 
f 141/141/141 138/138/138 142/142/142 
f 138/138/138 141/141/141 140/140/140 
f 143/143/143 144/144/144 145/145/145 
f 140/140/140 146/146/146 139/139/139 
f 146/146/146 147/147/147 148/148/148 
f 149/149/149 145/145/145 144/144/144 
f 141/141/141 142/142/142 150/150/150 
f 147/147/147 141/141/141 150/150/150 
f 146/146/146 148/148/148 151/151/151 
f 147/147/147 152/152/152 153/153/153 
f 152/152/152 147/147/147 150/150/150 
f 147/147/147 153/153/153 148/148/148 
f 154/154/154 155/155/155 156/156/156 
f 157/157/157 157/157/157 151/151/151 
f 98/98/98 98/98/98 97/97/97 
f 90/90/90 133/133/133 91/91/91 
f 86/86/86 158/158/158 87/87/87 
f 148/148/148 159/159/159 151/151/151 
f 151/151/151 139/139/139 146/146/146 
f 132/132/132 160/160/160 133/133/133 
f 157/157/157 159/159/159 161/161/161 
f 159/159/159 157/157/157 151/151/151 
f 94/94/94 95/95/95 95/95/95 
f 89/89/89 91/91/91 128/128/128 
f 162/162/162 161/161/161 161/161/161 
f 163/163/163 161/161/161 159/159/159 
f 161/161/161 163/163/163 162/162/162 
f 162/162/162 163/163/163 152/152/152 
f 164/164/164 156/156/156 155/155/155 
f 163/163/163 153/153/153 152/152/152 
f 165/165/165 166/166/166 167/167/167 
f 166/166/166 165/165/165 168/168/168 
f 169/169/169 170/170/170 171/171/171 
f 172/172/172 173/173/173 174/174/174 
f 168/168/168 175/175/175 166/166/166 
f 176/176/176 177/177/177 178/178/178 
f 179/179/179 166/166/166 175/175/175 
f 180/180/180 181/181/181 182/182/182 
f 183/183/183 167/167/167 166/166/166 
f 184/184/184 185/185/185 186/186/186 
f 187/187/187 176/176/176 178/178/178 
f 171/171/171 188/188/188 169/169/169 
f 189/189/189 190/190/190 191/191/191 
f 192/192/192 186/186/186 185/185/185 
f 190/190/190 193/193/193 191/191/191 
f 194/194/194 99/99/99 101/101/101 
f 150/150/150 142/142/142 195/195/195 
f 169/169/169 188/188/188 196/196/196 
f 101/101/101 100/100/100 197/197/197 
f 142/142/142 198/198/198 195/195/195 
f 199/199/199 200/200/200 201/201/201 
f 192/192/192 185/185/185 202/202/202 
f 203/203/203 169/169/169 196/196/196 
f 173/173/173 204/204/204 174/174/174 
f 205/205/205 206/206/206 207/207/207 
f 208/208/208 209/209/209 210/210/210 
f 211/211/211 212/212/212 213/213/213 
f 214/214/214 215/215/215 216/216/216 
f 213/213/213 217/217/217 211/211/211 
f 203/203/203 196/196/196 218/218/218 
f 126/126/126 128/128/128 219/219/219 
f 220/220/220 221/221/221 201/201/201 
f 222/222/222 208/208/208 210/210/210 
f 223/223/223 205/205/205 224/224/224 
f 225/225/225 220/220/220 201/201/201 
f 200/200/200 225/225/225 201/201/201 
f 226/226/226 203/203/203 218/218/218 
f 205/205/205 227/227/227 224/224/224 
f 227/227/227 205/205/205 207/207/207 
f 228/228/228 229/229/229 230/230/230 
f 182/182/182 231/231/231 180/180/180 
f 178/178/178 232/232/232 187/187/187 
f 230/230/230 202/202/202 228/228/228 
f 216/216/216 233/233/233 214/214/214 
f 185/185/185 228/228/228 202/202/202 
f 126/126/126 126/126/126 219/219/219 
f 104/104/104 106/106/106 122/122/122 

g Rightleg1

v 370.375 0.125 210.812 
v 370.375 0 210.812 
v 370.625 0.125 210.812 
v 370.375 0 210.812 
v 370.375 0.125 210.812 
v 370.375 0 210.438 
v 370.375 0.125 210.438 
v 370.375 0.125 210.812 
v 370.625 0.125 210.812 
v 370.375 0.125 210.438 
v 370.625 0.125 210.438 
v 370.625 0 210.812 
v 370.625 0.125 210.812 
v 370.625 0 210.812 
v 370.625 0 210.438 
v 370.375 0 210.812 
v 370.375 0 210.438 
v 370.625 0 210.812 
v 370.625 0 210.438 
v 370.375 0 210.438 
v 370.375 0.125 210.438 
v 370.625 0 210.438 
v 370.625 0 210.437 
v 370.625 0 210.187 
v 370.625 2 210.187 
v 370.625 0 210.187 
v 370.625 0 210.437 
v 370.375 0 210.187 
v 370.625 2 210.437 
v 370.625 2 210.437 
v 370.625 2 210.187 
v 370.375 2 210.437 
v 370.375 2 210.437 
v 370.375 0 210.437 
v 370.625 0 210.437 
v 370.375 0 210.437 
v 370.375 2 210.437 
v 370.375 0 210.187 
v 370.375 0 210.187 
v 370.375 2 210.187 
v 370.625 2 210.187 
v 370.375 2 210.187 
v 370.625 0 210.187 
v 370.625 2 210.437 
v 370.625 0.125 210.438 
v 370.625 0.125 210.438 
v 370.375 0 210.437 
v 370.375 2 210.187 

vn 0 0 1 
vn 0 0 1 
vn 0 0 1 
vn -1 0 0 
vn -1 0 0 
vn -1 0 0 
vn 0 1 0 
vn 0 1 0 
vn 0 1 0 
vn -1 0 0 
vn 0 1 0 
vn 0 0 1 
vn 1 0 0 
vn 1 0 0 
vn 1 0 0 
vn 0 -1 0 
vn 0 -1 0 
vn 0 -1 0 
vn 0 0 -1 
vn 0 0 -1 
vn 0 0 -1 
vn 0 -1 0 
vn 1 0 0 
vn 1 0 0 
vn 1 0 0 
vn 0 -1 0 
vn 0 -1 0 
vn 0 -1 0 
vn 1 0 0 
vn 0 1 0 
vn 0 1 0 
vn 0 1 0 
vn 0 0 1 
vn 0 0 1 
vn 0 0 1 
vn -1 0 0 
vn -1 0 0 
vn -1 0 0 
vn 0 0 -1 
vn 0 0 -1 
vn 0 0 -1 
vn -1 0 0 
vn 0 0 -1 
vn 0 0 1 
vn 0 0 -1 
vn 1 0 0 
vn 0 -1 0 
vn 0 1 0 

vt 586.516 40.599 
vt 586.516 40.5833 
vt 586.547 40.599 
vt 205.525 40.5833 
vt 205.525 40.599 
vt 205.478 40.5833 
vt 586.516 -206.478 
vt 586.516 -206.525 
vt 586.547 -206.525 
vt 205.478 40.599 
vt 586.547 -206.478 
vt 586.547 40.5833 
vt -153.525 40.599 
vt -153.525 40.5833 
vt -153.478 40.5833 
vt -534.516 -206.525 
vt -534.516 -206.478 
vt -534.547 -206.525 
vt -534.547 40.5833 
vt -534.516 40.5833 
vt -534.516 40.599 
vt -534.547 -206.478 
vt -153.478 40.5833 
vt -153.447 40.5833 
vt -153.447 40.8333 
vt -534.547 -206.447 
vt -534.547 -206.478 
vt -534.516 -206.447 
vt -153.478 40.8333 
vt 586.547 -206.478 
vt 586.547 -206.447 
vt 586.516 -206.478 
vt 586.516 40.8333 
vt 586.516 40.5833 
vt 586.547 40.5833 
vt 205.478 40.5833 
vt 205.478 40.8333 
vt 205.447 40.5833 
vt -534.516 40.5833 
vt -534.516 40.8333 
vt -534.547 40.8333 
vt 205.447 40.8333 
vt -534.547 40.5833 
vt 586.547 40.8333 
vt -534.547 40.599 
vt -153.478 40.599 
vt -534.516 -206.478 
vt 586.516 -206.447 

usemtl Rightleg1Mtl

f 234/234/234 235/235/235 236/236/236 
f 237/237/237 238/238/238 239/239/239 
f 240/240/240 241/241/241 242/242/242 
f 238/238/238 243/243/243 239/239/239 
f 240/240/240 242/242/242 244/244/244 
f 245/245/245 236/236/236 235/235/235 
f 246/246/246 247/247/247 248/248/248 
f 249/249/249 250/250/250 251/251/251 
f 252/252/252 253/253/253 254/254/254 
f 250/250/250 255/255/255 251/251/251 
f 256/256/256 257/257/257 258/258/258 
f 259/259/259 260/260/260 261/261/261 
f 258/258/258 262/262/262 256/256/256 
f 263/263/263 264/264/264 265/265/265 
f 266/266/266 267/267/267 268/268/268 
f 269/269/269 270/270/270 271/271/271 
f 272/272/272 273/273/273 274/274/274 
f 275/275/275 271/271/271 270/270/270 
f 272/272/272 274/274/274 276/276/276 
f 268/268/268 277/277/277 266/266/266 
f 278/278/278 252/252/252 254/254/254 
f 248/248/248 279/279/279 246/246/246 
f 260/260/260 280/280/280 261/261/261 
f 265/265/265 264/264/264 281/281/281 

g Wing11

v 368.888 3.3375 211.825 
v 368.888 3.3375 209.575 
v 368.888 2.4625 211.825 
v 368.888 2.4625 209.575 
v 369.013 3.3375 209.575 
v 368.888 3.3375 209.575 
v 369.013 3.3375 211.825 
v 368.888 3.3375 211.825 
v 368.888 3.3375 209.575 
v 369.013 3.3375 209.575 
v 368.888 2.4625 209.575 
v 369.013 2.4625 209.575 
v 369.013 3.3375 209.575 
v 369.013 3.3375 211.825 
v 369.013 2.4625 209.575 
v 369.013 2.4625 211.825 
v 369.013 2.4625 211.825 
v 368.888 2.4625 211.825 
v 369.013 2.4625 209.575 
v 368.888 2.4625 209.575 
v 369.013 3.3375 211.825 
v 368.888 3.3375 211.825 
v 369.013 2.4625 211.825 
v 368.888 2.4625 211.825 

vn -1 0 0 
vn -1 0 0 
vn -1 0 0 
vn -1 0 0 
vn 0 1 0 
vn 0 1 0 
vn 0 1 0 
vn 0 1 0 
vn 0 0 -1 
vn 0 0 -1 
vn 0 0 -1 
vn 0 0 -1 
vn 1 0 0 
vn 1 0 0 
vn 1 0 0 
vn 1 0 0 
vn 0 -1 0 
vn 0 -1 0 
vn 0 -1 0 
vn 0 -1 0 
vn 0 0 1 
vn 0 0 1 
vn 0 0 1 
vn 0 0 1 

vt 5.03125 -1.75 
vt 4.75 -1.75 
vt 5.03125 -1.85938 
vt 4.75 -1.85938 
vt 4.76562 -1.75 
vt 4.75 -1.75 
vt 4.76562 -2.03125 
vt 4.75 -2.03125 
vt 4.76562 -1.75 
vt 4.75 -1.75 
vt 4.76562 -1.85938 
vt 4.75 -1.85938 
vt 5.03125 -1.75 
vt 4.75 -1.75 
vt 5.03125 -1.85938 
vt 4.75 -1.85938 
vt 4.76562 -1.75 
vt 4.75 -1.75 
vt 4.76562 -2.03125 
vt 4.75 -2.03125 
vt 4.76562 -1.75 
vt 4.75 -1.75 
vt 4.76562 -1.85938 
vt 4.75 -1.85938 

usemtl Wing21Mtl

f 282/282/282 283/283/283 284/284/284 
f 284/284/284 283/283/283 285/285/285 
f 286/286/286 287/287/287 288/288/288 
f 288/288/288 287/287/287 289/289/289 
f 290/290/290 291/291/291 292/292/292 
f 292/292/292 291/291/291 293/293/293 
f 294/294/294 295/295/295 296/296/296 
f 296/296/296 295/295/295 297/297/297 
f 298/298/298 299/299/299 300/300/300 
f 300/300/300 299/299/299 301/301/301 
f 302/302/302 303/303/303 304/304/304 
f 304/304/304 303/303/303 305/305/305 

g Leftleg1

v 369.375 0.125 210.812 
v 369.375 0 210.812 
v 369.625 0.125 210.812 
v 369.375 0 210.812 
v 369.375 0.125 210.812 
v 369.375 0 210.438 
v 369.375 0.125 210.438 
v 369.375 0.125 210.812 
v 369.625 0.125 210.812 
v 369.375 0.125 210.438 
v 369.625 0.125 210.438 
v 369.625 0 210.812 
v 369.625 0.125 210.812 
v 369.625 0 210.812 
v 369.625 0 210.438 
v 369.375 0 210.812 
v 369.375 0 210.438 
v 369.625 0 210.812 
v 369.625 0 210.438 
v 369.375 0 210.438 
v 369.375 0.125 210.438 
v 369.625 0 210.438 
v 369.625 0 210.437 
v 369.625 0 210.187 
v 369.625 2 210.187 
v 369.625 0 210.187 
v 369.625 0 210.437 
v 369.375 0 210.187 
v 369.625 2 210.437 
v 369.625 2 210.437 
v 369.625 2 210.187 
v 369.375 2 210.437 
v 369.375 2 210.437 
v 369.375 0 210.437 
v 369.625 0 210.437 
v 369.375 0 210.437 
v 369.375 2 210.437 
v 369.375 0 210.187 
v 369.375 0 210.187 
v 369.375 2 210.187 
v 369.625 2 210.187 
v 369.375 2 210.187 
v 369.625 0 210.187 
v 369.625 2 210.437 
v 369.625 0.125 210.438 
v 369.625 0.125 210.438 
v 369.375 0 210.437 
v 369.375 2 210.187 

vn 0 0 1 
vn 0 0 1 
vn 0 0 1 
vn -1 0 0 
vn -1 0 0 
vn -1 0 0 
vn 0 1 0 
vn 0 1 0 
vn 0 1 0 
vn -1 0 0 
vn 0 1 0 
vn 0 0 1 
vn 1 0 0 
vn 1 0 0 
vn 1 0 0 
vn 0 -1 0 
vn 0 -1 0 
vn 0 -1 0 
vn 0 0 -1 
vn 0 0 -1 
vn 0 0 -1 
vn 0 -1 0 
vn 1 0 0 
vn 1 0 0 
vn 1 0 0 
vn 0 -1 0 
vn 0 -1 0 
vn 0 -1 0 
vn 1 0 0 
vn 0 1 0 
vn 0 1 0 
vn 0 1 0 
vn 0 0 1 
vn 0 0 1 
vn 0 0 1 
vn -1 0 0 
vn -1 0 0 
vn -1 0 0 
vn 0 0 -1 
vn 0 0 -1 
vn 0 0 -1 
vn -1 0 0 
vn 0 0 -1 
vn 0 0 1 
vn 0 0 -1 
vn 1 0 0 
vn 0 -1 0 
vn 0 1 0 

vt 596.516 32.599 
vt 596.516 32.5833 
vt 596.547 32.599 
vt 215.525 32.5833 
vt 215.525 32.599 
vt 215.478 32.5833 
vt 596.516 -214.478 
vt 596.516 -214.525 
vt 596.547 -214.525 
vt 215.478 32.599 
vt 596.547 -214.478 
vt 596.547 32.5833 
vt -143.525 32.599 
vt -143.525 32.5833 
vt -143.478 32.5833 
vt -524.516 -214.525 
vt -524.516 -214.478 
vt -524.547 -214.525 
vt -524.547 32.5833 
vt -524.516 32.5833 
vt -524.516 32.599 
vt -524.547 -214.478 
vt -143.478 32.5833 
vt -143.447 32.5833 
vt -143.447 32.8333 
vt -524.547 -214.447 
vt -524.547 -214.478 
vt -524.516 -214.447 
vt -143.478 32.8333 
vt 596.547 -214.478 
vt 596.547 -214.447 
vt 596.516 -214.478 
vt 596.516 32.8333 
vt 596.516 32.5833 
vt 596.547 32.5833 
vt 215.478 32.5833 
vt 215.478 32.8333 
vt 215.447 32.5833 
vt -524.516 32.5833 
vt -524.516 32.8333 
vt -524.547 32.8333 
vt 215.447 32.8333 
vt -524.547 32.5833 
vt 596.547 32.8333 
vt -524.547 32.599 
vt -143.478 32.599 
vt -524.516 -214.478 
vt 596.516 -214.447 

usemtl Rightleg1Mtl

f 306/306/306 307/307/307 308/308/308 
f 309/309/309 310/310/310 311/311/311 
f 312/312/312 313/313/313 314/314/314 
f 310/310/310 315/315/315 311/311/311 
f 312/312/312 314/314/314 316/316/316 
f 317/317/317 308/308/308 307/307/307 
f 318/318/318 319/319/319 320/320/320 
f 321/321/321 322/322/322 323/323/323 
f 324/324/324 325/325/325 326/326/326 
f 322/322/322 327/327/327 323/323/323 
f 328/328/328 329/329/329 330/330/330 
f 331/331/331 332/332/332 333/333/333 
f 330/330/330 334/334/334 328/328/328 
f 335/335/335 336/336/336 337/337/337 
f 338/338/338 339/339/339 340/340/340 
f 341/341/341 342/342/342 343/343/343 
f 344/344/344 345/345/345 346/346/346 
f 347/347/347 343/343/343 342/342/342 
f 344/344/344 346/346/346 348/348/348 
f 340/340/340 349/349/349 338/338/338 
f 350/350/350 324/324/324 326/326/326 
f 320/320/320 351/351/351 318/318/318 
f 332/332/332 352/352/352 333/333/333 
f 337/337/337 336/336/336 353/353/353 

